<svg width="18" height="18" viewBox="0 0 18 18" fill="none" xmlns="http://www.w3.org/2000/svg">
<path d="M5.82896 1.82911L6.63671 1.57111C7.39271 1.32961 8.20121 1.72036 8.52521 2.48386L9.17021 4.00486C9.45146 4.66711 9.29546 5.44636 8.78471 5.93086L7.36496 7.27936C7.45271 8.08636 7.72346 8.88061 8.17796 9.66211C8.60983 10.4182 9.18901 11.08 9.88121 11.6084L11.5882 11.0384C12.2347 10.8231 12.939 11.0714 13.3357 11.6541L14.2597 13.0116C14.7217 13.6896 14.6385 14.6241 14.0662 15.1986L13.4527 15.8144C12.8422 16.4271 11.9707 16.6499 11.1637 16.3979C9.25946 15.8039 7.50896 14.0406 5.91146 11.1081C4.31171 8.17111 3.74771 5.67811 4.21796 3.63211C4.41596 2.77111 5.02946 2.08486 5.83046 1.82911" fill="white"/>
</svg>
