<svg width="171" height="76" viewBox="0 0 171 76" fill="none" xmlns="http://www.w3.org/2000/svg">
<g clip-path="url(#clip0_370_928)">
<path d="M61.496 26.3513C56.3211 29.4339 53.1248 34.7183 53.1248 40.5899C53.1248 47.1954 57.2343 53.2137 63.4747 55.7091C62.2571 59.5257 60.4306 63.0486 58.1475 66.278C54.799 70.8284 51.2983 75.5257 46.1233 75.5257C40.9483 75.5257 39.4263 72.5899 33.3381 72.5899C27.4021 72.5899 25.2712 75.6724 20.4007 75.6724C15.5301 75.6724 12.1816 71.4156 8.37644 66.1312C3.35367 58.7917 0.461775 50.278 0.30957 41.3238C0.30957 26.7917 10.0507 19.0119 19.7918 19.0119C24.9668 19.0119 29.2286 22.2413 32.4249 22.2413C35.469 22.2413 40.3395 18.8651 46.1233 18.8651C52.2115 18.7183 57.9953 21.5073 61.496 26.3513ZM43.3836 12.7C45.9711 9.76419 47.341 6.09446 47.4932 2.27795C47.4932 1.83758 47.4932 1.25043 47.341 0.810059C42.927 1.25043 38.8175 3.30547 35.9256 6.53483C33.3381 9.32382 31.816 12.8468 31.6638 16.6633C31.6638 17.1036 31.6638 17.544 31.816 17.9844C32.1204 17.9844 32.5771 18.1312 32.8815 18.1312C36.991 17.8376 40.7961 15.7825 43.3836 12.7Z" fill="white"/>
</g>
<path d="M99.0058 49.7412L96.9783 43.8458H88.5874L86.5911 49.7412H82.3489L90.5214 27.3761H95.0755L103.248 49.7412H99.0058ZM94.015 34.6752C93.9318 34.384 93.807 33.9889 93.6406 33.4898C93.4743 32.9908 93.3079 32.4813 93.1416 31.9614C92.996 31.4207 92.8816 30.9736 92.7984 30.6201C92.6945 31.036 92.5593 31.5143 92.3929 32.055C92.2474 32.5956 92.1018 33.1051 91.9562 33.5834C91.8315 34.0617 91.7275 34.4256 91.6443 34.6752L89.6792 40.4146H95.9489L94.015 34.6752ZM114.848 32.5229C116.824 32.5229 118.415 33.2611 119.621 34.7375C120.827 36.1932 121.43 38.3663 121.43 41.2568C121.43 43.17 121.149 44.7816 120.588 46.0917C120.026 47.4018 119.247 48.3895 118.248 49.055C117.25 49.7204 116.086 50.0531 114.755 50.0531C113.944 50.0531 113.226 49.9492 112.603 49.7412C111.979 49.5125 111.448 49.2317 111.012 48.899C110.575 48.5455 110.201 48.1712 109.889 47.7761H109.639C109.722 48.1504 109.785 48.5767 109.826 49.055C109.868 49.5125 109.889 49.9492 109.889 50.3651V57.2274H105.959V32.8348H109.14L109.702 35.0807H109.889C110.201 34.6024 110.575 34.1761 111.012 33.8018C111.469 33.4067 112.01 33.0947 112.634 32.866C113.278 32.6372 114.017 32.5229 114.848 32.5229ZM113.726 35.7045C112.811 35.7045 112.072 35.8917 111.511 36.266C110.949 36.6195 110.544 37.1706 110.294 37.9192C110.045 38.6678 109.91 39.6036 109.889 40.7265V41.2256C109.889 42.4317 110.003 43.4507 110.232 44.2825C110.482 45.1143 110.887 45.7486 111.448 46.1852C112.031 46.6219 112.811 46.8403 113.788 46.8403C114.62 46.8403 115.296 46.6115 115.815 46.1541C116.356 45.6966 116.751 45.0519 117.001 44.2201C117.271 43.3675 117.406 42.3589 117.406 41.1944C117.406 39.4476 117.105 38.096 116.502 37.1394C115.919 36.1828 114.994 35.7045 113.726 35.7045ZM134.53 32.5229C136.506 32.5229 138.097 33.2611 139.303 34.7375C140.509 36.1932 141.112 38.3663 141.112 41.2568C141.112 43.17 140.831 44.7816 140.27 46.0917C139.708 47.4018 138.928 48.3895 137.93 49.055C136.932 49.7204 135.768 50.0531 134.437 50.0531C133.626 50.0531 132.908 49.9492 132.284 49.7412C131.661 49.5125 131.13 49.2317 130.694 48.899C130.257 48.5455 129.883 48.1712 129.571 47.7761H129.321C129.404 48.1504 129.467 48.5767 129.508 49.055C129.55 49.5125 129.571 49.9492 129.571 50.3651V57.2274H125.64V32.8348H128.822L129.384 35.0807H129.571C129.883 34.6024 130.257 34.1761 130.694 33.8018C131.151 33.4067 131.692 33.0947 132.316 32.866C132.96 32.6372 133.699 32.5229 134.53 32.5229ZM133.407 35.7045C132.492 35.7045 131.754 35.8917 131.193 36.266C130.631 36.6195 130.226 37.1706 129.976 37.9192C129.727 38.6678 129.591 39.6036 129.571 40.7265V41.2256C129.571 42.4317 129.685 43.4507 129.914 44.2825C130.163 45.1143 130.569 45.7486 131.13 46.1852C131.713 46.6219 132.492 46.8403 133.47 46.8403C134.302 46.8403 134.977 46.6115 135.497 46.1541C136.038 45.6966 136.433 45.0519 136.683 44.2201C136.953 43.3675 137.088 42.3589 137.088 41.1944C137.088 39.4476 136.787 38.096 136.184 37.1394C135.601 36.1828 134.676 35.7045 133.407 35.7045ZM149.253 49.7412H145.322V26.0348H149.253V49.7412ZM161.234 32.5229C162.752 32.5229 164.052 32.8348 165.133 33.4586C166.235 34.0617 167.088 34.9351 167.691 36.0788C168.294 37.2018 168.595 38.5742 168.595 40.1963V42.1926H157.428C157.47 43.7314 157.896 44.9271 158.707 45.7797C159.518 46.6115 160.641 47.0274 162.076 47.0274C163.178 47.0274 164.156 46.9235 165.008 46.7155C165.882 46.4868 166.776 46.1645 167.691 45.7486V48.899C166.859 49.2941 165.996 49.5852 165.102 49.7724C164.208 49.9596 163.137 50.0531 161.889 50.0531C160.246 50.0531 158.78 49.7412 157.491 49.1174C156.222 48.4727 155.224 47.5057 154.496 46.2164C153.789 44.9271 153.436 43.3259 153.436 41.4128C153.436 39.4788 153.758 37.8568 154.403 36.5467C155.068 35.2158 155.983 34.2177 157.148 33.5522C158.312 32.866 159.674 32.5229 161.234 32.5229ZM161.234 35.4238C160.194 35.4238 159.342 35.7669 158.676 36.4531C158.031 37.1186 157.647 38.1167 157.522 39.4476H164.79C164.79 38.6574 164.655 37.9608 164.384 37.3577C164.135 36.7547 163.75 36.2868 163.23 35.9541C162.71 35.6005 162.045 35.4238 161.234 35.4238Z" fill="white"/>
<defs>
<clipPath id="clip0_370_928">
<rect width="63.1651" height="74.8624" fill="white" transform="translate(0.30957 0.810059)"/>
</clipPath>
</defs>
</svg>
