<svg width="1240" height="769" viewBox="0 0 1240 769" fill="none" xmlns="http://www.w3.org/2000/svg">
<rect width="1240" height="769" fill="url(#paint0_radial_613_6084)"/>
<line x1="-0.000434028" y1="95.5" x2="1240" y2="94.4236" stroke="#414F5E" stroke-opacity="0.57"/>
<line y1="191.5" x2="1240" y2="191.5" stroke="#414F5E" stroke-opacity="0.57"/>
<line y1="287.5" x2="1240" y2="287.5" stroke="#414F5E" stroke-opacity="0.57"/>
<line y1="383.5" x2="1240" y2="383.5" stroke="#414F5E" stroke-opacity="0.57"/>
<line y1="479.5" x2="1240" y2="479.5" stroke="#414F5E" stroke-opacity="0.57"/>
<line y1="575.5" x2="1240" y2="575.5" stroke="#414F5E" stroke-opacity="0.57"/>
<line y1="671.5" x2="1240" y2="671.5" stroke="#414F5E" stroke-opacity="0.57"/>
<line x1="102.833" y1="769" x2="102.833" y2="1.88413e-09" stroke="#414F5E" stroke-opacity="0.57"/>
<line x1="206.167" y1="769" x2="206.167" y2="1.88413e-09" stroke="#414F5E" stroke-opacity="0.57"/>
<line x1="309.5" y1="769" x2="309.5" y2="1.88413e-09" stroke="#414F5E" stroke-opacity="0.57"/>
<line x1="412.833" y1="769" x2="412.833" y2="1.88413e-09" stroke="#414F5E" stroke-opacity="0.57"/>
<line x1="516.167" y1="769" x2="516.167" y2="1.88413e-09" stroke="#414F5E" stroke-opacity="0.57"/>
<line x1="619.5" y1="769" x2="619.5" y2="1.88413e-09" stroke="#414F5E" stroke-opacity="0.57"/>
<line x1="722.833" y1="769" x2="722.833" y2="1.88413e-09" stroke="#414F5E" stroke-opacity="0.57"/>
<line x1="826.167" y1="769" x2="826.167" y2="1.88413e-09" stroke="#414F5E" stroke-opacity="0.57"/>
<line x1="929.5" y1="769" x2="929.5" y2="1.88413e-09" stroke="#414F5E" stroke-opacity="0.57"/>
<line x1="1032.83" y1="769" x2="1032.83" y2="1.88413e-09" stroke="#414F5E" stroke-opacity="0.57"/>
<line x1="1136.17" y1="769" x2="1136.17" y2="1.88413e-09" stroke="#414F5E" stroke-opacity="0.57"/>
<defs>
<radialGradient id="paint0_radial_613_6084" cx="0" cy="0" r="1" gradientUnits="userSpaceOnUse" gradientTransform="translate(615.694 342.5) rotate(89.4216) scale(426.522 687.75)">
<stop stop-color="#062179" stop-opacity="0.6"/>
<stop offset="1" stop-color="#080808"/>
</radialGradient>
</defs>
</svg>
