<svg width="90" height="48" viewBox="0 0 90 48" fill="none" xmlns="http://www.w3.org/2000/svg">
<path d="M2.84031 45.3974C2.25715 45.3974 1.75633 45.298 1.33783 45.099C0.926187 44.9 0.552282 44.6016 0.21611 44.2037L1.1423 43.2775C1.35498 43.5588 1.60196 43.7783 1.88325 43.9361C2.16453 44.0871 2.50757 44.1625 2.91234 44.1625C3.27596 44.1625 3.56411 44.0905 3.77679 43.9464C3.99633 43.8023 4.1061 43.6034 4.1061 43.3495C4.1061 43.13 4.04435 42.9516 3.92086 42.8144C3.79737 42.6772 3.63271 42.5606 3.42689 42.4645C3.22793 42.3685 3.00496 42.2827 2.75798 42.2072C2.51786 42.1249 2.2743 42.0323 2.02732 41.9294C1.7872 41.8265 1.56423 41.6996 1.35841 41.5486C1.15945 41.3908 0.998224 41.1919 0.874732 40.9517C0.751241 40.7048 0.689495 40.396 0.689495 40.0256C0.689495 39.5865 0.795835 39.2126 1.00852 38.9038C1.2212 38.5951 1.51277 38.3584 1.88325 38.1938C2.25372 38.0291 2.67222 37.9468 3.13875 37.9468C3.63271 37.9468 4.07865 38.0394 4.47657 38.2246C4.87449 38.4099 5.20037 38.65 5.45421 38.945L4.52803 39.8712C4.31535 39.6379 4.09581 39.4664 3.8694 39.3566C3.64986 39.2469 3.39945 39.192 3.11816 39.192C2.79571 39.192 2.54187 39.2537 2.35663 39.3772C2.17139 39.5007 2.07878 39.6791 2.07878 39.9124C2.07878 40.1113 2.14052 40.2725 2.26401 40.396C2.38751 40.5195 2.54873 40.6259 2.74769 40.7151C2.95351 40.8042 3.17648 40.89 3.4166 40.9723C3.66359 41.0547 3.90714 41.1473 4.14726 41.2502C4.39424 41.3531 4.61722 41.4869 4.81617 41.6515C5.02199 41.8162 5.18665 42.0289 5.31014 42.2896C5.43363 42.5434 5.49538 42.859 5.49538 43.2363C5.49538 43.9087 5.25869 44.437 4.7853 44.8211C4.31192 45.2053 3.66359 45.3974 2.84031 45.3974ZM14.0595 45.4077C13.5312 45.4077 13.0372 45.3117 12.5776 45.1196C12.1248 44.9275 11.7269 44.6634 11.3838 44.3272C11.0477 43.9841 10.7835 43.5862 10.5914 43.1334C10.3993 42.6738 10.3033 42.1832 10.3033 41.6618C10.3033 41.1404 10.3959 40.6567 10.5811 40.2108C10.7732 39.758 11.0374 39.3635 11.3735 39.0273C11.7166 38.6843 12.1145 38.4202 12.5673 38.2349C13.0201 38.0428 13.5106 37.9468 14.0389 37.9468C14.574 37.9468 15.068 38.0428 15.5208 38.2349C15.9736 38.4202 16.3681 38.6843 16.7043 39.0273C17.0473 39.3635 17.3149 39.758 17.507 40.2108C17.699 40.6636 17.7951 41.1507 17.7951 41.6721C17.7951 42.1935 17.699 42.6806 17.507 43.1334C17.3149 43.5862 17.0473 43.9841 16.7043 44.3272C16.3681 44.6634 15.9736 44.9275 15.5208 45.1196C15.0749 45.3117 14.5877 45.4077 14.0595 45.4077ZM14.0389 44.1008C14.5054 44.1008 14.9102 43.9979 15.2532 43.7921C15.5963 43.5862 15.8638 43.3015 16.0559 42.9379C16.2549 42.5743 16.3544 42.1489 16.3544 41.6618C16.3544 41.3051 16.2995 40.9792 16.1897 40.6842C16.0799 40.3892 15.9221 40.1353 15.7163 39.9226C15.5105 39.7031 15.2669 39.535 14.9857 39.4184C14.7044 39.3018 14.3888 39.2434 14.0389 39.2434C13.5861 39.2434 13.1847 39.3464 12.8349 39.5522C12.4918 39.7511 12.2208 40.0324 12.0219 40.396C11.8298 40.7596 11.7337 41.1816 11.7337 41.6618C11.7337 42.0254 11.7886 42.3582 11.8984 42.66C12.015 42.9619 12.1728 43.2192 12.3718 43.4319C12.5776 43.6445 12.8211 43.8092 13.1024 43.9258C13.3906 44.0425 13.7027 44.1008 14.0389 44.1008ZM22.918 45.2945L22.918 38.06L24.3176 38.06L24.3176 45.2945L22.918 45.2945ZM23.9471 45.2945L23.9471 44.0493L27.6313 44.0493L27.6313 45.2945L23.9471 45.2945ZM35.2491 45.3974C34.6797 45.3974 34.172 45.274 33.7261 45.027C33.287 44.7731 32.9405 44.4267 32.6867 43.9876C32.4328 43.5485 32.3059 43.0511 32.3059 42.4954L32.3059 38.06L33.7055 38.06L33.7055 42.5366C33.7055 42.859 33.7707 43.1369 33.901 43.3701C34.0382 43.6034 34.2235 43.7852 34.4567 43.9155C34.6969 44.039 34.961 44.1008 35.2491 44.1008C35.5442 44.1008 35.8049 44.039 36.0313 43.9155C36.2577 43.7852 36.436 43.6034 36.5664 43.3701C36.7036 43.1369 36.7722 42.8624 36.7722 42.5468L36.7722 38.06L38.1821 38.06L38.1821 42.5057C38.1821 43.0614 38.0551 43.5588 37.8013 43.9979C37.5475 44.4301 37.201 44.7731 36.7619 45.027C36.3297 45.274 35.8254 45.3974 35.2491 45.3974ZM45.2978 45.2945L45.2978 38.2143L46.7077 38.2143L46.7077 45.2945L45.2978 45.2945ZM42.9926 39.3052L42.9926 38.06L49.0128 38.06L49.0128 39.3052L42.9926 39.3052ZM53.9927 45.2945L53.9927 38.06L55.3923 38.06L55.3923 45.2945L53.9927 45.2945ZM64.2762 45.4077C63.7479 45.4077 63.254 45.3117 62.7943 45.1196C62.3415 44.9275 61.9436 44.6634 61.6005 44.3272C61.2644 43.9841 61.0002 43.5862 60.8081 43.1334C60.616 42.6738 60.52 42.1832 60.52 41.6618C60.52 41.1404 60.6126 40.6567 60.7978 40.2108C60.9899 39.758 61.2541 39.3635 61.5902 39.0273C61.9333 38.6843 62.3312 38.4202 62.784 38.2349C63.2368 38.0428 63.7273 37.9468 64.2556 37.9468C64.7907 37.9468 65.2847 38.0428 65.7375 38.2349C66.1903 38.4202 66.5848 38.6843 66.921 39.0273C67.264 39.3635 67.5316 39.758 67.7237 40.2108C67.9158 40.6636 68.0118 41.1507 68.0118 41.6721C68.0118 42.1935 67.9158 42.6806 67.7237 43.1334C67.5316 43.5862 67.264 43.9841 66.921 44.3272C66.5848 44.6634 66.1903 44.9275 65.7375 45.1196C65.2916 45.3117 64.8045 45.4077 64.2762 45.4077ZM64.2556 44.1008C64.7221 44.1008 65.1269 43.9979 65.4699 43.7921C65.813 43.5862 66.0805 43.3015 66.2726 42.9379C66.4716 42.5743 66.5711 42.1489 66.5711 41.6618C66.5711 41.3051 66.5162 40.9792 66.4064 40.6842C66.2967 40.3892 66.1389 40.1353 65.933 39.9226C65.7272 39.7031 65.4837 39.535 65.2024 39.4184C64.9211 39.3018 64.6055 39.2434 64.2556 39.2434C63.8028 39.2434 63.4015 39.3464 63.0516 39.5522C62.7085 39.7511 62.4375 40.0324 62.2386 40.396C62.0465 40.7596 61.9504 41.1816 61.9504 41.6618C61.9504 42.0254 62.0053 42.3582 62.1151 42.66C62.2317 42.9619 62.3895 43.2192 62.5885 43.4319C62.7943 43.6445 63.0378 43.8092 63.3191 43.9258C63.6073 44.0425 63.9194 44.1008 64.2556 44.1008ZM73.1347 45.2945L73.1347 38.06L74.1124 38.06L74.5343 39.4596L74.5343 45.2945L73.1347 45.2945ZM78.1361 45.2945L73.8448 39.7374L74.1124 38.06L78.4037 43.6171L78.1361 45.2945ZM78.1361 45.2945L77.7348 43.9361L77.7348 38.06L79.1446 38.06L79.1446 45.2945L78.1361 45.2945ZM86.5839 45.3974C86.0007 45.3974 85.4999 45.298 85.0814 45.099C84.6698 44.9 84.2959 44.6016 83.9597 44.2037L84.8859 43.2775C85.0986 43.5588 85.3455 43.7783 85.6268 43.9361C85.9081 44.0871 86.2511 44.1625 86.6559 44.1625C87.0195 44.1625 87.3077 44.0905 87.5204 43.9464C87.7399 43.8023 87.8497 43.6034 87.8497 43.3495C87.8497 43.13 87.7879 42.9516 87.6644 42.8144C87.5409 42.6772 87.3763 42.5606 87.1705 42.4645C86.9715 42.3685 86.7485 42.2827 86.5016 42.2072C86.2614 42.1249 86.0179 42.0323 85.7709 41.9294C85.5308 41.8265 85.3078 41.6996 85.102 41.5486C84.903 41.3908 84.7418 41.1919 84.6183 40.9517C84.4948 40.7048 84.4331 40.396 84.4331 40.0256C84.4331 39.5865 84.5394 39.2126 84.7521 38.9038C84.9648 38.5951 85.2563 38.3584 85.6268 38.1938C85.9973 38.0291 86.4158 37.9468 86.8823 37.9468C87.3763 37.9468 87.8222 38.0394 88.2201 38.2246C88.6181 38.4099 88.9439 38.65 89.1978 38.945L88.2716 39.8712C88.0589 39.6379 87.8394 39.4664 87.613 39.3566C87.3934 39.2469 87.143 39.192 86.8617 39.192C86.5393 39.192 86.2854 39.2537 86.1002 39.3772C85.915 39.5007 85.8224 39.6791 85.8224 39.9124C85.8224 40.1113 85.8841 40.2725 86.0076 40.396C86.1311 40.5195 86.2923 40.6259 86.4913 40.7151C86.6971 40.8042 86.9201 40.89 87.1602 40.9723C87.4072 41.0547 87.6507 41.1473 87.8908 41.2502C88.1378 41.3531 88.3608 41.4869 88.5598 41.6515C88.7656 41.8162 88.9302 42.0289 89.0537 42.2896C89.1772 42.5434 89.239 42.859 89.239 43.2363C89.239 43.9087 89.0023 44.437 88.5289 44.8211C88.0555 45.2053 87.4072 45.3974 86.5839 45.3974Z" fill="white"/>
<path d="M8.63033 31.2422C6.72241 31.2422 5.03808 30.8916 3.57734 30.1905C2.91828 29.8542 2.30981 29.4651 1.75194 29.0234C0.643423 28.1457 0.789162 26.515 1.82076 25.5481L2.19898 25.1936C3.21106 24.245 4.82067 24.4841 6.03676 25.1515C6.81185 25.5312 7.66147 25.7211 8.58561 25.7211C9.50976 25.7211 10.3147 25.5312 11.0003 25.1515C11.7158 24.7717 12.2524 24.2167 12.6101 23.4864C12.9977 22.7561 13.1914 21.8651 13.1914 20.8135L13.1914 3.0631C13.1914 1.3714 14.5628 0 16.2545 0C17.9462 0 19.3176 1.37139 19.3176 3.0631L19.3176 20.4629C19.3176 22.6246 18.8705 24.5234 17.9761 26.1593C17.1116 27.7659 15.8744 29.022 14.2646 29.9276C12.6846 30.804 10.8065 31.2422 8.63033 31.2422Z" fill="white"/>
<path d="M31.9936 30.8911C30.5343 30.8911 29.2194 30.0098 28.6648 28.66L23.891 17.0411C23.0768 15.0595 24.5339 12.8855 26.6763 12.8855C27.9292 12.8855 29.0512 13.6613 29.4935 14.8335L33.3377 25.0195L30.7889 25.0195L35.4761 12.8855L39.764 17.7875L35.3251 28.6533C34.7722 30.0066 33.4556 30.8911 31.9936 30.8911Z" fill="white"/>
<path d="M78.0548 31.7241C75.7594 31.7241 73.6279 31.3298 71.6604 30.5411C69.6928 29.7231 67.9638 28.5985 66.4732 27.1671C65.0125 25.7065 63.8796 24.0122 63.0747 22.0842C62.2997 20.1562 61.9121 18.0822 61.9121 15.8621C61.9121 13.642 62.2997 11.5679 63.0747 9.63993C63.8796 7.71195 65.0125 6.03226 66.4732 4.60088C67.9638 3.16949 69.6779 2.04483 71.6156 1.2269C73.5832 0.408967 75.7296 0 78.0548 0C80.559 0 82.765 0.408967 84.6729 1.2269C85.6694 1.63882 86.6048 2.13441 87.4793 2.71366C88.7944 3.58478 88.7938 5.42658 87.6672 6.53061C86.5418 7.63331 84.7308 7.54414 83.3473 6.79035C83.0562 6.63177 82.7528 6.48618 82.4371 6.35359C81.185 5.82778 79.7243 5.56487 78.0548 5.56487C76.5941 5.56487 75.2526 5.81317 74.0303 6.30977C72.8379 6.77716 71.7945 7.47825 70.9002 8.41303C70.0058 9.3186 69.3202 10.414 68.8432 11.6994C68.3662 12.9555 68.1277 14.3431 68.1277 15.8621C68.1277 17.4103 68.3662 18.8125 68.8432 20.0686C69.3202 21.3247 70.0058 22.4201 70.9002 23.3549C71.7945 24.2605 72.8379 24.9616 74.0303 25.4582C75.2526 25.9548 76.5941 26.2031 78.0548 26.2031C79.8137 26.2031 81.3192 25.9402 82.5712 25.4144C82.8976 25.2805 83.2104 25.1324 83.5097 24.9702C84.906 24.2132 86.738 24.1077 87.8724 25.2194C88.9881 26.3127 88.9987 28.1348 87.7022 29.0061C86.8049 29.609 85.8399 30.1207 84.8071 30.5411C82.8693 31.3298 80.6186 31.7241 78.0548 31.7241Z" fill="white"/>
<rect x="22.0137" width="37.1618" height="5.32217" rx="2.66109" fill="white"/>
<path d="M35.4473 12.8855L56.5126 12.8855C57.9823 12.8855 59.1737 14.0769 59.1737 15.5466C59.1737 17.0163 57.9823 18.2077 56.5126 18.2077L35.4473 18.2077L35.4473 12.8855Z" fill="white"/>
<rect x="42.0215" y="25.7703" width="17.1516" height="5.32217" rx="2.66109" fill="white"/>
</svg>
