<svg width="209" height="135" viewBox="0 0 209 135" fill="none" xmlns="http://www.w3.org/2000/svg">
<path d="M73.1787 76.3154L75.3165 71.3335C77.6565 73.062 80.7102 73.9773 83.7622 73.9773C86.0003 73.9773 87.426 73.113 87.426 71.7919C87.375 68.131 73.9434 70.9786 73.8415 61.777C73.7905 57.1007 77.9624 53.4907 83.8659 53.4907C87.3767 53.4907 90.8876 54.355 93.3805 56.3383L91.3838 61.4272C89.0897 59.9568 86.2569 58.9312 83.5617 58.9312C81.7298 58.9312 80.508 59.7955 80.508 60.9144C80.559 64.5244 94.0926 62.5411 94.2455 71.3369C94.2455 76.1151 90.1739 79.4703 84.374 79.4703C80.0984 79.4669 76.1815 78.4498 73.1787 76.3154Z" fill="white"/>
<path d="M155.702 69.5284C154.637 71.4098 152.616 72.68 150.298 72.68C146.871 72.68 144.091 69.9037 144.091 66.4771C144.091 63.0505 146.869 60.2743 150.298 60.2743C152.616 60.2743 154.637 61.5444 155.702 63.4258L161.643 60.1367C159.419 56.1702 155.172 53.4873 150.298 53.4873C143.119 53.4873 137.298 59.303 137.298 66.4771C137.298 73.6512 143.119 79.4669 150.298 79.4669C155.174 79.4669 159.419 76.7841 161.643 72.8175L155.702 69.5284Z" fill="white"/>
<path d="M104.668 42.6743H97.2383V78.9575H104.668V42.6743Z" fill="white"/>
<path d="M164.533 42.6743V78.9592H171.963V68.0868L180.765 78.9592H190.26L179.066 66.0441L189.446 53.995H180.358L171.963 64.0116V42.6743H164.533Z" fill="white"/>
<path d="M126.692 69.5777C125.623 71.3572 123.385 72.6783 120.892 72.6783C117.465 72.6783 114.685 69.902 114.685 66.4754C114.685 63.0488 117.465 60.2726 120.892 60.2726C123.385 60.2726 125.623 61.6446 126.692 63.475V69.5777ZM126.692 53.995V56.9445C125.47 54.9102 122.469 53.4873 119.314 53.4873C112.8 53.4873 107.661 59.2317 107.661 66.4516C107.661 73.6716 112.8 79.4669 119.314 79.4669C122.468 79.4669 125.47 78.044 126.69 76.0098V78.9575H134.118V53.995H126.692Z" fill="white"/>
<path d="M27.2966 69.5339C27.2966 72.0656 25.2421 74.1185 22.7084 74.1185C20.1746 74.1185 18.1201 72.0656 18.1201 69.5339C18.1201 67.0021 20.1746 64.9492 22.7084 64.9492H27.2966V69.5339Z" fill="#E01E5A"/>
<path d="M29.5913 69.5339C29.5913 67.0021 31.6458 64.9492 34.1795 64.9492C36.7133 64.9492 38.7678 67.0021 38.7678 69.5339V80.9955C38.7678 83.5272 36.7133 85.5801 34.1795 85.5801C31.6458 85.5801 29.5913 83.5272 29.5913 80.9955V69.5339Z" fill="#E01E5A"/>
<path d="M34.1795 51.1952C31.6458 51.1952 29.5913 49.1423 29.5913 46.6105C29.5913 44.0788 31.6458 42.0259 34.1795 42.0259C36.7133 42.0259 38.7678 44.0788 38.7678 46.6105V51.1952H34.1795Z" fill="#36C5F0"/>
<path d="M34.1789 53.4873C36.7127 53.4873 38.7672 55.5402 38.7672 58.0719C38.7672 60.6037 36.7127 62.6566 34.1789 62.6566H22.7084C20.1746 62.6566 18.1201 60.6037 18.1201 58.0719C18.1201 55.5402 20.1746 53.4873 22.7084 53.4873H34.1789Z" fill="#36C5F0"/>
<path d="M52.5317 58.0719C52.5317 55.5402 54.5862 53.4873 57.12 53.4873C59.6537 53.4873 61.7082 55.5402 61.7082 58.0719C61.7082 60.6037 59.6537 62.6566 57.12 62.6566H52.5317V58.0719Z" fill="#2EB67D"/>
<path d="M50.237 58.0721C50.237 60.6039 48.1825 62.6568 45.6488 62.6568C43.1151 62.6568 41.0605 60.6039 41.0605 58.0721V46.6105C41.0605 44.0788 43.1151 42.0259 45.6488 42.0259C48.1825 42.0259 50.237 44.0788 50.237 46.6105V58.0721Z" fill="#2EB67D"/>
<path d="M45.6488 76.4106C48.1825 76.4106 50.237 78.4635 50.237 80.9953C50.237 83.527 48.1825 85.5799 45.6488 85.5799C43.1151 85.5799 41.0605 83.527 41.0605 80.9953V76.4106H45.6488Z" fill="#ECB22E"/>
<path d="M45.6488 74.1185C43.1151 74.1185 41.0605 72.0656 41.0605 69.5339C41.0605 67.0021 43.1151 64.9492 45.6488 64.9492H57.1194C59.6531 64.9492 61.7076 67.0021 61.7076 69.5339C61.7076 72.0656 59.6531 74.1185 57.1194 74.1185H45.6488Z" fill="#ECB22E"/>
</svg>
