<svg width="664" height="676" viewBox="0 0 664 676" fill="none" xmlns="http://www.w3.org/2000/svg">
<g filter="url(#filter0_f_581_9910)">
<g filter="url(#filter1_i_581_9910)">
<ellipse cx="213.782" cy="406.998" rx="53.9665" ry="95.235" transform="rotate(-30.0015 213.782 406.998)" fill="#98B6D4"/>
<ellipse cx="213.782" cy="406.998" rx="53.9665" ry="95.235" transform="rotate(-30.0015 213.782 406.998)" fill="url(#paint0_radial_581_9910)" style="mix-blend-mode:hard-light"/>
<ellipse cx="213.782" cy="406.998" rx="53.9665" ry="95.235" transform="rotate(-30.0015 213.782 406.998)" fill="url(#paint1_linear_581_9910)"/>
</g>
<path d="M243.257 499.949L261.328 489.515C235.51 504.329 193.321 479.489 167.047 433.983C140.747 388.433 140.351 339.427 166.162 324.524L148.089 334.959C148.065 334.972 148.042 334.986 148.018 335C122.207 349.903 122.602 398.909 148.902 444.459C175.202 490.008 217.446 514.852 243.257 499.949Z" fill="url(#paint2_radial_581_9910)"/>
<path d="M243.257 499.949L261.328 489.515C235.51 504.329 193.321 479.489 167.047 433.983C140.747 388.433 140.351 339.427 166.162 324.524L148.089 334.959C148.065 334.972 148.042 334.986 148.018 335C122.207 349.903 122.602 398.909 148.902 444.459C175.202 490.008 217.446 514.852 243.257 499.949Z" fill="url(#paint3_linear_581_9910)" fill-opacity="0.5" style="mix-blend-mode:color"/>
</g>
<g filter="url(#filter2_f_581_9910)">
<g filter="url(#filter3_i_581_9910)">
<ellipse cx="254.047" cy="383.533" rx="80.4777" ry="142.019" transform="rotate(-30.0015 254.047 383.533)" fill="#98B6D4"/>
<ellipse cx="254.047" cy="383.533" rx="80.4777" ry="142.019" transform="rotate(-30.0015 254.047 383.533)" fill="url(#paint4_radial_581_9910)" style="mix-blend-mode:hard-light"/>
<ellipse cx="254.047" cy="383.533" rx="80.4777" ry="142.019" transform="rotate(-30.0015 254.047 383.533)" fill="url(#paint5_linear_581_9910)"/>
</g>
<path d="M298.002 522.146L324.949 506.587C286.448 528.677 223.534 491.634 184.352 423.773C145.133 355.847 144.542 282.766 183.034 260.542L156.081 276.104C156.046 276.124 156.011 276.144 155.975 276.165C117.484 298.389 118.074 371.47 157.294 439.396C196.513 507.322 259.51 544.37 298.002 522.146Z" fill="url(#paint6_radial_581_9910)"/>
<path d="M298.002 522.146L324.949 506.587C286.448 528.677 223.534 491.634 184.352 423.773C145.133 355.847 144.542 282.766 183.034 260.542L156.081 276.104C156.046 276.124 156.011 276.144 155.975 276.165C117.484 298.389 118.074 371.47 157.294 439.396C196.513 507.322 259.51 544.37 298.002 522.146Z" fill="url(#paint7_linear_581_9910)" fill-opacity="0.5" style="mix-blend-mode:color"/>
</g>
<g filter="url(#filter4_f_581_9910)">
<g filter="url(#filter5_i_581_9910)">
<ellipse cx="300.729" cy="356.575" rx="104.149" ry="183.793" transform="rotate(-30.0015 300.729 356.575)" fill="url(#paint8_radial_581_9910)" style="mix-blend-mode:soft-light"/>
</g>
<path d="M357.612 535.959L392.486 515.824C342.66 544.411 261.241 496.473 210.534 408.652C159.779 320.746 159.015 226.169 208.828 197.408L173.948 217.547C173.902 217.573 173.856 217.599 173.811 217.626C123.998 246.387 124.762 340.964 175.517 428.87C226.272 516.775 307.799 564.721 357.612 535.959Z" fill="url(#paint9_radial_581_9910)"/>
<path d="M357.612 535.959L392.486 515.824C342.66 544.411 261.241 496.473 210.534 408.652C159.779 320.746 159.015 226.169 208.828 197.408L173.948 217.547C173.902 217.573 173.856 217.599 173.811 217.626C123.998 246.387 124.762 340.964 175.517 428.87C226.272 516.775 307.799 564.721 357.612 535.959Z" fill="url(#paint10_linear_581_9910)" fill-opacity="0.5" style="mix-blend-mode:color"/>
</g>
<g filter="url(#filter6_f_581_9910)">
<g filter="url(#filter7_i_581_9910)">
<ellipse cx="352.988" cy="326.396" rx="123.334" ry="217.649" transform="rotate(-30.0015 352.988 326.396)" fill="#034C80"/>
<ellipse cx="352.988" cy="326.396" rx="123.334" ry="217.649" transform="rotate(-30.0015 352.988 326.396)" fill="url(#paint11_radial_581_9910)" style="mix-blend-mode:hard-light"/>
<ellipse cx="352.988" cy="326.396" rx="123.334" ry="217.649" transform="rotate(-30.0015 352.988 326.396)" fill="url(#paint12_linear_581_9910)" style="mix-blend-mode:color-dodge"/>
<ellipse cx="352.988" cy="326.396" rx="123.334" ry="217.649" transform="rotate(-30.0015 352.988 326.396)" fill="url(#paint13_radial_581_9910)" style="mix-blend-mode:soft-light"/>
</g>
<path d="M420.35 538.824L461.648 514.98C402.644 548.833 306.226 492.065 246.179 388.066C186.074 283.968 185.169 171.969 244.158 137.909L202.853 161.758C202.799 161.789 202.745 161.82 202.691 161.851C143.702 195.911 144.606 307.91 204.711 412.008C264.816 516.106 361.361 572.884 420.35 538.824Z" fill="url(#paint14_radial_581_9910)"/>
<path d="M420.35 538.824L461.648 514.98C402.644 548.833 306.226 492.065 246.179 388.066C186.074 283.968 185.169 171.969 244.158 137.909L202.853 161.758C202.799 161.789 202.745 161.82 202.691 161.851C143.702 195.911 144.606 307.91 204.711 412.008C264.816 516.106 361.361 572.884 420.35 538.824Z" fill="url(#paint15_linear_581_9910)" fill-opacity="0.5" style="mix-blend-mode:color"/>
</g>
<g filter="url(#filter8_f_581_9910)">
<g filter="url(#filter9_i_581_9910)">
<ellipse cx="399.052" cy="299.796" rx="104.149" ry="183.793" transform="rotate(-30.0015 399.052 299.796)" fill="#034C80"/>
<ellipse cx="399.052" cy="299.796" rx="104.149" ry="183.793" transform="rotate(-30.0015 399.052 299.796)" fill="url(#paint16_radial_581_9910)" style="mix-blend-mode:hard-light"/>
<ellipse cx="399.052" cy="299.796" rx="104.149" ry="183.793" transform="rotate(-30.0015 399.052 299.796)" fill="url(#paint17_linear_581_9910)" style="mix-blend-mode:color-dodge"/>
<ellipse cx="399.052" cy="299.796" rx="104.149" ry="183.793" transform="rotate(-30.0015 399.052 299.796)" fill="url(#paint18_radial_581_9910)" style="mix-blend-mode:soft-light"/>
</g>
<path d="M455.936 479.181L490.81 459.045C440.984 487.633 359.564 439.694 308.858 351.873C258.102 263.967 257.338 169.39 307.151 140.629L272.271 160.768C272.226 160.794 272.18 160.82 272.134 160.847C222.321 189.608 223.085 284.185 273.841 372.091C324.596 459.996 406.123 507.942 455.936 479.181Z" fill="url(#paint19_radial_581_9910)"/>
<path d="M455.936 479.181L490.81 459.045C440.984 487.633 359.564 439.694 308.858 351.873C258.102 263.967 257.338 169.39 307.151 140.629L272.271 160.768C272.226 160.794 272.18 160.82 272.134 160.847C222.321 189.608 223.085 284.185 273.841 372.091C324.596 459.996 406.123 507.942 455.936 479.181Z" fill="url(#paint20_linear_581_9910)" fill-opacity="0.5" style="mix-blend-mode:color"/>
</g>
<g filter="url(#filter10_f_581_9910)">
<g filter="url(#filter11_i_581_9910)">
<ellipse cx="437.501" cy="277.595" rx="80.4777" ry="142.019" transform="rotate(-30.0015 437.501 277.595)" fill="#034C80"/>
<ellipse cx="437.501" cy="277.595" rx="80.4777" ry="142.019" transform="rotate(-30.0015 437.501 277.595)" fill="url(#paint21_radial_581_9910)" style="mix-blend-mode:hard-light"/>
<ellipse cx="437.501" cy="277.595" rx="80.4777" ry="142.019" transform="rotate(-30.0015 437.501 277.595)" fill="url(#paint22_linear_581_9910)" style="mix-blend-mode:color-dodge"/>
<ellipse cx="437.501" cy="277.595" rx="80.4777" ry="142.019" transform="rotate(-30.0015 437.501 277.595)" fill="url(#paint23_radial_581_9910)" style="mix-blend-mode:soft-light"/>
</g>
<path d="M481.455 416.207L508.403 400.648C469.902 422.738 406.988 385.696 367.806 317.835C328.586 249.909 327.996 176.828 366.487 154.603L339.535 170.165C339.5 170.185 339.465 170.206 339.429 170.226C300.938 192.45 301.528 265.532 340.748 333.457C379.967 401.383 442.964 438.431 481.455 416.207Z" fill="url(#paint24_radial_581_9910)"/>
<path d="M481.455 416.207L508.403 400.648C469.902 422.738 406.988 385.696 367.806 317.835C328.586 249.909 327.996 176.828 366.487 154.603L339.535 170.165C339.5 170.185 339.465 170.206 339.429 170.226C300.938 192.45 301.528 265.532 340.748 333.457C379.967 401.383 442.964 438.431 481.455 416.207Z" fill="url(#paint25_linear_581_9910)" fill-opacity="0.5" style="mix-blend-mode:color"/>
</g>
<g filter="url(#filter12_f_581_9910)">
<g filter="url(#filter13_i_581_9910)">
<ellipse cx="468.766" cy="259.541" rx="53.9665" ry="95.235" transform="rotate(-30.0015 468.766 259.541)" fill="#034C80"/>
<ellipse cx="468.766" cy="259.541" rx="53.9665" ry="95.235" transform="rotate(-30.0015 468.766 259.541)" fill="url(#paint26_radial_581_9910)" style="mix-blend-mode:hard-light"/>
<ellipse cx="468.766" cy="259.541" rx="53.9665" ry="95.235" transform="rotate(-30.0015 468.766 259.541)" fill="url(#paint27_linear_581_9910)" style="mix-blend-mode:color-dodge"/>
</g>
<path d="M498.241 352.491L516.311 342.058C490.493 356.871 448.305 332.031 422.03 286.525C395.73 240.976 395.335 191.969 421.146 177.066L403.072 187.501C403.049 187.515 403.025 187.528 403.001 187.542C377.19 202.445 377.586 251.452 403.886 297.001C430.185 342.551 472.43 367.395 498.241 352.491Z" fill="url(#paint28_radial_581_9910)"/>
<path d="M498.241 352.491L516.311 342.058C490.493 356.871 448.305 332.031 422.03 286.525C395.73 240.976 395.335 191.969 421.146 177.066L403.072 187.501C403.049 187.515 403.025 187.528 403.001 187.542C377.19 202.445 377.586 251.452 403.886 297.001C430.185 342.551 472.43 367.395 498.241 352.491Z" fill="url(#paint29_linear_581_9910)" fill-opacity="0.5" style="mix-blend-mode:color"/>
</g>
<g filter="url(#filter14_f_581_9910)">
<g filter="url(#filter15_i_581_9910)">
<ellipse cx="494.049" cy="243.525" rx="3.80727" ry="6.71871" transform="rotate(-30.0015 494.049 243.525)" fill="#034C80"/>
<ellipse cx="494.049" cy="243.525" rx="3.80727" ry="6.71871" transform="rotate(-30.0015 494.049 243.525)" fill="url(#paint30_radial_581_9910)" style="mix-blend-mode:hard-light"/>
<ellipse cx="494.049" cy="243.525" rx="3.80727" ry="6.71871" transform="rotate(-30.0015 494.049 243.525)" fill="url(#paint31_linear_581_9910)" fill-opacity="0.25" style="mix-blend-mode:screen"/>
</g>
<path d="M496.128 250.082L497.403 249.346C495.582 250.391 492.605 248.639 490.752 245.429C488.896 242.215 488.868 238.758 490.689 237.706L489.414 238.443C489.413 238.444 489.411 238.445 489.409 238.445C487.588 239.497 487.616 242.954 489.472 246.168C491.327 249.381 494.307 251.134 496.128 250.082Z" fill="url(#paint32_radial_581_9910)"/>
<path d="M496.128 250.082L497.403 249.346C495.582 250.391 492.605 248.639 490.752 245.429C488.896 242.215 488.868 238.758 490.689 237.706L489.414 238.443C489.413 238.444 489.411 238.445 489.409 238.445C487.588 239.497 487.616 242.954 489.472 246.168C491.327 249.381 494.307 251.134 496.128 250.082Z" fill="url(#paint33_linear_581_9910)" fill-opacity="0.5" style="mix-blend-mode:color"/>
</g>
<defs>
<filter id="filter0_f_581_9910" x="128.19" y="319.473" width="153.04" height="185.528" filterUnits="userSpaceOnUse" color-interpolation-filters="sRGB">
<feFlood flood-opacity="0" result="BackgroundImageFix"/>
<feBlend mode="normal" in="SourceGraphic" in2="BackgroundImageFix" result="shape"/>
<feGaussianBlur stdDeviation="0.362748" result="effect1_foregroundBlur_581_9910"/>
</filter>
<filter id="filter1_i_581_9910" x="147.06" y="319.835" width="134.17" height="173.963" filterUnits="userSpaceOnUse" color-interpolation-filters="sRGB">
<feFlood flood-opacity="0" result="BackgroundImageFix"/>
<feBlend mode="normal" in="SourceGraphic" in2="BackgroundImageFix" result="shape"/>
<feColorMatrix in="SourceAlpha" type="matrix" values="0 0 0 0 0 0 0 0 0 0 0 0 0 0 0 0 0 0 127 0" result="hardAlpha"/>
<feOffset dx="1.45099" dy="-0.362748"/>
<feGaussianBlur stdDeviation="0.362748"/>
<feComposite in2="hardAlpha" operator="arithmetic" k2="-1" k3="1"/>
<feColorMatrix type="matrix" values="0 0 0 0 0 0 0 0 0 0 0 0 0 0 0 0 0 0 0.2 0"/>
<feBlend mode="normal" in2="shape" result="effect1_innerShadow_581_9910"/>
</filter>
<filter id="filter2_f_581_9910" x="126.763" y="253.366" width="227.509" height="275.955" filterUnits="userSpaceOnUse" color-interpolation-filters="sRGB">
<feFlood flood-opacity="0" result="BackgroundImageFix"/>
<feBlend mode="normal" in="SourceGraphic" in2="BackgroundImageFix" result="shape"/>
<feGaussianBlur stdDeviation="0.362748" result="effect1_foregroundBlur_581_9910"/>
</filter>
<filter id="filter3_i_581_9910" x="154.547" y="253.729" width="199.725" height="259.245" filterUnits="userSpaceOnUse" color-interpolation-filters="sRGB">
<feFlood flood-opacity="0" result="BackgroundImageFix"/>
<feBlend mode="normal" in="SourceGraphic" in2="BackgroundImageFix" result="shape"/>
<feColorMatrix in="SourceAlpha" type="matrix" values="0 0 0 0 0 0 0 0 0 0 0 0 0 0 0 0 0 0 127 0" result="hardAlpha"/>
<feOffset dx="1.45099" dy="-0.362748"/>
<feGaussianBlur stdDeviation="0.362748"/>
<feComposite in2="hardAlpha" operator="arithmetic" k2="-1" k3="1"/>
<feColorMatrix type="matrix" values="0 0 0 0 0 0 0 0 0 0 0 0 0 0 0 0 0 0 0.2 0"/>
<feBlend mode="normal" in2="shape" result="effect1_innerShadow_581_9910"/>
</filter>
<filter id="filter4_f_581_9910" x="136.22" y="188.335" width="294.001" height="356.699" filterUnits="userSpaceOnUse" color-interpolation-filters="sRGB">
<feFlood flood-opacity="0" result="BackgroundImageFix"/>
<feBlend mode="normal" in="SourceGraphic" in2="BackgroundImageFix" result="shape"/>
<feGaussianBlur stdDeviation="0.362748" result="effect1_foregroundBlur_581_9910"/>
</filter>
<filter id="filter5_i_581_9910" x="171.962" y="188.697" width="258.259" height="335.393" filterUnits="userSpaceOnUse" color-interpolation-filters="sRGB">
<feFlood flood-opacity="0" result="BackgroundImageFix"/>
<feBlend mode="normal" in="SourceGraphic" in2="BackgroundImageFix" result="shape"/>
<feColorMatrix in="SourceAlpha" type="matrix" values="0 0 0 0 0 0 0 0 0 0 0 0 0 0 0 0 0 0 127 0" result="hardAlpha"/>
<feOffset dx="1.45099" dy="-0.362748"/>
<feGaussianBlur stdDeviation="0.362748"/>
<feComposite in2="hardAlpha" operator="arithmetic" k2="-1" k3="1"/>
<feColorMatrix type="matrix" values="0 0 0 0 0 0 0 0 0 0 0 0 0 0 0 0 0 0 0.2 0"/>
<feBlend mode="normal" in2="shape" result="effect1_innerShadow_581_9910"/>
</filter>
<filter id="filter6_f_581_9910" x="158.309" y="127.298" width="347.891" height="422.138" filterUnits="userSpaceOnUse" color-interpolation-filters="sRGB">
<feFlood flood-opacity="0" result="BackgroundImageFix"/>
<feBlend mode="normal" in="SourceGraphic" in2="BackgroundImageFix" result="shape"/>
<feGaussianBlur stdDeviation="0.362748" result="effect1_foregroundBlur_581_9910"/>
</filter>
<filter id="filter7_i_581_9910" x="200.501" y="127.661" width="305.698" height="397.108" filterUnits="userSpaceOnUse" color-interpolation-filters="sRGB">
<feFlood flood-opacity="0" result="BackgroundImageFix"/>
<feBlend mode="normal" in="SourceGraphic" in2="BackgroundImageFix" result="shape"/>
<feColorMatrix in="SourceAlpha" type="matrix" values="0 0 0 0 0 0 0 0 0 0 0 0 0 0 0 0 0 0 127 0" result="hardAlpha"/>
<feOffset dx="1.45099" dy="-0.362748"/>
<feGaussianBlur stdDeviation="0.362748"/>
<feComposite in2="hardAlpha" operator="arithmetic" k2="-1" k3="1"/>
<feColorMatrix type="matrix" values="0 0 0 0 0 0 0 0 0 0 0 0 0 0 0 0 0 0 0.2 0"/>
<feBlend mode="normal" in2="shape" result="effect1_innerShadow_581_9910"/>
</filter>
<filter id="filter8_f_581_9910" x="234.543" y="131.556" width="294.001" height="356.699" filterUnits="userSpaceOnUse" color-interpolation-filters="sRGB">
<feFlood flood-opacity="0" result="BackgroundImageFix"/>
<feBlend mode="normal" in="SourceGraphic" in2="BackgroundImageFix" result="shape"/>
<feGaussianBlur stdDeviation="0.362748" result="effect1_foregroundBlur_581_9910"/>
</filter>
<filter id="filter9_i_581_9910" x="270.286" y="131.919" width="258.259" height="335.393" filterUnits="userSpaceOnUse" color-interpolation-filters="sRGB">
<feFlood flood-opacity="0" result="BackgroundImageFix"/>
<feBlend mode="normal" in="SourceGraphic" in2="BackgroundImageFix" result="shape"/>
<feColorMatrix in="SourceAlpha" type="matrix" values="0 0 0 0 0 0 0 0 0 0 0 0 0 0 0 0 0 0 127 0" result="hardAlpha"/>
<feOffset dx="1.45099" dy="-0.362748"/>
<feGaussianBlur stdDeviation="0.362748"/>
<feComposite in2="hardAlpha" operator="arithmetic" k2="-1" k3="1"/>
<feColorMatrix type="matrix" values="0 0 0 0 0 0 0 0 0 0 0 0 0 0 0 0 0 0 0.2 0"/>
<feBlend mode="normal" in2="shape" result="effect1_innerShadow_581_9910"/>
</filter>
<filter id="filter10_f_581_9910" x="310.217" y="147.428" width="227.509" height="275.955" filterUnits="userSpaceOnUse" color-interpolation-filters="sRGB">
<feFlood flood-opacity="0" result="BackgroundImageFix"/>
<feBlend mode="normal" in="SourceGraphic" in2="BackgroundImageFix" result="shape"/>
<feGaussianBlur stdDeviation="0.362748" result="effect1_foregroundBlur_581_9910"/>
</filter>
<filter id="filter11_i_581_9910" x="338.001" y="147.791" width="199.725" height="259.245" filterUnits="userSpaceOnUse" color-interpolation-filters="sRGB">
<feFlood flood-opacity="0" result="BackgroundImageFix"/>
<feBlend mode="normal" in="SourceGraphic" in2="BackgroundImageFix" result="shape"/>
<feColorMatrix in="SourceAlpha" type="matrix" values="0 0 0 0 0 0 0 0 0 0 0 0 0 0 0 0 0 0 127 0" result="hardAlpha"/>
<feOffset dx="1.45099" dy="-0.362748"/>
<feGaussianBlur stdDeviation="0.362748"/>
<feComposite in2="hardAlpha" operator="arithmetic" k2="-1" k3="1"/>
<feColorMatrix type="matrix" values="0 0 0 0 0 0 0 0 0 0 0 0 0 0 0 0 0 0 0.2 0"/>
<feBlend mode="normal" in2="shape" result="effect1_innerShadow_581_9910"/>
</filter>
<filter id="filter12_f_581_9910" x="383.173" y="172.015" width="153.04" height="185.528" filterUnits="userSpaceOnUse" color-interpolation-filters="sRGB">
<feFlood flood-opacity="0" result="BackgroundImageFix"/>
<feBlend mode="normal" in="SourceGraphic" in2="BackgroundImageFix" result="shape"/>
<feGaussianBlur stdDeviation="0.362748" result="effect1_foregroundBlur_581_9910"/>
</filter>
<filter id="filter13_i_581_9910" x="402.044" y="172.378" width="134.17" height="173.963" filterUnits="userSpaceOnUse" color-interpolation-filters="sRGB">
<feFlood flood-opacity="0" result="BackgroundImageFix"/>
<feBlend mode="normal" in="SourceGraphic" in2="BackgroundImageFix" result="shape"/>
<feColorMatrix in="SourceAlpha" type="matrix" values="0 0 0 0 0 0 0 0 0 0 0 0 0 0 0 0 0 0 127 0" result="hardAlpha"/>
<feOffset dx="1.45099" dy="-0.362748"/>
<feGaussianBlur stdDeviation="0.362748"/>
<feComposite in2="hardAlpha" operator="arithmetic" k2="-1" k3="1"/>
<feColorMatrix type="matrix" values="0 0 0 0 0 0 0 0 0 0 0 0 0 0 0 0 0 0 0.2 0"/>
<feBlend mode="normal" in2="shape" result="effect1_innerShadow_581_9910"/>
</filter>
<filter id="filter14_f_581_9910" x="487.336" y="236.675" width="12.1454" height="14.4378" filterUnits="userSpaceOnUse" color-interpolation-filters="sRGB">
<feFlood flood-opacity="0" result="BackgroundImageFix"/>
<feBlend mode="normal" in="SourceGraphic" in2="BackgroundImageFix" result="shape"/>
<feGaussianBlur stdDeviation="0.362748" result="effect1_foregroundBlur_581_9910"/>
</filter>
<filter id="filter15_i_581_9910" x="489.342" y="237.038" width="10.1399" height="12.6103" filterUnits="userSpaceOnUse" color-interpolation-filters="sRGB">
<feFlood flood-opacity="0" result="BackgroundImageFix"/>
<feBlend mode="normal" in="SourceGraphic" in2="BackgroundImageFix" result="shape"/>
<feColorMatrix in="SourceAlpha" type="matrix" values="0 0 0 0 0 0 0 0 0 0 0 0 0 0 0 0 0 0 127 0" result="hardAlpha"/>
<feOffset dx="1.45099" dy="-0.362748"/>
<feGaussianBlur stdDeviation="0.362748"/>
<feComposite in2="hardAlpha" operator="arithmetic" k2="-1" k3="1"/>
<feColorMatrix type="matrix" values="0 0 0 0 0 0 0 0 0 0 0 0 0 0 0 0 0 0 0.2 0"/>
<feBlend mode="normal" in2="shape" result="effect1_innerShadow_581_9910"/>
</filter>
<radialGradient id="paint0_radial_581_9910" cx="0" cy="0" r="1" gradientUnits="userSpaceOnUse" gradientTransform="translate(231.724 364.291) rotate(156.344) scale(137.591 213.098)">
<stop stop-color="#91A8BA"/>
<stop offset="0.674805" stop-color="#414F5E"/>
<stop offset="1" stop-color="#2F3B4A"/>
</radialGradient>
<linearGradient id="paint1_linear_581_9910" x1="213.782" y1="311.763" x2="216.616" y2="360.614" gradientUnits="userSpaceOnUse">
<stop stop-color="#C1C8CE"/>
<stop offset="1" stop-color="#C1C8CE" stop-opacity="0"/>
</linearGradient>
<radialGradient id="paint2_radial_581_9910" cx="0" cy="0" r="1" gradientUnits="userSpaceOnUse" gradientTransform="translate(144.544 319.777) rotate(73.975) scale(166.266 115.877)">
<stop stop-color="white"/>
<stop offset="0.385317" stop-color="#ECCA97"/>
<stop offset="0.385417" stop-color="#DEA248"/>
<stop offset="1" stop-color="#181005"/>
</radialGradient>
<linearGradient id="paint3_linear_581_9910" x1="213.782" y1="406.998" x2="151.582" y2="442.911" gradientUnits="userSpaceOnUse">
<stop offset="0.160241" stop-color="#9C5615" stop-opacity="0"/>
<stop offset="1" stop-color="#C75D0F"/>
</linearGradient>
<radialGradient id="paint4_radial_581_9910" cx="0" cy="0" r="1" gradientUnits="userSpaceOnUse" gradientTransform="translate(280.802 319.846) rotate(156.344) scale(205.183 317.783)">
<stop stop-color="#91A8BA"/>
<stop offset="0.674805" stop-color="#414F5E"/>
<stop offset="1" stop-color="#2F3B4A"/>
</radialGradient>
<linearGradient id="paint5_linear_581_9910" x1="254.047" y1="241.514" x2="258.273" y2="314.362" gradientUnits="userSpaceOnUse">
<stop stop-color="#C1C8CE"/>
<stop offset="1" stop-color="#C1C8CE" stop-opacity="0"/>
</linearGradient>
<radialGradient id="paint6_radial_581_9910" cx="0" cy="0" r="1" gradientUnits="userSpaceOnUse" gradientTransform="translate(150.795 253.464) rotate(73.975) scale(247.945 172.801)">
<stop stop-color="white"/>
<stop offset="0.385317" stop-color="#ECCA97"/>
<stop offset="0.385417" stop-color="#DEA248"/>
<stop offset="1" stop-color="#181005"/>
</radialGradient>
<linearGradient id="paint7_linear_581_9910" x1="254.047" y1="383.532" x2="161.291" y2="437.088" gradientUnits="userSpaceOnUse">
<stop offset="0.160241" stop-color="#9C5615" stop-opacity="0"/>
<stop offset="1" stop-color="#C75D0F"/>
</linearGradient>
<radialGradient id="paint8_radial_581_9910" cx="0" cy="0" r="1" gradientUnits="userSpaceOnUse" gradientTransform="translate(293.12 384.962) rotate(83.096) scale(196.932 111.595)">
<stop offset="0.0792988"/>
<stop offset="0.771177" stop-opacity="0.915314"/>
<stop offset="0.89233" stop-opacity="0.21756"/>
<stop offset="1" stop-opacity="0"/>
</radialGradient>
<radialGradient id="paint9_radial_581_9910" cx="0" cy="0" r="1" gradientUnits="userSpaceOnUse" gradientTransform="translate(167.106 188.248) rotate(73.975) scale(320.876 223.629)">
<stop stop-color="white"/>
<stop offset="0.385317" stop-color="#ECCA97"/>
<stop offset="0.385417" stop-color="#DEA248"/>
<stop offset="1" stop-color="#181005"/>
</radialGradient>
<linearGradient id="paint10_linear_581_9910" x1="300.728" y1="356.575" x2="180.69" y2="425.883" gradientUnits="userSpaceOnUse">
<stop offset="0.160241" stop-color="#9C5615" stop-opacity="0"/>
<stop offset="1" stop-color="#C75D0F"/>
</linearGradient>
<radialGradient id="paint11_radial_581_9910" cx="0" cy="0" r="1" gradientUnits="userSpaceOnUse" gradientTransform="translate(393.991 228.794) rotate(143.984) scale(291.848 452.008)">
<stop stop-color="#91A8BA"/>
<stop offset="0.674805" stop-color="#414F5E"/>
<stop offset="1" stop-color="#2F3B4A"/>
</radialGradient>
<linearGradient id="paint12_linear_581_9910" x1="352.917" y1="102.638" x2="299.335" y2="311.426" gradientUnits="userSpaceOnUse">
<stop stop-color="#FFAB20"/>
<stop offset="1" stop-color="#EAD3A6" stop-opacity="0"/>
</linearGradient>
<radialGradient id="paint13_radial_581_9910" cx="0" cy="0" r="1" gradientUnits="userSpaceOnUse" gradientTransform="translate(343.977 360.012) rotate(83.5479) scale(192.923 109.323)">
<stop offset="0.0792988"/>
<stop offset="0.771177" stop-opacity="0.915314"/>
<stop offset="0.89233" stop-opacity="0.21756"/>
<stop offset="1" stop-opacity="0"/>
</radialGradient>
<radialGradient id="paint14_radial_581_9910" cx="0" cy="0" r="1" gradientUnits="userSpaceOnUse" gradientTransform="translate(194.751 127.062) rotate(73.975) scale(379.983 264.823)">
<stop stop-color="white"/>
<stop offset="0.385317" stop-color="#ECCA97"/>
<stop offset="0.385417" stop-color="#DEA248"/>
<stop offset="1" stop-color="#181005"/>
</radialGradient>
<linearGradient id="paint15_linear_581_9910" x1="352.987" y1="326.396" x2="210.837" y2="408.471" gradientUnits="userSpaceOnUse">
<stop offset="0.160241" stop-color="#9C5615" stop-opacity="0"/>
<stop offset="1" stop-color="#C75D0F"/>
</linearGradient>
<radialGradient id="paint16_radial_581_9910" cx="0" cy="0" r="1" gradientUnits="userSpaceOnUse" gradientTransform="translate(433.677 217.377) rotate(143.984) scale(246.451 381.697)">
<stop stop-color="#91A8BA"/>
<stop offset="0.674805" stop-color="#414F5E"/>
<stop offset="1" stop-color="#2F3B4A"/>
</radialGradient>
<linearGradient id="paint17_linear_581_9910" x1="409.277" y1="91.4253" x2="353.745" y2="287.155" gradientUnits="userSpaceOnUse">
<stop stop-color="#FFAB20"/>
<stop offset="1" stop-color="#EAD3A6" stop-opacity="0"/>
</linearGradient>
<radialGradient id="paint18_radial_581_9910" cx="0" cy="0" r="1" gradientUnits="userSpaceOnUse" gradientTransform="translate(391.443 328.183) rotate(83.5479) scale(162.914 92.3178)">
<stop offset="0.0792988"/>
<stop offset="0.771177" stop-opacity="0.915314"/>
<stop offset="0.89233" stop-opacity="0.21756"/>
<stop offset="1" stop-opacity="0"/>
</radialGradient>
<radialGradient id="paint19_radial_581_9910" cx="0" cy="0" r="1" gradientUnits="userSpaceOnUse" gradientTransform="translate(273.048 81.472) rotate(77.2708) scale(367.434 256.078)">
<stop stop-color="white"/>
<stop offset="0.385317" stop-color="#ECCA97"/>
<stop offset="0.385417" stop-color="#DEA248"/>
<stop offset="1" stop-color="#181005"/>
</radialGradient>
<linearGradient id="paint20_linear_581_9910" x1="399.052" y1="299.796" x2="279.014" y2="369.104" gradientUnits="userSpaceOnUse">
<stop offset="0.160241" stop-color="#9C5615" stop-opacity="0"/>
<stop offset="1" stop-color="#C75D0F"/>
</linearGradient>
<radialGradient id="paint21_radial_581_9910" cx="0" cy="0" r="1" gradientUnits="userSpaceOnUse" gradientTransform="translate(464.256 213.908) rotate(143.984) scale(190.436 294.943)">
<stop stop-color="#91A8BA"/>
<stop offset="0.674805" stop-color="#414F5E"/>
<stop offset="1" stop-color="#2F3B4A"/>
</radialGradient>
<linearGradient id="paint22_linear_581_9910" x1="445.402" y1="116.583" x2="402.492" y2="267.826" gradientUnits="userSpaceOnUse">
<stop stop-color="#FFAB20"/>
<stop offset="1" stop-color="#EAD3A6" stop-opacity="0"/>
</linearGradient>
<radialGradient id="paint23_radial_581_9910" cx="0" cy="0" r="1" gradientUnits="userSpaceOnUse" gradientTransform="translate(431.621 299.53) rotate(83.5479) scale(125.886 71.3353)">
<stop offset="0.0792988"/>
<stop offset="0.552348" stop-opacity="0.915314"/>
<stop offset="0.812141" stop-opacity="0.21756"/>
<stop offset="1" stop-opacity="0"/>
</radialGradient>
<radialGradient id="paint24_radial_581_9910" cx="0" cy="0" r="1" gradientUnits="userSpaceOnUse" gradientTransform="translate(345.946 119.152) rotate(77.9868) scale(272.655 190.022)">
<stop stop-color="white"/>
<stop offset="0.385317" stop-color="#ECCA97"/>
<stop offset="0.385417" stop-color="#DEA248"/>
<stop offset="1" stop-color="#181005"/>
</radialGradient>
<linearGradient id="paint25_linear_581_9910" x1="437.5" y1="277.594" x2="344.745" y2="331.15" gradientUnits="userSpaceOnUse">
<stop offset="0.160241" stop-color="#9C5615" stop-opacity="0"/>
<stop offset="1" stop-color="#C75D0F"/>
</linearGradient>
<radialGradient id="paint26_radial_581_9910" cx="0" cy="0" r="1" gradientUnits="userSpaceOnUse" gradientTransform="translate(486.707 216.834) rotate(143.984) scale(127.702 197.782)">
<stop stop-color="#91A8BA"/>
<stop offset="0.674805" stop-color="#414F5E"/>
<stop offset="1" stop-color="#2F3B4A"/>
</radialGradient>
<linearGradient id="paint27_linear_581_9910" x1="474.064" y1="151.57" x2="445.289" y2="252.991" gradientUnits="userSpaceOnUse">
<stop stop-color="#FFAB20"/>
<stop offset="1" stop-color="#EAD3A6" stop-opacity="0"/>
</linearGradient>
<radialGradient id="paint28_radial_581_9910" cx="0" cy="0" r="1" gradientUnits="userSpaceOnUse" gradientTransform="translate(405.581 149.833) rotate(77.6701) scale(186.596 130.045)">
<stop stop-color="white"/>
<stop offset="0.385317" stop-color="#ECCA97"/>
<stop offset="0.385417" stop-color="#DEA248"/>
<stop offset="1" stop-color="#181005"/>
</radialGradient>
<linearGradient id="paint29_linear_581_9910" x1="468.766" y1="259.541" x2="406.566" y2="295.454" gradientUnits="userSpaceOnUse">
<stop offset="0.160241" stop-color="#9C5615" stop-opacity="0"/>
<stop offset="1" stop-color="#C75D0F"/>
</linearGradient>
<radialGradient id="paint30_radial_581_9910" cx="0" cy="0" r="1" gradientUnits="userSpaceOnUse" gradientTransform="translate(495.314 240.512) rotate(143.984) scale(9.00921 13.9533)">
<stop stop-color="#91A8BA"/>
<stop offset="0.674805" stop-color="#414F5E"/>
<stop offset="1" stop-color="#2F3B4A"/>
</radialGradient>
<linearGradient id="paint31_linear_581_9910" x1="494.095" y1="236.67" x2="491.986" y2="242.818" gradientUnits="userSpaceOnUse">
<stop stop-color="#E1C699"/>
<stop offset="1" stop-color="#EAD3A6" stop-opacity="0"/>
</linearGradient>
<radialGradient id="paint32_radial_581_9910" cx="0" cy="0" r="1" gradientUnits="userSpaceOnUse" gradientTransform="translate(489.164 237.372) rotate(73.975) scale(11.7299 8.17496)">
<stop stop-color="white"/>
<stop offset="0.385317" stop-color="#ECCA97"/>
<stop offset="0.385417" stop-color="#DEA248"/>
<stop offset="1" stop-color="#181005"/>
</radialGradient>
<linearGradient id="paint33_linear_581_9910" x1="494.049" y1="243.525" x2="489.661" y2="246.059" gradientUnits="userSpaceOnUse">
<stop offset="0.160241" stop-color="#9C5615" stop-opacity="0"/>
<stop offset="1" stop-color="#C75D0F"/>
</linearGradient>
</defs>
</svg>
