<svg width="120" height="47" viewBox="0 0 120 47" fill="none" xmlns="http://www.w3.org/2000/svg">
<path d="M43.9164 22.7649C43.9432 24.114 43.8616 25.3246 43.7671 26.2716C43.6925 27.0167 42.8858 27.4383 42.2177 27.1006L34.5659 23.234C33.6478 22.77 33.0686 21.8285 33.0686 20.7993C33.0686 20.0052 33.4147 19.2505 34.0163 18.7324L40.01 13.5692C40.4808 13.1637 41.1995 13.2346 41.5322 13.7596C42.2687 14.9216 42.7913 16.1673 43.1556 17.4234L36.6996 19.6312C36.3408 19.7538 36.0999 20.091 36.0999 20.4703C36.0999 20.8928 36.3979 21.2566 36.8119 21.3397L43.9164 22.7649Z" fill="white"/>
<path d="M35.8104 41.8008C37.6695 40.3049 39.0489 38.6732 39.8212 37.3481C40.0174 37.0116 39.9811 36.5977 39.761 36.2764L32.696 25.9616C32.3182 25.4101 31.6933 25.0806 31.0252 25.0806C30.1697 25.0806 29.4064 25.6186 29.1183 26.4245L22.5752 44.7332C22.3405 45.3897 22.7798 46.0958 23.4764 46.1217C25.5125 46.1975 27.4295 45.9007 29.1909 45.3588L30.9346 30.9161C30.9815 30.528 31.3059 30.2334 31.6966 30.2239C32.0496 30.2156 32.3649 30.4437 32.4675 30.7818L35.8104 41.8008Z" fill="white"/>
<path d="M24.9764 0.154901L28.3923 12.5C28.5887 13.2095 28.9207 13.6361 29.2762 13.6361C29.7239 13.6361 30.1234 12.9628 30.274 11.9539L31.7096 2.35225C33.1872 3.33296 34.241 4.453 34.9581 5.30222C35.2025 5.59142 35.2681 5.98988 35.1406 6.34637L31.6142 16.2055C31.3159 17.0395 30.5258 17.5961 29.6403 17.5961C28.9373 17.5961 28.281 17.2434 27.8926 16.6569L18.462 2.41153C18.065 1.81182 18.3561 0.996155 19.0519 0.814882C21.2854 0.233049 23.2511 0.0556939 24.9764 0.154901Z" fill="white"/>
<path d="M32.1003 21.4745C32.1003 22.6879 31.1517 23.6716 29.9816 23.6716C28.8116 23.6716 27.863 22.6879 27.863 21.4745C27.863 20.261 28.8116 19.2773 29.9816 19.2773C31.1517 19.2773 32.1003 20.261 32.1003 21.4745Z" fill="white"/>
<path d="M1.528 30.2057C2.92987 34.2432 5.19675 37.386 7.40316 38.2617C7.71661 38.3863 8.06484 38.2982 8.3261 38.0849L25.7158 23.8881C26.389 23.3385 26.7794 22.5153 26.7794 21.6461C26.7794 20.5585 26.17 19.5627 25.2015 19.0684L6.37824 9.45918C5.99266 9.26234 5.52083 9.31425 5.20093 9.60598C2.94185 11.666 1.54599 14.2041 0.806396 16.9132L19.8755 21.3037C20.3731 21.4183 20.7257 21.8614 20.7257 22.3722C20.7257 22.8317 20.4393 23.2424 20.0082 23.4012L1.528 30.2057Z" fill="white"/>
<path d="M61.9559 18.3944H63.9718C63.9619 20.5103 62.7902 21.305 60.4464 21.305H58.9769C56.534 21.305 55.4514 20.4408 55.4514 17.6791C55.4514 14.9175 56.534 14.0532 58.9769 14.0532H60.4464C62.7902 14.0532 63.9619 14.8479 63.9619 16.944H61.946C61.9659 16.2685 61.6085 15.9009 60.4464 15.9009H58.9769C57.7058 15.9009 57.4673 16.338 57.4673 17.6791C57.4673 19.0202 57.7058 19.4573 58.9769 19.4573H60.4464C61.6184 19.4573 61.9559 19.0599 61.9559 18.3944ZM73.7946 21.156H71.61L71.2623 20.2222H67.5682L67.2009 21.156H65.0161L67.896 14.2022H71.0142L73.7946 21.156ZM69.2961 15.8215L68.1938 18.6328H70.6665L69.614 15.8215H69.2961ZM81.6869 18.1758C82.5209 18.3447 82.8984 18.7917 82.8984 19.6759V21.156H80.7831V19.7752C80.7831 19.2388 80.5943 19.0798 80.1277 19.0798H77.2678V21.156H75.1823V14.2022H80.4356C82.0741 14.2022 82.799 14.7784 82.799 16.497C82.799 17.4904 82.4513 17.9672 81.6869 18.1758ZM79.929 16.0003H77.2678V17.391H79.929C80.4952 17.391 80.6837 17.2321 80.6837 16.6957C80.6837 16.1592 80.4952 16.0003 79.929 16.0003ZM91.3913 14.2022V16.05H86.7241V16.8844H90.4977V18.4739H86.7241V19.3083H91.4906V21.156H84.6387V14.2022H91.3913ZM100.033 14.2022V16.05H95.3659V16.8844H99.1394V18.4739H95.3659V19.3083H100.132V21.156H93.2804V14.2022H100.033ZM108.427 18.1758C109.261 18.3447 109.638 18.7917 109.638 19.6759V21.156H107.523V19.7752C107.523 19.2388 107.334 19.0798 106.868 19.0798H104.008V21.156H101.922V14.2022H107.175C108.814 14.2022 109.539 14.7784 109.539 16.497C109.539 17.4904 109.191 17.9672 108.427 18.1758ZM106.669 16.0003H104.008V17.391H106.669C107.235 17.391 107.424 17.2321 107.424 16.6957C107.424 16.1592 107.235 16.0003 106.669 16.0003ZM114.457 16.8347H116.026C118.469 16.8347 119.641 17.4805 119.641 18.9904C119.641 20.3613 118.658 21.305 116.115 21.305H114.844C112.401 21.305 111.23 20.5103 111.23 18.8116H113.246C113.246 19.209 113.583 19.5765 114.546 19.5765H116.622C117.317 19.5765 117.565 19.3679 117.565 19.0302C117.565 18.7421 117.297 18.5533 116.622 18.5533H114.854C112.312 18.5533 111.329 17.9275 111.329 16.338C111.329 14.5996 112.799 14.0532 114.854 14.0532H115.927C118.37 14.0532 119.541 14.8479 119.541 16.5467H117.526C117.526 16.1692 117.188 15.7817 116.324 15.7817H114.457C113.643 15.7817 113.355 15.9904 113.355 16.3182C113.355 16.6659 113.643 16.8347 114.457 16.8347Z" fill="white"/>
<path d="M59.2743 31.4564L61.0617 26.2412H63.2465L60.7639 33.1951H57.7848L55.3022 26.2412H57.4868L59.2743 31.4564ZM71.5861 26.2412V28.0889H66.9189V28.9235H70.6924V30.5128H66.9189V31.3473H71.6854V33.1951H64.8334V26.2412H71.5861ZM79.9797 30.2147C80.8137 30.3836 81.1912 30.8306 81.1912 31.7148V33.1951H79.0759V31.8142C79.0759 31.2778 78.8874 31.1188 78.4205 31.1188H75.5606V33.1951H73.4751V26.2412H78.7284C80.3669 26.2412 81.0918 26.8174 81.0918 28.5359C81.0918 29.5294 80.7444 30.0062 79.9797 30.2147ZM78.222 28.0392H75.5606V29.4301H78.222C78.788 29.4301 78.9765 29.2711 78.9765 28.7346C78.9765 28.1982 78.788 28.0392 78.222 28.0392ZM85.0169 33.1951H82.9315V26.2412H85.0169V33.1951ZM93.0559 26.2412V28.0889H88.9846V29.1717H92.4601V30.8604H88.9846V33.1951H86.8991V26.2412H93.0559ZM96.9279 33.1951H94.8427V26.2412H96.9279V33.1951ZM105.563 26.2412V28.0889H100.896V28.9235H104.669V30.5128H100.896V31.3473H105.662V33.1951H98.8101V26.2412H105.563ZM112.169 26.2412C114.612 26.2412 115.694 27.1053 115.694 29.718C115.694 32.3307 114.612 33.1951 112.169 33.1951H107.452V26.2412H112.169ZM109.537 31.3473H112.07C113.341 31.3473 113.579 30.9101 113.579 29.718C113.579 28.526 113.341 28.0889 112.07 28.0889H109.537V31.3473Z" fill="white"/>
</svg>
