<svg width="82" height="30" viewBox="0 0 82 30" fill="none" xmlns="http://www.w3.org/2000/svg">
<path d="M2.50267 11.1353C2.466 11.1683 2.42692 11.1987 2.38574 11.226C2.41546 11.1854 2.45597 11.1539 2.50267 11.1353Z" fill="#FEFEFE"/>
<path d="M16.241 1.77259L16.3055 1.75864C16.2833 1.75838 16.2612 1.76315 16.241 1.77259ZM16.2479 1.76562L16.3125 1.75167C16.2873 1.75244 16.2627 1.75964 16.241 1.77259L16.2479 1.76562ZM1.98022 17.1546C1.98022 18.2986 1.98022 19.4442 1.98022 20.5899C1.9553 20.7644 1.96419 20.942 2.00639 21.1131C1.99592 21.1567 1.98546 21.202 1.97673 21.2473C1.99592 21.488 1.93834 21.7339 2.01512 21.971C2.01512 21.699 2.01512 21.427 2.01512 21.1549V16.9698C1.98022 16.9873 1.99244 17.0936 1.98022 17.1546ZM2.01686 12.1133L2.02908 12.1325V12.075C2.02658 12.0876 2.02483 12.1004 2.02385 12.1133H2.01686ZM16.241 1.77259L16.3055 1.75864C16.2833 1.75838 16.2612 1.76315 16.241 1.77259ZM2.02385 12.1133L2.03606 12.1325V12.075C2.0312 12.0875 2.02712 12.1003 2.02385 12.1133ZM1.98022 17.1546C1.98022 18.2986 1.98022 19.4442 1.98022 20.5899C1.9553 20.7644 1.96419 20.942 2.00639 21.1131C1.99592 21.1567 1.98546 21.202 1.97673 21.2473C1.99592 21.488 1.93834 21.7339 2.01512 21.971C2.01512 21.699 2.01512 21.427 2.01512 21.1549V16.9698C1.98022 16.9873 1.99244 17.0936 1.98022 17.1546ZM1.98022 17.1546C1.98022 18.2986 1.98022 19.4442 1.98022 20.5899C1.9553 20.7644 1.96419 20.942 2.00639 21.1131C1.99592 21.1567 1.98546 21.202 1.97673 21.2473C1.99592 21.488 1.93834 21.7339 2.01512 21.971C2.01512 21.699 2.01512 21.427 2.01512 21.1549V16.9698C1.98022 16.9873 1.99244 17.0936 1.98022 17.1546ZM2.01686 12.1133L2.02908 12.1325V12.075C2.02658 12.0876 2.02483 12.1004 2.02385 12.1133H2.01686ZM16.241 1.77259L16.3055 1.75864C16.2833 1.75838 16.2612 1.76315 16.241 1.77259ZM2.03606 12.1325V12.075C2.0312 12.0875 2.02712 12.1003 2.02385 12.1133L2.03606 12.1325ZM1.98022 17.1546C1.98022 18.2986 1.98022 19.4442 1.98022 20.5899C1.9553 20.7644 1.96419 20.942 2.00639 21.1131C1.99592 21.1567 1.98546 21.202 1.97673 21.2473C1.99592 21.488 1.93834 21.7339 2.01512 21.971C2.01512 21.699 2.01512 21.427 2.01512 21.1549V16.9698C1.98022 16.9873 1.99244 17.0936 1.98022 17.1546ZM18.3436 4.89051C18.3436 3.4013 18.3436 1.91209 18.3436 0.422887C18.3436 0.159574 18.3436 0.0741277 18.0085 0.173524C16.5795 0.630404 15.1278 1.03147 13.6882 1.46743C10.8325 2.33119 7.97673 3.19844 5.12098 4.06918C3.84722 4.4563 2.57522 4.84343 1.29973 5.22009C1.02055 5.30204 0.92458 5.43632 0.92807 5.74323C0.964712 9.19773 0.919345 12.6574 1.01182 16.1171C1.07813 18.534 1.02404 20.9544 1.02404 23.401C4.30264 22.3128 7.56378 21.23 10.8128 20.1679C11.0623 20.086 10.975 19.9465 10.975 19.8192C10.975 17.6202 10.975 15.4213 10.9907 13.2224C10.9907 12.844 10.865 12.8422 10.5964 12.9626C10.5231 12.9957 10.4446 13.0184 10.3695 13.0497L7.88485 14.0559C7.88485 12.9538 7.88485 11.8954 7.88485 10.8386C7.87303 10.7533 7.89459 10.6669 7.94494 10.597C7.99528 10.5272 8.07063 10.4795 8.15528 10.4637C9.22841 10.0906 10.3032 9.71035 11.4025 9.32671C11.3903 10.0923 11.4025 10.8456 11.3309 11.6041C11.2594 12.3627 11.3152 13.1335 11.3152 13.906C11.3152 16.6752 11.3152 19.4449 11.3152 22.2152C11.3152 22.3739 11.3711 22.5151 11.1111 22.6128C8.89861 23.4446 6.70008 24.3095 4.49108 25.15C4.32706 25.211 4.28344 25.2633 4.28693 25.4237C4.29566 25.8824 4.31136 26.3428 4.28693 26.7996C4.26949 27.0665 4.40209 27.1693 4.6045 27.2583C6.61341 28.1301 8.62116 29.0021 10.6278 29.874C10.6929 29.9105 10.7654 29.9321 10.8399 29.9372C10.9144 29.9423 10.9892 29.9309 11.0588 29.9036C13.341 29.041 15.6279 28.1842 17.9195 27.3332C18.2109 27.2251 18.3557 27.0909 18.3557 26.7264C18.3406 19.4489 18.3366 12.1703 18.3436 4.89051ZM17.2129 26.5276C15.1516 27.2972 13.0944 28.0726 11.0413 28.8538C10.715 28.9794 10.5283 28.7248 10.2875 28.6463C9.80573 28.4634 9.33598 28.2502 8.88113 28.0081L4.62195 26.1562C5.38271 25.858 6.01783 25.5999 6.67216 25.3505C8.24487 24.7437 9.82162 24.1403 11.4025 23.5405C11.7246 23.4423 12.0376 23.3163 12.3377 23.1638C12.4669 23.0365 12.4076 22.8743 12.4093 22.7279C12.4093 21.2572 12.4128 19.7872 12.4197 18.3178V18.2847C12.4197 16.5966 12.4197 14.911 12.4197 13.2276C12.4197 11.6181 12.4197 10.0085 12.4197 8.39903C12.4197 8.25781 12.4913 8.08861 12.3308 7.97702L11.228 8.29961C10.0368 8.74137 8.84511 9.18084 7.6528 9.61794C7.39977 9.71214 7.14328 9.7923 6.88678 9.88299L6.86584 13.1369C6.86584 13.8031 6.88329 14.4692 6.87456 15.1336C6.87456 15.4248 6.90772 15.5364 7.23924 15.3934C7.74011 15.1484 8.26221 14.9494 8.79913 14.7988C9.05058 14.6322 9.33405 14.52 9.63148 14.4692C9.95247 14.4518 9.88966 14.6854 9.88966 14.8685C9.89668 16.3798 9.90134 17.8911 9.90363 19.4024C8.68225 19.8157 7.46087 20.2429 6.22897 20.6405C4.95522 21.052 3.67274 21.4375 2.39026 21.8211C2.2594 21.8595 2.19135 22.039 2.02385 21.9693C1.85634 21.8995 1.94533 21.7217 1.94533 21.5979C1.93834 16.5397 1.93834 11.4827 1.94533 6.4268C1.94533 6.26462 1.82667 5.99782 2.17914 6.02747C3.68321 5.56013 5.1838 5.08407 6.69136 4.63242C7.42771 4.40922 8.18321 4.26274 8.90555 3.97501C9.1237 3.88782 9.39936 3.88433 9.63492 3.77796C9.83559 3.73611 10.0903 3.91224 10.2299 3.62799C10.4323 3.6681 10.5143 3.38387 10.7254 3.4449C11.2962 3.23596 11.8788 3.06126 12.4704 2.92176C13.0636 2.79271 13.6306 2.54509 14.2152 2.36199C14.5258 2.2626 14.8416 2.18761 15.1557 2.10217C15.247 2.11379 15.3374 2.13186 15.4261 2.15623C15.6948 2.25214 15.5884 2.0638 15.5849 1.9522C15.8449 2.03416 16.0037 1.76038 16.2427 1.7691L16.3073 1.75515C16.4696 1.75515 16.6126 2.02021 16.7505 1.83363C16.925 1.58426 17.164 1.60344 17.41 1.60693V2.27306C17.41 4.75158 17.41 7.22949 17.41 9.70691C17.41 11.2937 17.41 12.8812 17.41 14.4692C17.41 16.3909 17.41 18.3126 17.41 20.2342C17.41 22.2372 17.4147 24.2409 17.424 26.2451C17.4258 26.4125 17.3734 26.4614 17.2129 26.5276ZM2.03257 12.1325V12.075C2.02771 12.0875 2.02363 12.1003 2.02035 12.1133L2.03257 12.1325ZM2.03257 16.9803C1.9715 16.9803 1.99069 17.0936 1.98546 17.1546C1.98546 18.2986 1.98546 19.4442 1.98546 20.5899C1.96054 20.7644 1.96942 20.942 2.01163 21.1131C2.00116 21.1567 1.99069 21.202 1.98196 21.2473C2.00116 21.488 1.94358 21.7339 2.02035 21.971C2.02035 21.699 2.02035 21.427 2.02035 21.1549L2.03257 16.9803ZM1.98546 17.1546C1.98546 18.2986 1.98546 19.4442 1.98546 20.5899C1.96054 20.7644 1.96942 20.942 2.01163 21.1131C2.00116 21.1567 1.99069 21.202 1.98196 21.2473C2.00116 21.488 1.94358 21.7339 2.02035 21.971C2.02035 21.699 2.02035 21.427 2.02035 21.1549V16.9698C1.98022 16.9873 1.99244 17.0936 1.98022 17.1546H1.98546ZM2.0221 12.1133L2.03431 12.1325V12.075C2.03004 12.0876 2.02655 12.1004 2.02385 12.1133H2.0221ZM16.2479 1.76562L16.3125 1.75167C16.2873 1.75244 16.2627 1.75964 16.241 1.77259L16.2479 1.76562ZM2.02385 12.1133L2.03606 12.1325V12.075C2.0312 12.0875 2.02712 12.1003 2.02385 12.1133ZM1.98022 17.1546C1.98022 18.2986 1.98022 19.4442 1.98022 20.5899C1.9553 20.7644 1.96419 20.942 2.00639 21.1131C1.99592 21.1567 1.98546 21.202 1.97673 21.2473C1.99592 21.488 1.93834 21.7339 2.01512 21.971C2.01512 21.699 2.01512 21.427 2.01512 21.1549V16.9698C1.98022 16.9873 1.99244 17.0936 1.98022 17.1546ZM16.2479 1.76562L16.3125 1.75167C16.2873 1.75244 16.2627 1.75964 16.241 1.77259L16.2479 1.76562ZM16.2479 1.76562L16.3125 1.75167C16.2873 1.75244 16.2627 1.75964 16.241 1.77259L16.2479 1.76562Z" fill="#FEFEFE"/>
<path d="M68.2968 4.85687C69.0803 4.23258 69.9335 4.15934 70.7955 4.70341C71.3364 5.05217 71.4934 5.63634 71.6365 6.21877C71.7656 6.76108 71.722 7.31564 71.7237 7.8667C71.7237 12.0157 71.7237 16.1642 71.7237 20.3122C71.7237 20.5825 71.7132 20.8162 72.0991 20.7394C72.3484 20.6906 72.3154 20.8754 72.3118 21.0254C72.3082 21.1754 72.3655 21.3323 72.1056 21.3271C71.4358 21.3131 70.7675 21.3271 70.0975 21.3271C69.937 21.3271 69.8689 21.28 69.8846 21.1143C69.8898 21.0173 69.8898 20.9201 69.8846 20.8231C69.8846 15.9649 69.8846 11.1067 69.8846 6.24842C69.8786 6.00332 69.8434 5.75981 69.78 5.52299C69.6665 5.04694 69.0576 4.8743 68.6109 5.17424C68.4767 5.24812 68.3661 5.35831 68.2917 5.49217C68.2173 5.62604 68.1822 5.77815 68.1904 5.93105C68.2113 10.7195 68.2061 15.508 68.1904 20.2964C68.1904 20.6016 68.1991 20.8196 68.5917 20.7411C68.8237 20.6976 68.7888 20.8771 68.7784 21.0097C68.7679 21.1422 68.8691 21.3288 68.5917 21.3271C67.7146 21.3177 66.8364 21.3177 65.9569 21.3271C65.6813 21.3271 65.7824 21.137 65.772 21.008C65.7615 20.8789 65.7284 20.6976 65.9604 20.7411C66.3548 20.8162 66.3618 20.5999 66.3618 20.2964C66.3536 15.3685 66.3536 10.4405 66.3618 5.51254C66.3618 5.23004 66.4141 4.94231 65.9569 5.0295C65.683 5.08007 65.7929 4.84117 65.7825 4.71561C65.772 4.59006 65.7458 4.44184 65.9761 4.44533C66.6584 4.45928 67.3424 4.45404 68.0246 4.44533C68.3736 4.44358 68.1118 4.74526 68.2968 4.85687Z" fill="#FEFEFE"/>
<path d="M27.1069 3.8633C26.5346 3.8633 25.9641 3.8755 25.3917 3.8633C25.1073 3.8633 24.8525 3.83714 24.9695 4.28181C24.1738 3.59649 22.935 3.66799 22.2719 4.12487C21.642 4.55907 21.4535 5.2252 21.4518 5.94016C21.4396 8.8767 21.4518 11.8133 21.4518 14.7481C21.4351 15.1049 21.4603 15.4626 21.5269 15.8136C21.7659 16.8476 22.3138 17.294 23.2978 17.397C23.8945 17.4649 24.4937 17.2938 24.9642 16.9209C24.9642 17.9671 24.9642 18.9716 24.9642 19.9725C24.9555 20.6701 24.364 21.0188 23.7428 20.7258C23.3764 20.5515 23.3136 20.2236 23.2978 19.8871C23.2769 19.3866 23.2857 18.8844 23.2978 18.3839C23.2978 18.2096 23.2473 18.1433 23.0623 18.1485C22.6174 18.1607 22.1707 18.1642 21.7258 18.1485C21.5024 18.1485 21.4641 18.2165 21.4466 18.4275C21.3506 19.6482 22.3051 20.8968 23.6451 21.1862C24.0233 21.2664 24.4147 21.2618 24.7909 21.1728C25.1672 21.0838 25.5189 20.9126 25.8211 20.6714C26.1233 20.4304 26.3682 20.1253 26.5383 19.7784C26.7085 19.4314 26.7996 19.0511 26.8051 18.6647C26.8155 14.0029 26.8155 9.34115 26.8051 4.67939C26.8051 4.44572 26.7754 4.22426 27.1296 4.28355C27.2622 4.30622 27.3966 4.32017 27.4018 4.09347C27.407 3.86678 27.2605 3.86155 27.1069 3.8633ZM24.9608 5.03862V16.0559C24.9608 16.539 24.6118 16.8703 24.0883 16.8964C23.6521 16.9174 23.3241 16.5895 23.2944 16.0978C23.2944 16.028 23.2944 15.9583 23.2944 15.8885C23.2944 12.3556 23.2944 8.82209 23.2944 5.28798C23.2944 4.8869 23.352 4.52768 23.7777 4.34284C24.2035 4.158 24.5018 4.39864 24.8246 4.59569C24.9782 4.70206 24.9555 4.87295 24.9537 5.03862H24.9608Z" fill="#FEFEFE"/>
<path d="M35.4919 12.8595C35.4919 11.0914 35.4919 9.3231 35.4919 7.55491C35.5059 6.76537 35.2676 5.99199 34.8114 5.34726C34.633 5.0813 34.4038 4.85326 34.1368 4.67629C33.8699 4.4993 33.5705 4.37689 33.256 4.3161C32.9415 4.25531 32.6181 4.25735 32.3043 4.32209C31.9905 4.38684 31.6927 4.51301 31.428 4.69333C30.4928 5.32808 30.0758 6.26275 30.0654 7.33518C30.0287 10.9257 30.0548 14.5179 30.0496 18.1101C30.0388 18.8989 30.2736 19.6717 30.7214 20.3213C31.0796 20.8579 31.6358 21.231 32.2685 21.3591C32.9011 21.4872 33.5588 21.3598 34.0977 21.0048C35.0312 20.3736 35.4448 19.4354 35.4744 18.3717C35.5285 16.5373 35.4919 14.6975 35.4919 12.8595ZM33.6493 19.7336C33.6493 20.3509 33.3003 20.7973 32.8362 20.82C32.3022 20.8444 31.9131 20.4364 31.8957 19.8173C31.8853 19.4424 31.8957 19.0657 31.8957 18.6908V5.99595C31.8957 5.34203 32.2254 4.88863 32.7105 4.86771C33.2759 4.84155 33.651 5.26704 33.651 5.95236C33.651 8.25069 33.651 10.5479 33.651 12.8439C33.651 15.1398 33.6504 17.437 33.6493 19.7354V19.7336Z" fill="#FEFEFE"/>
<path d="M80.5475 20.9074C80.1722 20.9841 80.1672 20.7662 80.1672 20.4855C80.1743 16.756 80.1743 13.0266 80.1672 9.29717C80.1672 7.79403 80.1672 6.29088 80.1672 4.78773C80.1672 4.51918 80.1063 4.43896 79.8184 4.43896C79.1917 4.46163 78.5636 4.43896 77.937 4.44768C77.7944 4.44768 77.6354 4.39362 77.6354 4.65345C77.6354 4.91328 77.7909 4.86794 77.9355 4.86096C78.1203 4.86096 78.237 4.86096 78.2342 5.1173C78.2199 6.43736 78.2342 7.75566 78.2342 9.14722C77.9785 8.90286 77.6433 8.75864 77.2902 8.74089C75.9216 8.56653 74.8559 9.05303 74.8244 10.5894C74.7614 13.566 74.7929 16.5462 74.8158 19.5246C74.8158 20.114 74.9992 20.7156 75.5313 21.0469C76.4036 21.5858 77.3039 21.516 78.2356 21.0155C78.2356 21.1742 78.1883 21.3312 78.4433 21.3242C79.1416 21.3085 79.8391 21.3242 80.5374 21.3242C80.6957 21.3242 80.7537 21.2789 80.7516 21.1132C80.7501 20.9475 80.7064 20.8813 80.5475 20.9074ZM78.2478 15.0761V20.1698C78.2478 20.6388 78.0107 20.8796 77.5237 20.9057C77.0367 20.9319 76.7825 20.6877 76.7424 20.2186C76.7424 20.1488 76.7424 20.0791 76.7424 20.0093C76.7424 16.7124 76.7424 13.4143 76.7424 10.1151C76.7424 9.78717 76.7925 9.48026 77.0911 9.29717C77.3891 9.11408 77.7171 9.22223 78.0179 9.37741C78.2406 9.4925 78.2585 9.67738 78.2585 9.90055C78.2442 11.6234 78.2478 13.3498 78.2478 15.0761Z" fill="#FEFEFE"/>
<path d="M49.5971 20.9072C49.2377 20.9786 49.208 20.7851 49.208 20.4921C49.2167 15.273 49.208 10.052 49.2202 4.8328C49.2202 4.53286 49.1678 4.42475 48.8415 4.44044C48.2291 4.47183 47.6202 4.44044 47.0007 4.4509C46.8612 4.4509 46.6972 4.39162 46.6954 4.65493C46.6936 4.91824 46.8472 4.87988 46.9937 4.86418C47.2276 4.83628 47.2974 4.91824 47.2956 5.15889C47.2834 6.465 47.2956 7.77457 47.2956 9.14523C47.0367 8.90903 46.705 8.76817 46.3551 8.74591C44.9854 8.56104 43.9123 9.05626 43.8827 10.5873C43.8147 13.557 43.8548 16.5441 43.8548 19.5226C43.8548 20.3491 44.366 21.106 45.0761 21.3047C45.4426 21.4157 45.8285 21.4474 46.2081 21.3978C46.5879 21.3482 46.9526 21.2184 47.2782 21.017C47.2782 21.1914 47.259 21.3396 47.5259 21.3309C48.2082 21.3065 48.8904 21.3187 49.5744 21.3309C49.7245 21.3309 49.803 21.3047 49.7995 21.1304C49.796 20.956 49.7681 20.881 49.5971 20.9072ZM47.2904 15.1003C47.2904 16.7848 47.2904 18.4705 47.2904 20.1573C47.2904 20.6456 47.0408 20.881 46.5401 20.9141C46.1109 20.942 45.8806 20.7398 45.7846 20.1957C45.7798 20.1377 45.7798 20.0794 45.7846 20.0213C45.7846 16.7081 45.7846 13.3948 45.7846 10.0816C45.7846 9.26383 46.4092 8.98827 47.006 9.35444C47.1023 9.4014 47.1819 9.47669 47.2339 9.57024C47.2861 9.66379 47.3082 9.77108 47.2974 9.87758C47.2869 11.6214 47.2904 13.3617 47.2904 15.1003Z" fill="#FEFEFE"/>
<path d="M63.5279 20.9544C63.5279 20.7799 63.5418 20.6056 63.2801 20.6562C62.9608 20.7172 62.9311 20.5515 62.9311 20.2847C62.9416 18.1137 62.9311 15.9444 62.9311 13.7734C62.9311 11.6023 62.9434 9.43302 62.9311 7.26202C62.9511 6.44123 62.6622 5.64285 62.1215 5.02471C61.3764 4.20512 60.4221 4.08829 59.4362 4.46321C58.4975 4.81197 58.1136 5.65596 57.9216 6.57495C57.7367 7.46257 57.8728 8.36756 57.8274 9.26389C57.8152 9.52371 57.9234 9.55685 58.1415 9.54991C58.5309 9.52893 58.9211 9.52893 59.3105 9.54991C59.5984 9.56909 59.6875 9.49236 59.6822 9.19239C59.6613 8.1217 59.6822 7.0493 59.6683 5.97857C59.6761 5.74762 59.7178 5.51906 59.7921 5.30023C59.8311 5.17647 59.9081 5.06813 60.0123 4.99061C60.1164 4.91309 60.2423 4.87032 60.3721 4.8684C60.5019 4.86647 60.629 4.90547 60.7354 4.97985C60.8418 5.05425 60.922 5.16024 60.9647 5.28279C61.0382 5.47056 61.0807 5.66905 61.0903 5.87045C61.0991 7.70671 61.0903 9.54289 61.1008 11.3791C61.1008 11.5796 61.0449 11.6425 60.8442 11.6355C60.392 11.5981 59.9368 11.64 59.499 11.7593C58.2078 12.1708 57.81 13.1037 57.775 14.2738C57.7227 16.0176 57.6442 17.7615 57.8344 19.5052C57.9094 20.1801 58.1572 20.7887 58.7609 21.1409C59.0677 21.3338 59.4252 21.4306 59.7874 21.4188C60.1497 21.407 60.5001 21.2871 60.7937 21.0747C60.8844 21.0136 61.0415 20.841 61.0746 21.0223C61.1183 21.256 61.2281 21.2333 61.38 21.2333C62.0063 21.2333 62.6345 21.2211 63.2609 21.2333C63.4999 21.2508 63.5383 21.1566 63.5279 20.9544ZM61.0973 16.2688V19.8122C61.0973 20.3353 60.7728 20.7137 60.3103 20.7381C59.9422 20.759 59.6456 20.4155 59.5932 19.9046C59.5894 19.8465 59.5894 19.7883 59.5932 19.7302C59.5932 17.5911 59.5932 15.4515 59.5932 13.3112C59.5932 12.4864 60.1079 12.0766 60.9368 12.2057C61.1776 12.2423 61.0938 12.3958 61.0938 12.5091C61.099 13.7681 61.0973 15.0184 61.0973 16.2688Z" fill="#FEFEFE"/>
<path d="M40.5984 12.685C40.5984 15.3007 40.5984 17.9164 40.5984 20.5321C40.5984 20.8007 40.6281 20.9628 40.9474 20.9035C41.1097 20.8739 41.1969 20.9175 41.1969 21.1198C41.1969 21.322 41.0713 21.3203 40.9299 21.3186H38.4557C38.3005 21.3186 38.1574 21.3482 38.1643 21.0989C38.1713 20.8495 38.2987 20.8826 38.4348 20.9053C38.7349 20.9541 38.7611 20.8007 38.7611 20.5565C38.7611 15.4483 38.7611 10.3413 38.7611 5.23549C38.7611 4.96521 38.7262 4.80826 38.4121 4.86406C38.2481 4.89371 38.1661 4.84488 38.1643 4.64783C38.1643 4.42114 38.2952 4.44904 38.433 4.44904C39.0472 4.44904 39.6545 4.46647 40.2739 4.44032C40.5705 4.42811 40.6036 4.54495 40.6019 4.78908C40.5949 7.42572 40.5984 10.0571 40.5984 12.685Z" fill="#FEFEFE"/>
<path d="M54.4865 12.6852C54.4865 15.2869 54.4865 17.8904 54.4865 20.4922C54.4865 20.7729 54.4865 20.9892 54.8668 20.9142C55.0273 20.881 55.0797 20.9595 55.0815 21.1217C55.0832 21.2838 55.0256 21.3327 54.8651 21.3327C54.0008 21.3257 53.1365 21.3257 52.2722 21.3327C52.11 21.3327 52.0593 21.2838 52.0593 21.1199C52.0593 20.956 52.1169 20.881 52.2757 20.9142C52.6508 20.9909 52.6543 20.7694 52.6543 20.4904C52.6543 15.4252 52.6543 10.3595 52.6543 5.29319C52.6543 5.0107 52.6543 4.79621 52.274 4.87119C52.1135 4.90433 52.0593 4.8276 52.0593 4.66368C52.0593 4.49976 52.1135 4.45094 52.274 4.45268C52.944 4.45268 53.6123 4.46489 54.2823 4.45268C54.5405 4.45268 54.4899 4.60962 54.4899 4.75436C54.4899 5.8111 54.4899 6.86846 54.4899 7.92634L54.4865 12.6852Z" fill="#FEFEFE"/>
<path d="M52.0458 26.1128C51.8572 26.0012 51.6967 25.893 51.7142 25.6122C51.7229 25.4482 51.9044 25.0994 51.5396 25.1099C51.222 25.1186 51.482 25.4588 51.3267 25.6593L49.7333 24.5919C49.6968 24.5764 49.6617 24.5578 49.6285 24.536C49.4785 24.4 49.5413 24.2186 49.564 24.0669C49.5867 23.9151 49.7385 23.9168 49.8695 23.9203C50.0911 23.9203 50.3144 23.9203 50.5379 23.9203C50.8642 23.9099 51.1748 23.9203 51.1382 24.3756C51.1295 24.4959 51.208 24.5064 51.2988 24.5064C51.3895 24.5064 51.4454 24.5064 51.4733 24.3895C51.5047 24.2953 51.5125 24.1948 51.4963 24.0968C51.4799 23.9988 51.44 23.9063 51.3798 23.8272C51.3196 23.7482 51.241 23.685 51.1509 23.6431C51.0607 23.6013 50.9617 23.5821 50.8625 23.5872C50.4855 23.5872 50.1085 23.5994 49.7333 23.5872C49.3843 23.5715 49.2603 23.7895 49.222 24.0564C49.1836 24.3233 49.1539 24.6181 49.4611 24.7977C48.8991 24.9825 48.728 25.3785 48.9025 26.0029C48.9208 26.1233 48.9773 26.2345 49.0638 26.3203C49.1502 26.406 49.2619 26.4617 49.3825 26.4791C50.0177 26.5663 50.6583 26.4965 51.3023 26.5105C51.3289 26.5073 51.3544 26.4986 51.3773 26.4848C51.4002 26.4709 51.4198 26.4524 51.4349 26.4302C51.5658 26.2244 51.7351 26.2715 51.8782 26.3831C51.9916 26.4721 52.0527 26.5401 52.1487 26.3744C52.2447 26.2087 52.147 26.1651 52.0458 26.1128ZM51.3634 26.1128C50.751 26.1849 50.1329 26.1942 49.5186 26.1407C49.4303 26.1277 49.3505 26.0814 49.2952 26.0114C49.2401 25.9413 49.2139 25.8528 49.222 25.7639C49.222 25.5215 49.1312 25.2511 49.4139 25.0663C49.6199 24.9337 49.7455 25.0175 49.9253 25.1343C50.393 25.4396 50.8852 25.7082 51.3686 25.9925L51.3634 26.1128Z" fill="#FEFEFE"/>
<path d="M45.1791 26.5019C44.919 26.46 44.6083 26.5472 44.2907 26.4339C43.9731 26.3205 43.8596 26.0973 43.8596 25.7833C43.8596 25.6542 43.8753 25.574 44.0341 25.5792C44.1668 25.5792 44.2087 25.6368 44.1947 25.7536C44.172 26.1025 44.4199 26.1531 44.6782 26.1618C45.0551 26.1722 45.4303 26.1618 45.8074 26.1618C46.1476 26.1618 46.2873 25.9874 46.289 25.6508C46.2907 25.3141 46.0988 25.2496 45.8056 25.2374C45.3414 25.2199 44.8771 25.2862 44.4094 25.1833C44.0045 25.0944 43.8719 24.8676 43.8648 24.5065C43.8579 24.1455 43.8509 23.7286 44.3396 23.6467C44.9714 23.542 45.6084 23.4583 46.2332 23.7199C46.5211 23.8385 46.5403 24.0688 46.5421 24.3217C46.5421 24.442 46.5089 24.4961 46.378 24.4961C46.2471 24.4961 46.193 24.4664 46.2035 24.3339C46.2367 23.9851 45.9906 23.924 45.7306 23.9135C45.3692 23.8979 45.0063 23.9135 44.645 23.9135C44.3239 23.9135 44.2052 24.1054 44.1912 24.4124C44.1772 24.7194 44.3919 24.8135 44.6328 24.8258C45.0359 24.8449 45.4408 24.8258 45.844 24.8258C46.4251 24.8362 46.6206 25.056 46.6223 25.6752C46.6223 26.256 46.4164 26.4792 45.8562 26.495C45.6485 26.5071 45.4391 26.5019 45.1791 26.5019Z" fill="#FEFEFE"/>
<path d="M39.6498 24.2067C39.6079 23.7864 39.2798 23.5806 38.8348 23.5789C38.3897 23.5771 37.9429 23.5875 37.4979 23.5789C37.0529 23.5701 36.7666 23.7777 36.7038 24.1806C36.6105 24.7542 36.6105 25.339 36.7038 25.9126C36.7736 26.3242 37.0703 26.5266 37.5014 26.5091C37.7248 26.4986 37.9482 26.5091 38.1698 26.5091H38.8383C39.2798 26.5091 39.6079 26.298 39.648 25.8759C39.7023 25.3209 39.7029 24.7619 39.6498 24.2067ZM39.3356 25.6317C39.3147 25.9631 39.1611 26.1934 38.7684 26.1725C38.3757 26.1516 37.9604 26.1533 37.5572 26.1725C37.1541 26.1917 37.0337 25.944 37.004 25.6161C36.9744 25.2882 37.004 24.9184 37.004 24.5696C37.004 24.0655 37.1645 23.9085 37.6602 23.9085H38.7457C39.1472 23.9085 39.3321 24.0707 39.3444 24.4597C39.3566 24.8486 39.3601 25.2411 39.3356 25.6317Z" fill="#FEFEFE"/>
<path d="M63.104 25.2529C62.9854 25.1727 63.0883 25.1326 63.1163 25.1134C63.474 24.8796 63.3466 24.5204 63.3484 24.2047C63.3508 24.1224 63.3364 24.0405 63.306 23.964C63.2757 23.8875 63.23 23.8179 63.1719 23.7597C63.1137 23.7014 63.0443 23.6556 62.9678 23.625C62.8913 23.5944 62.8094 23.5798 62.7271 23.582C62.1284 23.5698 61.5281 23.582 60.9277 23.5732C60.7271 23.5732 60.6642 23.6291 60.6712 23.8297C60.6851 24.2343 60.6712 24.6372 60.6712 25.0506C60.6712 25.464 60.6712 25.8861 60.6712 26.3029C60.6712 26.4216 60.6712 26.5157 60.8457 26.5157C61.0202 26.5157 61.0063 26.4163 61.0202 26.3012C61.0429 25.9872 60.8771 25.5582 61.0952 25.3907C61.3134 25.2233 61.7079 25.3436 62.0272 25.3419C62.961 25.3419 62.961 25.3419 63.0272 26.2837C63.029 26.3116 63.029 26.3396 63.0272 26.3674C63.0168 26.514 63.1146 26.5088 63.2175 26.5123C63.3204 26.5157 63.3728 26.4616 63.3588 26.3622C63.296 25.9803 63.5229 25.5372 63.104 25.2529ZM63.0186 24.6948C62.9749 24.939 62.7759 24.9843 62.5927 24.9913C62.1319 25.0105 61.6712 24.9913 61.2122 25.0018C61.0377 25.0018 61.0167 24.9285 61.0063 24.7803C60.9452 23.9081 60.9399 23.9081 61.9016 23.9081H62.3623C62.9802 23.9134 63.1267 24.0931 63.0186 24.6948Z" fill="#FEFEFE"/>
<path d="M78.125 25.2687C78.0341 25.1901 78.0183 25.1657 78.0971 25.1134C78.446 24.8796 78.3292 24.5221 78.3306 24.2064C78.3335 24.1241 78.3192 24.0422 78.2891 23.9656C78.259 23.889 78.2131 23.8194 78.1551 23.7609C78.0971 23.7025 78.0283 23.6564 77.9517 23.6256C77.875 23.5949 77.7934 23.58 77.711 23.582C77.1121 23.5698 76.5118 23.582 75.9115 23.5732C75.7145 23.5732 75.6465 23.6256 75.6536 23.8297C75.6673 24.2326 75.6536 24.6355 75.6536 25.0401C75.6536 25.4448 75.6536 25.8477 75.6536 26.2506C75.6536 26.3657 75.6064 26.5052 75.8191 26.507C76.0319 26.5088 75.9781 26.3674 75.9939 26.2523C76.0218 25.9523 75.8557 25.5303 76.067 25.3803C76.2783 25.2303 76.6816 25.3314 77.0011 25.3297C77.9395 25.3297 77.9395 25.3297 78.0025 26.2698C78.0025 26.3117 78.0025 26.3535 78.0025 26.3936C78.0025 26.4878 78.0706 26.5017 78.1458 26.4983C78.221 26.4948 78.3378 26.5175 78.3199 26.3954C78.2991 26.0134 78.4825 25.5774 78.125 25.2687ZM77.4073 24.9983H76.5699C75.9918 24.9983 76.0183 24.9983 75.9832 24.4035C75.961 24.0163 76.0441 23.8506 76.4667 23.9046C76.7869 23.923 77.1078 23.923 77.428 23.9046C77.9273 23.9046 78.004 23.9884 78.0011 24.4785C77.9975 24.9146 77.9051 24.9948 77.4073 24.9983Z" fill="#FEFEFE"/>
<path d="M34.4969 25.2531C34.3782 25.1729 34.4795 25.1328 34.5074 25.1136C34.8983 24.8363 34.7535 24.4263 34.7221 24.081C34.7053 23.9351 34.6328 23.8014 34.5196 23.7077C34.4063 23.6141 34.2613 23.5678 34.1147 23.5787C33.5161 23.5787 32.9158 23.5787 32.3171 23.5787C32.1147 23.5787 32.0536 23.638 32.0605 23.8369C32.0745 24.2397 32.0605 24.6444 32.0605 25.0473C32.0605 25.4502 32.0605 25.8549 32.0605 26.2578C32.0605 26.3729 32.0152 26.5124 32.2351 26.5124C32.455 26.5124 32.3922 26.3712 32.4096 26.2561C32.4375 25.9577 32.27 25.5356 32.4811 25.3839C32.6923 25.2322 33.0972 25.3351 33.4166 25.3333C34.3538 25.3333 34.3538 25.3333 34.4166 26.2735C34.4184 26.3014 34.4184 26.3293 34.4166 26.3572C34.4166 26.4618 34.4585 26.5037 34.565 26.5037C34.6714 26.5037 34.7692 26.495 34.75 26.3554C34.6889 25.9804 34.9106 25.5392 34.4969 25.2531ZM34.4079 24.7089C34.3868 24.796 34.3349 24.8724 34.2617 24.924C34.1886 24.9757 34.0991 24.999 34.01 24.9898C33.5388 25.0124 33.064 24.9898 32.5894 25.0002C32.4427 25.0002 32.3816 24.9531 32.4008 24.8084C32.4018 24.7944 32.4018 24.7804 32.4008 24.7665C32.345 23.9136 32.345 23.9136 33.3049 23.9136H33.7639C34.3678 23.9136 34.5301 24.1176 34.4079 24.7176V24.7089Z" fill="#FEFEFE"/>
<path d="M42.868 25.26C42.7545 25.1798 42.8331 25.1431 42.868 25.1205C43.2171 24.8884 43.1088 24.5309 43.1071 24.2135C43.11 24.1279 43.0949 24.0427 43.0628 23.9633C43.0307 23.884 42.9825 23.8121 42.921 23.7525C42.8595 23.6929 42.7863 23.6468 42.7059 23.6171C42.6255 23.5874 42.5398 23.5749 42.4544 23.5803C41.868 23.5803 41.2833 23.5908 40.6969 23.5803C40.463 23.5803 40.4212 23.6623 40.4298 23.8681C40.4438 24.2571 40.4298 24.6478 40.4298 25.0385C40.4298 25.4292 40.4194 25.7902 40.4298 26.1652C40.4298 26.2838 40.306 26.4966 40.5817 26.5141C40.8574 26.5315 40.7562 26.31 40.7562 26.1896C40.7789 25.3454 40.7737 25.3454 41.6289 25.3454H41.6708C42.6603 25.3454 42.6603 25.3454 42.7633 26.3187C42.765 26.3326 42.765 26.3467 42.7633 26.3606C42.7511 26.4984 42.8296 26.5193 42.9378 26.5158C43.046 26.5123 43.1036 26.4826 43.0896 26.3762C43.0583 25.9873 43.2764 25.5443 42.868 25.26ZM42.7755 24.6966C42.7301 24.9408 42.5312 24.9844 42.3479 24.9914C41.8889 25.0106 41.4281 24.9914 40.9692 25.0018C40.7946 25.0018 40.7737 24.9268 40.7632 24.7786C40.7021 23.9065 40.6986 23.9065 41.6603 23.9065H42.114C42.7371 23.9135 42.8855 24.0931 42.7755 24.6966Z" fill="#FEFEFE"/>
<path d="M64.5258 23.9293C64.5258 24.7701 64.5258 25.4991 64.5258 26.2125C64.5258 26.3276 64.6096 26.5072 64.36 26.5055C64.1105 26.5038 64.1994 26.3224 64.1977 26.209C64.1977 25.4433 64.189 24.6794 64.1977 23.9136C64.1977 23.802 64.086 23.6031 64.3164 23.5857C64.4787 23.5718 64.6393 23.5369 64.7858 23.7322C65.367 24.5032 65.9813 25.2479 66.5852 25.9997C66.6223 26.0325 66.6619 26.0623 66.7039 26.0886V24.0392C66.7039 23.9415 66.7039 23.8439 66.7039 23.7462C66.7039 23.6485 66.7405 23.5718 66.8697 23.5718C66.9988 23.5718 67.0442 23.6223 67.0442 23.7462C67.0442 24.6078 67.0442 25.4712 67.0442 26.3328C67.0442 26.4148 67.0529 26.5072 66.9256 26.5072C66.751 26.4933 66.6009 26.5509 66.4526 26.3572C65.8417 25.5619 65.2169 24.7962 64.5258 23.9293Z" fill="#FEFEFE"/>
<path d="M22.692 23.9326C22.692 24.7663 22.692 25.4884 22.692 26.2087C22.692 26.3239 22.7776 26.5035 22.528 26.5053C22.2784 26.507 22.3657 26.3309 22.3657 26.2105C22.3657 25.4448 22.3657 24.6791 22.3657 23.9151C22.3657 23.8018 22.254 23.6029 22.4826 23.5855C22.6449 23.5733 22.8055 23.5349 22.9538 23.7303C23.535 24.5012 24.1493 25.2477 24.7532 25.9977C24.7903 26.0305 24.83 26.0603 24.8719 26.0867V24.0791C24.8719 23.9674 24.8719 23.8558 24.8719 23.7442C24.8719 23.6326 24.9138 23.5698 25.0464 23.5698C25.179 23.5698 25.2209 23.6221 25.2209 23.7442C25.2209 24.607 25.2209 25.4698 25.2209 26.3326C25.2209 26.4146 25.2209 26.507 25.0987 26.4983C24.9242 26.4826 24.7759 26.5401 24.6292 26.3448C24.0132 25.5582 23.3814 24.7942 22.692 23.9326Z" fill="#FEFEFE"/>
<path d="M79.1665 25.0383C79.1665 24.6337 79.1787 24.2308 79.1665 23.8279C79.1579 23.6238 79.2274 23.5697 79.4244 23.5732C80.0368 23.5854 80.6464 23.5732 81.2639 23.5732C81.3793 23.5732 81.5204 23.5279 81.5189 23.7476C81.5168 23.9674 81.3757 23.9116 81.2625 23.9133C80.774 23.9133 80.2868 23.9255 79.7997 23.9133C79.5605 23.9133 79.4731 23.9778 79.5032 24.2133C79.5182 24.3379 79.5182 24.4638 79.5032 24.5884C79.4788 24.7941 79.564 24.8464 79.761 24.8412C80.2345 24.829 80.7088 24.8412 81.1823 24.8412C81.299 24.8412 81.4366 24.7976 81.4351 25.0157C81.433 25.2337 81.2904 25.1761 81.1765 25.1778C80.7181 25.1778 80.2568 25.1918 79.7983 25.1778C79.559 25.1674 79.4996 25.2459 79.4996 25.4779C79.4996 26.1843 79.4874 26.1843 80.1801 26.1843C80.5569 26.1843 80.9323 26.1843 81.3098 26.1843C81.4316 26.1843 81.5189 26.1843 81.5168 26.3587C81.5154 26.5331 81.4144 26.5209 81.3005 26.5209C80.6744 26.5209 80.0461 26.5209 79.4193 26.5209C79.2152 26.5209 79.1593 26.4581 79.1665 26.261C79.1765 25.8441 79.1665 25.4412 79.1665 25.0383Z" fill="#FEFEFE"/>
<path d="M29.1333 24.9987C29.1333 24.6097 29.1438 24.219 29.1333 23.83C29.1333 23.6312 29.1874 23.5702 29.3881 23.5737C30.0007 23.5858 30.6098 23.5737 31.2276 23.5737C31.3411 23.5737 31.4824 23.5249 31.4842 23.7376C31.4859 23.9504 31.348 23.912 31.2328 23.912C30.7441 23.912 30.2572 23.9243 29.7703 23.912C29.5382 23.9033 29.437 23.9644 29.4701 24.2068C29.485 24.3314 29.485 24.4573 29.4701 24.5818C29.4475 24.7824 29.5225 24.8452 29.7249 24.8382C30.1979 24.826 30.6709 24.8382 31.1456 24.8382C31.2591 24.8382 31.4004 24.7894 31.4004 25.0126C31.4004 25.2359 31.2608 25.1783 31.1456 25.1783C30.6865 25.1783 30.2259 25.1923 29.7668 25.1783C29.5295 25.1783 29.4666 25.2428 29.4666 25.4783C29.4666 26.1847 29.4544 26.1847 30.1456 26.1847H31.2747C31.3934 26.1847 31.4859 26.1847 31.4859 26.3591C31.4859 26.5335 31.3864 26.5335 31.2695 26.5335C30.629 26.5335 29.9885 26.5248 29.3497 26.5335C29.1385 26.5335 29.135 26.4307 29.1368 26.2772C29.1368 25.8342 29.1333 25.4155 29.1333 24.9987Z" fill="#FEFEFE"/>
<path d="M74.9021 24.8362C74.9021 25.1694 74.9021 25.5025 74.9021 25.8357C74.9079 25.9244 74.8943 26.0133 74.8627 26.0965C74.8319 26.1797 74.7825 26.2552 74.7202 26.318C74.6572 26.3809 74.5812 26.4296 74.4981 26.4611C74.415 26.4925 74.3262 26.5058 74.2374 26.5002C73.7646 26.5089 73.2897 26.5089 72.8169 26.5002C72.728 26.5076 72.6385 26.4959 72.554 26.4656C72.4702 26.4354 72.3935 26.3875 72.3298 26.325C72.266 26.2627 72.2166 26.1873 72.185 26.104C72.1528 26.0208 72.1392 25.9317 72.1449 25.8426C72.1356 25.1764 72.1449 24.5101 72.1449 23.8438C72.1449 23.7374 72.0783 23.5856 72.2946 23.5752C72.511 23.5647 72.4694 23.7322 72.4694 23.856C72.4694 24.4665 72.4888 25.0769 72.4694 25.6891C72.4573 26.0171 72.6177 26.1496 72.8935 26.1618C73.3104 26.1827 73.7295 26.181 74.1464 26.1618C74.208 26.1687 74.2696 26.1611 74.3276 26.1396C74.3857 26.118 74.4372 26.0831 74.4795 26.0378C74.521 25.9924 74.5519 25.9378 74.5683 25.8785C74.5855 25.8191 74.5877 25.7566 74.5755 25.6961C74.5511 25.0857 74.5655 24.4751 74.5755 23.863C74.5755 23.7443 74.501 23.5682 74.7503 23.5769C74.9996 23.5856 74.9021 23.7653 74.9072 23.8769C74.9165 24.1944 74.9021 24.517 74.9021 24.8362Z" fill="#FEFEFE"/>
<path d="M57.1631 24.8727C57.1631 24.5122 57.1631 24.1512 57.1631 23.7895C57.1631 23.6744 57.1631 23.5732 57.3376 23.5732C57.5121 23.5732 57.5121 23.6622 57.5121 23.7843C57.5121 24.4087 57.5296 25.0349 57.5121 25.6593C57.4982 26.0221 57.664 26.1599 57.9886 26.1651C58.3778 26.1651 58.7687 26.1791 59.1579 26.1651C59.4511 26.1547 59.6309 26.0378 59.6169 25.6855C59.5925 25.075 59.6169 24.4645 59.6169 23.8506C59.6169 23.7233 59.5663 23.5628 59.8037 23.5767C60.041 23.5907 59.9468 23.7511 59.9468 23.8506C59.9537 24.5029 59.9537 25.1558 59.9468 25.8093C59.9568 25.9017 59.9463 25.9952 59.916 26.0831C59.8858 26.1711 59.8365 26.2512 59.7716 26.3178C59.7067 26.3845 59.628 26.436 59.5409 26.4687C59.4538 26.5014 59.3606 26.5145 59.2678 26.507C58.7949 26.507 58.322 26.5157 57.849 26.507C57.7601 26.5116 57.6712 26.4974 57.5882 26.4652C57.5052 26.4331 57.4299 26.3838 57.3673 26.3205C57.3046 26.2573 57.2561 26.1816 57.2248 26.0983C57.1936 26.015 57.1803 25.926 57.1858 25.8372C57.1561 25.5111 57.1631 25.1919 57.1631 24.8727Z" fill="#FEFEFE"/>
<path d="M54.2333 24.9986C54.2333 24.6097 54.2438 24.2189 54.2333 23.83C54.2333 23.6294 54.2891 23.5701 54.4899 23.5736C55.0745 23.5858 55.6592 23.5736 56.2456 23.5736C56.359 23.5736 56.5021 23.5248 56.5004 23.7393C56.4986 23.9538 56.3608 23.9138 56.2456 23.9138C55.7849 23.9138 55.3258 23.9277 54.8669 23.9138C54.6277 23.9138 54.5405 23.9783 54.5702 24.2137C54.585 24.3383 54.585 24.4641 54.5702 24.5887C54.5457 24.7945 54.6313 24.8486 54.8285 24.8416C55.2735 24.8294 55.7185 24.8416 56.1653 24.8416C56.2805 24.8416 56.4201 24.798 56.4184 25.016C56.4166 25.2341 56.2736 25.1783 56.1601 25.18C55.715 25.18 55.2682 25.1922 54.8232 25.18C54.619 25.18 54.5579 25.2411 54.5684 25.4399C54.5841 25.7312 54.5684 26.0225 54.5684 26.312C54.5684 26.4323 54.5684 26.523 54.3939 26.523C54.2194 26.523 54.2281 26.4236 54.2281 26.3085C54.235 25.8602 54.2333 25.4294 54.2333 24.9986Z" fill="#FEFEFE"/>
<path d="M70.1456 23.5789H71.2329C71.3568 23.5789 71.486 23.551 71.4772 23.7533C71.4772 23.9277 71.3603 23.9068 71.2521 23.9085H71.2102C70.9205 23.919 70.5121 23.8161 70.369 23.9644C70.1701 24.165 70.3114 24.5679 70.3026 24.8835C70.2922 25.2865 70.3166 25.6912 70.2922 26.0923C70.2835 26.2283 70.4528 26.5004 70.1177 26.4935C69.821 26.4935 69.9746 26.2388 69.9711 26.1115C69.9519 25.5289 69.9414 24.9429 69.9711 24.3673C69.9868 24.0184 69.924 23.844 69.533 23.9121C69.3805 23.9295 69.2265 23.9295 69.074 23.9121C68.9518 23.9121 68.7791 23.9818 68.7895 23.7377C68.7983 23.5231 68.9501 23.5894 69.0566 23.5876C69.4213 23.5754 69.7826 23.5789 70.1456 23.5789Z" fill="#FEFEFE"/>
<path d="M27.2204 23.577C27.5694 23.577 27.9185 23.577 28.2675 23.577C28.3862 23.577 28.5607 23.502 28.5555 23.7514C28.5555 23.9677 28.4019 23.9032 28.2919 23.9084C28.0023 23.9223 27.5939 23.8159 27.4507 23.9641C27.2483 24.1647 27.3914 24.5659 27.3827 24.8816C27.3722 25.3264 27.3827 25.7712 27.3827 26.2159C27.3827 26.3362 27.456 26.5124 27.2082 26.502C26.9603 26.4915 27.0563 26.3101 27.0546 26.2002C27.0546 25.5601 27.0284 24.9182 27.0546 24.2816C27.0703 23.952 26.9551 23.8665 26.6584 23.9101C26.5345 23.9336 26.4072 23.9336 26.2832 23.9101C26.1418 23.8734 25.8731 24.0671 25.88 23.7357C25.88 23.4374 26.1331 23.5996 26.2623 23.5874C26.5816 23.5595 26.901 23.577 27.2204 23.577Z" fill="#FEFEFE"/>
<path d="M68.2838 25.0667C68.2838 25.4278 68.2943 25.7906 68.2838 26.1516C68.2838 26.2737 68.4008 26.4813 68.132 26.5004C67.8633 26.5196 67.9575 26.2999 67.9575 26.1778C67.947 25.4121 67.9575 24.6464 67.9575 23.8807C67.9575 23.7708 67.8598 23.5842 68.1076 23.5755C68.3903 23.5667 68.2821 23.7778 68.2821 23.8998C68.2996 24.2906 68.2838 24.6813 68.2838 25.0667Z" fill="#FEFEFE"/>
<path d="M35.582 25.0401C35.582 24.6215 35.582 24.2046 35.582 23.7878C35.582 23.6674 35.582 23.575 35.7566 23.5733C35.9311 23.5715 35.9311 23.6709 35.9311 23.7878C35.9311 24.6239 35.9311 25.4587 35.9311 26.2924C35.9311 26.4111 35.9311 26.507 35.7566 26.507C35.582 26.507 35.582 26.4111 35.582 26.2924C35.582 25.8756 35.582 25.457 35.582 25.0401Z" fill="#FEFEFE"/>
<path d="M21.5228 25.0667C21.5228 25.4278 21.5333 25.7906 21.5228 26.1516C21.5228 26.2737 21.6415 26.4813 21.3727 26.5004C21.104 26.5196 21.1982 26.2999 21.1982 26.1778C21.1878 25.4121 21.1982 24.6464 21.1982 23.8824C21.1982 23.7708 21.1022 23.5842 21.35 23.5755C21.631 23.5667 21.5246 23.7778 21.5246 23.9016C21.5315 24.2923 21.5228 24.6813 21.5228 25.0667Z" fill="#FEFEFE"/>
<path d="M12.3284 23.1635C12.4034 22.5426 12.3528 21.9183 12.3597 21.2976C12.3685 20.3541 12.3597 19.4125 12.3597 18.4709C12.3499 18.4102 12.363 18.348 12.3964 18.2965L12.4086 18.2808V18.3139C12.4086 19.7845 12.4051 21.2546 12.3981 22.724C12.3981 22.874 12.4575 23.0361 12.3284 23.1635Z" fill="#FEFEFE"/>
<path d="M2.03687 12.0747V12.1323L2.02466 12.1131C2.02794 12.1001 2.03202 12.0872 2.03687 12.0747Z" fill="#FEFEFE"/>
<path d="M15.427 2.15964C15.3382 2.13526 15.2478 2.11719 15.1565 2.10556C15.2786 1.99743 15.5056 2.1858 15.5858 1.95557C15.5928 2.06719 15.6958 2.25557 15.427 2.15964Z" fill="#FEFEFE"/>
<path d="M17.4065 1.61014C17.1604 1.61014 16.9301 1.58747 16.7468 1.83689C16.6089 2.02352 16.4658 1.76189 16.3035 1.7584C16.5321 1.71654 16.7695 1.73224 16.9841 1.58398C17.0457 1.53645 17.1225 1.51289 17.2003 1.5177C17.2779 1.52252 17.3513 1.55537 17.4065 1.61014Z" fill="#FEFEFE"/>
<path d="M12.4016 8.38685C12.4016 9.99635 12.4016 11.6059 12.4016 13.2154C12.3763 13.1671 12.3602 13.1145 12.3545 13.0603C12.3545 11.4943 12.3545 9.9295 12.3545 8.36595C12.3545 8.23167 12.4016 8.08688 12.3057 7.96484C12.4732 8.07643 12.3999 8.24556 12.4016 8.38685Z" fill="#FEFEFE"/>
<path d="M2.03687 12.0747V12.1323L2.02466 12.1131C2.02794 12.1001 2.03202 12.0872 2.03687 12.0747Z" fill="#FEFEFE"/>
<path d="M10.2233 3.62646C10.0837 3.91077 9.82889 3.73461 9.62817 3.77647C9.82717 3.69624 10.0436 3.74856 10.2233 3.62646Z" fill="#FEFEFE"/>
<path d="M12.4121 18.2846V18.3177C12.4069 18.3128 12.4027 18.3069 12.3998 18.3003C12.3645 18.2329 12.3523 18.1557 12.365 18.0806C12.365 16.5403 12.365 15.001 12.365 13.463C12.3488 13.3805 12.3651 13.295 12.4103 13.2241C12.4127 14.9121 12.4132 16.5989 12.4121 18.2846Z" fill="#FEFEFE"/>
<path d="M2.03496 21.0552V21.1669C2.03496 21.4389 2.03496 21.711 2.03496 21.9831C1.95817 21.7459 2.01576 21.5 1.99657 21.2593C1.99657 21.2139 2.01576 21.1686 2.02624 21.125C2.0367 21.0814 2.02798 21.0691 2.03496 21.0552Z" fill="#FEFEFE"/>
<path d="M9.90039 19.4075C9.90039 17.8962 9.89574 16.3849 9.88643 14.8736C9.88643 14.6992 9.94924 14.4568 9.62817 14.4742C9.90741 14.3591 9.93004 14.5248 9.93004 14.7376C9.93004 15.6844 9.93004 16.6313 9.93004 17.5782C9.92131 18.1833 9.9632 18.7884 9.90039 19.4075Z" fill="#FEFEFE"/>
<path d="M2.03448 16.98V21.166C2.02719 21.1528 2.02135 21.1388 2.01703 21.1242C1.97482 20.9531 1.96593 20.7754 1.99085 20.6009C1.99085 19.455 1.99085 18.3091 1.99085 17.1649C1.9926 17.0934 1.98039 16.987 2.03448 16.98Z" fill="#FEFEFE"/>
<path d="M2.03405 16.98V21.1651C2.03405 21.4372 2.03405 21.7092 2.03405 21.9812C1.95727 21.7441 2.01486 21.4982 1.99566 21.2575C1.99566 21.2122 2.01486 21.1669 2.02533 21.1233C1.98312 20.9522 1.97423 20.7746 1.99915 20.6002C1.99915 19.4545 1.99915 18.3088 1.99915 17.1649C1.99217 17.0934 1.97996 16.987 2.03405 16.98Z" fill="#FEFEFE"/>
<path d="M2.03687 12.0747V12.1323L2.02466 12.1131C2.02794 12.1001 2.03202 12.0872 2.03687 12.0747Z" fill="#FEFEFE"/>
<path d="M12.4013 22.7279C12.4013 22.8743 12.4588 23.0365 12.3297 23.1638C12.3297 21.6328 12.3158 20.1017 12.314 18.5707C12.314 15.0365 12.314 11.5013 12.314 7.96484C12.4745 8.07643 12.4013 8.24556 12.403 8.38685C12.403 9.99635 12.403 11.6059 12.403 13.2154C12.403 14.9034 12.403 16.5891 12.403 18.2725V18.3056C12.4053 19.7844 12.4047 21.2584 12.4013 22.7279Z" fill="#FEFEFE"/>
<path d="M9.97545 19.2299C9.97545 19.2979 9.97545 19.3694 9.90039 19.4042C9.90039 17.8929 9.89574 16.3816 9.88643 14.8703C9.88643 14.696 9.94924 14.4536 9.62817 14.471C9.7573 14.4257 9.97717 14.0874 9.97717 14.5425C9.98068 16.1032 9.97545 17.6674 9.97545 19.2299Z" fill="#FEFEFE"/>
<path d="M17.4068 1.61023C17.1608 1.61023 16.9304 1.58755 16.7471 1.83697C16.6092 2.0236 16.4661 1.76197 16.3038 1.75848C16.2815 1.75823 16.2595 1.76299 16.2393 1.77244C16.5185 1.57011 16.8763 1.59802 17.18 1.45325C17.2672 1.41313 17.4487 1.38871 17.4068 1.61023Z" fill="#FEFEFE"/>
<path d="M10.2233 3.62643C10.0837 3.91073 9.82889 3.73457 9.62817 3.77643C9.71105 3.71063 9.80697 3.66322 9.90963 3.63736C10.0122 3.6115 10.1192 3.60777 10.2233 3.62643Z" fill="#FEFEFE"/>
<path d="M15.427 2.15991C15.3382 2.13553 15.2478 2.11746 15.1565 2.10584C15.2788 2.00456 15.4339 1.95124 15.5928 1.95584C15.5928 2.06747 15.6958 2.25584 15.427 2.15991Z" fill="#FEFEFE"/>
</svg>
