<svg width="94" height="35" viewBox="0 0 94 35" fill="none" xmlns="http://www.w3.org/2000/svg">
<path d="M20.6188 21.0396V8.5122H20.5718L16.1615 21.0396H11.5634L7.15303 8.5122H7.10611V21.0396H1.85119V4.28949H10.0151L13.839 15.3389H13.8859L17.7098 4.28949H25.8737V21.0396H20.6188ZM29.2511 21.0396V4.28949H46.0246V7.90225H34.8345V10.9285H45.3208V14.4005H34.8345V17.4268H46.0246V21.0396H29.2511ZM59.9696 9.19252C59.8602 8.50438 59.5083 8.01173 58.914 7.71457C58.3196 7.40178 57.4595 7.24539 56.3334 7.24539C55.395 7.24539 54.6756 7.38614 54.1751 7.66765C53.6747 7.93353 53.4244 8.34016 53.4244 8.88755C53.4244 9.40366 53.7685 9.73209 54.4567 9.87285C55.1604 10.0136 55.7078 10.1074 56.0988 10.1544L58.1163 10.4828C58.9296 10.6079 59.6803 10.7174 60.3684 10.8112L62.0106 11.0693C63.7935 11.3977 65.0682 11.9451 65.8345 12.7114C66.6165 13.4778 67.0075 14.5178 67.0075 15.8315C67.0075 17.677 66.2255 19.0924 64.6615 20.0777C63.0976 21.063 60.6578 21.5557 57.3422 21.5557C55.0431 21.5557 53.1977 21.3758 51.8057 21.0161C50.4138 20.6407 49.3269 20.0464 48.5449 19.2332C47.7629 18.4043 47.325 17.286 47.2311 15.8785H53.8467C53.9249 16.6448 54.2612 17.1844 54.8555 17.4972C55.4498 17.7943 56.3647 17.9429 57.6002 17.9429C58.5699 17.9429 59.2971 17.7943 59.782 17.4972C60.2824 17.2 60.5327 16.7621 60.5327 16.1834C60.5327 15.7455 60.3372 15.4249 59.9462 15.2216C59.5552 15.0183 58.867 14.8384 57.8817 14.682L52.2984 13.8375C50.5937 13.5873 49.366 13.0555 48.6153 12.2423C47.8802 11.4133 47.5127 10.3655 47.5127 9.09868C47.5127 8.61385 47.5987 8.08993 47.7707 7.5269C47.9584 6.96387 48.3025 6.4243 48.8029 5.90819C49.319 5.37645 49.9759 4.95418 50.7735 4.64138C51.5868 4.31295 52.4313 4.08618 53.3071 3.96106C54.183 3.83594 55.1526 3.77338 56.2161 3.77338C59.5161 3.77338 61.9793 4.21911 63.6058 5.11057C65.2324 6.00203 66.1317 7.36268 66.3037 9.19252H59.9696Z" fill="white"/>
<path d="M5.15165 25.7326H6.44768V28.9795H5.59275V26.3783H5.58366L4.55593 28.9795H3.81924L2.79151 26.3783H2.78242V28.9795H1.92749V25.7326H3.22352L4.18759 28.07L5.15165 25.7326ZM7.15655 28.2064H8.03876V28.9795H7.15655V28.2064ZM8.74869 25.7326H10.7723C11.2968 25.7326 11.6939 25.8721 11.9638 26.151C12.2336 26.4299 12.3685 26.8316 12.3685 27.356C12.3685 27.8745 12.2351 28.2746 11.9683 28.5566C11.7045 28.8385 11.3317 28.9795 10.8496 28.9795H8.74869V25.7326ZM9.6309 28.361H10.6132C10.9072 28.361 11.121 28.2762 11.2543 28.1064C11.3908 27.9336 11.459 27.6729 11.459 27.3242C11.459 26.9907 11.3802 26.7452 11.2225 26.5875C11.0679 26.4299 10.8375 26.3511 10.5313 26.3511H9.6309V28.361ZM14.5574 25.7326H17.5905V26.3511H15.4396V27.0241H17.4814V27.6153H15.4396V28.361H17.6087V28.9795H14.5574V25.7326ZM20.8343 25.7326H21.6893V28.9795H20.7297L18.9608 26.7149H18.9517V28.9795H18.0968V25.7326H19.1199L20.8252 27.9972H20.8343V25.7326ZM21.8974 25.7326H22.8661L23.8074 28.2064L24.7487 25.7326H25.7173L24.2758 28.9795H23.339L21.8974 25.7326ZM25.926 25.7326H26.8082V28.9795H25.926V25.7326ZM27.4271 25.7326H29.7872C30.1358 25.7326 30.3981 25.8129 30.5739 25.9736C30.7497 26.1343 30.8377 26.348 30.8377 26.6148C30.8377 26.8179 30.7952 26.9832 30.7103 27.1105C30.6285 27.2348 30.4951 27.3303 30.3101 27.397V27.4061C30.4557 27.4303 30.5663 27.5167 30.6421 27.6653C30.7179 27.8138 30.7558 28.0169 30.7558 28.2746C30.7558 28.4444 30.7694 28.5899 30.7967 28.7112C30.824 28.8325 30.8665 28.9219 30.9241 28.9795H29.96C29.9266 28.9249 29.9039 28.8597 29.8918 28.784C29.8797 28.7051 29.8736 28.5626 29.8736 28.3565C29.8736 28.1594 29.8357 28.0154 29.7599 27.9245C29.6871 27.8335 29.5689 27.7881 29.4052 27.7881H28.3093V28.9795H27.4271V25.7326ZM28.3093 27.1696H29.478C29.5992 27.1696 29.6993 27.1347 29.7781 27.065C29.86 26.9922 29.9009 26.8892 29.9009 26.7558C29.9009 26.6224 29.8584 26.5223 29.7735 26.4556C29.6887 26.3859 29.575 26.3511 29.4325 26.3511H28.3093V27.1696ZM35.1558 27.356C35.1558 27.9108 34.9845 28.3353 34.6419 28.6293C34.2993 28.9234 33.7976 29.0704 33.1367 29.0704C32.4758 29.0704 31.974 28.9234 31.6315 28.6293C31.2889 28.3322 31.1176 27.9078 31.1176 27.356C31.1176 26.8043 31.2889 26.3814 31.6315 26.0873C31.974 25.7902 32.4758 25.6417 33.1367 25.6417C33.7976 25.6417 34.2993 25.7902 34.6419 26.0873C34.9845 26.3814 35.1558 26.8043 35.1558 27.356ZM34.219 27.356C34.219 27.0408 34.1235 26.78 33.9325 26.5739C33.7445 26.3647 33.4793 26.2601 33.1367 26.2601C32.7941 26.2601 32.5273 26.3647 32.3363 26.5739C32.1484 26.78 32.0544 27.0408 32.0544 27.356C32.0574 27.6774 32.1529 27.9412 32.3409 28.1473C32.5288 28.3504 32.7941 28.452 33.1367 28.452C33.4793 28.452 33.7445 28.3504 33.9325 28.1473C34.1205 27.9412 34.2159 27.6774 34.219 27.356ZM38.3314 25.7326H39.1863V28.9795H38.2268L36.4579 26.7149H36.4488V28.9795H35.5938V25.7326H36.617L38.3223 27.9972H38.3314V25.7326ZM43.028 25.7326H44.324V28.9795H43.4691V26.3783H43.46L42.4322 28.9795H41.6955L40.6678 26.3783H40.6587V28.9795H39.8038V25.7326H41.0998L42.0639 28.07L43.028 25.7326ZM44.9419 25.7326H47.9751V26.3511H45.8241V27.0241H47.8659V27.6153H45.8241V28.361H47.9933V28.9795H44.9419V25.7326ZM51.2189 25.7326H52.0738V28.9795H51.1143L49.3453 26.7149H49.3362V28.9795H48.4813V25.7326H49.5045L51.2098 27.9972H51.2189V25.7326ZM53.7099 27.8472L52.2729 25.7326H53.3097L54.151 27.1469L54.9923 25.7326H56.0291L54.5921 27.8472V28.9795H53.7099V27.8472ZM58.226 28.311H56.7344L56.4707 28.9795H55.5202L56.9481 25.7326H58.0122L59.4402 28.9795H58.4897L58.226 28.311ZM57.4802 26.4329L56.9709 27.7198H57.9895L57.4802 26.4329ZM59.6856 25.7326H60.5679V28.3338H62.546V28.9795H59.6856V25.7326ZM66.847 26.6739C66.8258 26.5193 66.7545 26.4026 66.6332 26.3238C66.515 26.2449 66.3149 26.2055 66.033 26.2055C65.8511 26.2055 65.7056 26.2419 65.5964 26.3147C65.4873 26.3874 65.4327 26.4784 65.4327 26.5875C65.4327 26.6754 65.4661 26.7452 65.5328 26.7967C65.5995 26.8452 65.6904 26.877 65.8056 26.8922L66.9106 27.0696C67.2714 27.1272 67.5352 27.2302 67.7019 27.3788C67.8686 27.5243 67.952 27.7244 67.952 27.979C67.952 28.3398 67.808 28.6127 67.52 28.7976C67.235 28.9795 66.8167 29.0704 66.2649 29.0704C65.8132 29.0704 65.4585 29.031 65.2008 28.9522C64.9461 28.8704 64.7551 28.7461 64.6278 28.5793C64.5005 28.4126 64.4368 28.2049 64.4368 27.9563H65.4282C65.4342 28.1261 65.5024 28.2564 65.6328 28.3474C65.7662 28.4353 65.9769 28.4793 66.2649 28.4793C66.4832 28.4793 66.653 28.4459 66.7742 28.3792C66.8985 28.3125 66.9607 28.211 66.9607 28.0745C66.9607 27.9533 66.9137 27.8684 66.8197 27.8199C66.7257 27.7684 66.5893 27.7289 66.4104 27.7017L65.6055 27.5789C65.1841 27.5182 64.8931 27.4121 64.7324 27.2605C64.5748 27.1059 64.4959 26.9058 64.4959 26.6603C64.4959 26.3207 64.6263 26.0661 64.887 25.8963C65.1508 25.7265 65.557 25.6417 66.1057 25.6417C66.6727 25.6417 67.0956 25.7296 67.3745 25.9054C67.6534 26.0782 67.8035 26.3344 67.8247 26.6739H66.847ZM68.3587 25.7326H71.3919V26.3511H69.2409V27.0241H71.2827V27.6153H69.2409V28.361H71.41V28.9795H68.3587V25.7326ZM71.8981 25.7326H74.2582C74.6069 25.7326 74.8691 25.8129 75.0449 25.9736C75.2208 26.1343 75.3087 26.348 75.3087 26.6148C75.3087 26.8179 75.2662 26.9832 75.1814 27.1105C75.0995 27.2348 74.9661 27.3303 74.7812 27.397V27.4061C74.9267 27.4303 75.0373 27.5167 75.1131 27.6653C75.1889 27.8138 75.2268 28.0169 75.2268 28.2746C75.2268 28.4444 75.2405 28.5899 75.2678 28.7112C75.295 28.8325 75.3375 28.9219 75.3951 28.9795H74.431C74.3977 28.9249 74.3749 28.8597 74.3628 28.784C74.3507 28.7051 74.3446 28.5626 74.3446 28.3565C74.3446 28.1594 74.3067 28.0154 74.2309 27.9245C74.1582 27.8335 74.0399 27.7881 73.8762 27.7881H72.7803V28.9795H71.8981V25.7326ZM72.7803 27.1696H73.949C74.0703 27.1696 74.1703 27.1347 74.2491 27.065C74.331 26.9922 74.3719 26.8892 74.3719 26.7558C74.3719 26.6224 74.3295 26.5223 74.2446 26.4556C74.1597 26.3859 74.046 26.3511 73.9035 26.3511H72.7803V27.1696ZM75.2813 25.7326H76.2499L77.1913 28.2064L78.1326 25.7326H79.1012L77.6596 28.9795H76.7229L75.2813 25.7326ZM79.3099 25.7326H80.1921V28.9795H79.3099V25.7326ZM83.5531 26.9604C83.5136 26.7452 83.4106 26.5754 83.2438 26.4511C83.0801 26.3238 82.874 26.2601 82.6254 26.2601C82.298 26.2601 82.0463 26.3602 81.8705 26.5602C81.6977 26.7573 81.6113 27.0226 81.6113 27.356C81.6113 27.6865 81.6977 27.9518 81.8705 28.1519C82.0433 28.3519 82.2949 28.452 82.6254 28.452C82.8709 28.452 83.0771 28.3883 83.2438 28.261C83.4136 28.1337 83.5167 27.9578 83.5531 27.7335H84.5126C84.4641 28.164 84.2761 28.4944 83.9487 28.7248C83.6213 28.9552 83.1696 29.0704 82.5935 29.0704C81.9508 29.0704 81.4703 28.9249 81.152 28.6339C80.8337 28.3398 80.6745 27.9139 80.6745 27.356C80.6745 26.7982 80.8337 26.3738 81.152 26.0828C81.4703 25.7917 81.9508 25.6447 82.5935 25.6417C83.1847 25.6447 83.6379 25.7584 83.9532 25.9827C84.2685 26.204 84.4519 26.5299 84.5035 26.9604H83.5531ZM84.9365 25.7326H87.9697V26.3511H85.8187V27.0241H87.8605V27.6153H85.8187V28.361H87.9879V28.9795H84.9365V25.7326ZM90.6723 26.6739C90.6511 26.5193 90.5799 26.4026 90.4586 26.3238C90.3404 26.2449 90.1403 26.2055 89.8583 26.2055C89.6764 26.2055 89.5309 26.2419 89.4218 26.3147C89.3126 26.3874 89.2581 26.4784 89.2581 26.5875C89.2581 26.6754 89.2914 26.7452 89.3581 26.7967C89.4248 26.8452 89.5158 26.877 89.631 26.8922L90.736 27.0696C91.0968 27.1272 91.3605 27.2302 91.5272 27.3788C91.694 27.5243 91.7774 27.7244 91.7774 27.979C91.7774 28.3398 91.6334 28.6127 91.3454 28.7976C91.0604 28.9795 90.642 29.0704 90.0903 29.0704C89.6385 29.0704 89.2838 29.031 89.0261 28.9522C88.7715 28.8704 88.5805 28.7461 88.4532 28.5793C88.3258 28.4126 88.2622 28.2049 88.2622 27.9563H89.2535C89.2596 28.1261 89.3278 28.2564 89.4582 28.3474C89.5915 28.4353 89.8022 28.4793 90.0903 28.4793C90.3085 28.4793 90.4783 28.4459 90.5996 28.3792C90.7239 28.3125 90.786 28.211 90.786 28.0745C90.786 27.9533 90.739 27.8684 90.645 27.8199C90.5511 27.7684 90.4146 27.7289 90.2358 27.7017L89.4309 27.5789C89.0095 27.5182 88.7184 27.4121 88.5578 27.2605C88.4001 27.1059 88.3213 26.9058 88.3213 26.6603C88.3213 26.3207 88.4516 26.0661 88.7124 25.8963C88.9761 25.7265 89.3824 25.6417 89.9311 25.6417C90.498 25.6417 90.9209 25.7296 91.1998 25.9054C91.4787 26.0782 91.6288 26.3344 91.65 26.6739H90.6723ZM41.7112 30.7326H42.5934V33.3338H44.5715V33.9795H41.7112V30.7326ZM44.993 30.7326H45.8752V33.3338H47.8533V33.9795H44.993V30.7326ZM51.0169 31.9604C50.9775 31.7452 50.8744 31.5754 50.7077 31.4511C50.544 31.3238 50.3378 31.2601 50.0892 31.2601C49.7618 31.2601 49.5102 31.3602 49.3344 31.5602C49.1615 31.7573 49.0751 32.0226 49.0751 32.356C49.0751 32.6865 49.1615 32.9518 49.3344 33.1519C49.5072 33.3519 49.7588 33.452 50.0892 33.452C50.3348 33.452 50.5409 33.3883 50.7077 33.261C50.8775 33.1337 50.9805 32.9578 51.0169 32.7335H51.9764C51.9279 33.164 51.74 33.4944 51.4125 33.7248C51.0851 33.9552 50.6334 34.0704 50.0574 34.0704C49.4147 34.0704 48.9342 33.9249 48.6159 33.6339C48.2975 33.3398 48.1384 32.9139 48.1384 32.356C48.1384 31.7982 48.2975 31.3738 48.6159 31.0828C48.9342 30.7917 49.4147 30.6447 50.0574 30.6417C50.6486 30.6447 51.1018 30.7584 51.4171 30.9827C51.7324 31.204 51.9158 31.5299 51.9673 31.9604H51.0169Z" fill="white"/>
</svg>
