<svg width="166" height="24" viewBox="0 0 166 24" fill="none" xmlns="http://www.w3.org/2000/svg">
<path d="M128.936 15.8754V10.4937C128.936 7.5632 128.952 4.63484 128.923 1.70649C128.923 1.16129 129.068 0.996075 129.611 1.01673C130.644 1.05596 131.675 1.05596 132.708 1.01673C133.21 0.996075 133.368 1.12411 133.368 1.63626C133.353 8.59853 133.353 15.5607 133.368 22.5231C133.368 22.9732 133.224 23.0827 132.799 23.0724C131.717 23.0476 130.633 23.0311 129.553 23.0724C129.03 23.0951 128.78 22.8658 128.52 22.4693C125.437 17.8049 122.345 13.1467 119.244 8.49458C119.176 8.40746 119.103 8.32596 119.022 8.25089C118.775 8.52349 118.913 8.81261 118.913 9.07695C118.913 13.4963 118.888 17.9157 118.913 22.333C118.913 22.9526 118.736 23.1034 118.149 23.0786C117.093 23.0331 116.035 23.0497 114.979 23.0786C114.592 23.0786 114.451 22.9939 114.451 22.5747C114.463 15.5615 114.463 8.54827 114.451 1.53508C114.451 1.12205 114.571 1.0126 114.973 1.02292C116.082 1.04977 117.191 1.0539 118.298 1.02292C118.486 1.00411 118.676 1.04131 118.843 1.12985C119.01 1.21839 119.147 1.35434 119.237 1.52062C121.802 5.42235 124.374 9.31719 126.953 13.2051C127.54 14.1138 128.16 15.0183 128.778 15.927L128.936 15.8754Z" fill="#FEFEFE"/>
<path d="M10.2432 10.946C10.2268 11.1236 10.2432 11.3053 10.2432 11.4851C10.2432 13.3441 10.2432 13.3441 8.34321 13.3441C6.39979 13.3441 6.39979 13.3441 6.40392 11.3962C6.40392 10.2767 6.40392 10.2767 7.55221 10.2767C8.22136 10.2767 8.89051 10.2952 9.55966 10.2767C10.0553 10.2622 10.2887 10.4377 10.2432 10.946Z" fill="#FEFEFE"/>
<path d="M17.7183 10.95C17.6377 11.5608 17.6377 12.1797 17.7183 12.7904C17.7802 13.3233 17.5571 13.3854 17.1317 13.3605C16.7063 13.3357 16.3056 13.3605 15.8926 13.3605C13.9594 13.3605 13.9532 13.3605 13.9615 11.4457C13.9615 10.13 13.819 10.3076 15.1077 10.2931C15.75 10.2931 16.3944 10.3118 17.0367 10.2931C17.5303 10.2621 17.8112 10.32 17.7183 10.95Z" fill="#FEFEFE"/>
<path d="M22.4117 13.1488C22.1659 13.091 21.8542 13.1116 21.8109 12.7853C21.7027 12.1332 21.7083 11.4674 21.8273 10.8172C21.943 10.3051 22.5686 10.6107 22.8597 10.3216C22.8783 10.3051 22.8948 10.2865 22.9134 10.2679C22.7621 9.36112 22.5194 8.472 22.1887 7.61421C20.2209 2.94701 15.8146 0.375915 10.5349 0.819919C5.61446 1.23501 1.69751 4.59911 0.65272 9.55544C-0.26612 13.8922 0.832359 17.754 4.29092 20.6534C7.74947 23.553 11.7758 24.094 15.9612 22.5328C20.0206 21.0087 22.23 17.88 22.9506 13.6692C23.0703 13.188 22.6904 13.2128 22.4117 13.1488ZM16.1264 17.8015C13.9873 19.6457 11.4847 19.8232 8.94706 18.8341C6.36605 17.8305 5.27583 15.6579 4.99089 13.0517C4.80712 11.3727 4.99089 9.71444 5.77345 8.17386C7.15687 5.47886 10.2004 4.17163 13.3947 4.90269C16.2172 5.54702 18.218 7.96942 18.4183 11.001C18.439 11.3335 18.4183 11.6701 18.4183 12.0026C18.4679 14.2433 17.8753 16.2919 16.1264 17.8015Z" fill="#FEFEFE"/>
<path d="M97.3396 12.7508C97.3628 13.23 97.1721 13.3911 96.7095 13.3704C96.2477 13.3498 95.8359 13.3704 95.4 13.3704C93.4863 13.3704 93.4863 13.3704 93.4863 11.4495C93.4863 10.301 93.4863 10.301 94.6014 10.303C95.2955 10.303 95.9895 10.3196 96.6808 10.303C97.1398 10.2886 97.3443 10.4683 97.3332 10.9228C97.3193 11.5218 97.3063 12.1373 97.3396 12.7508Z" fill="#FEFEFE"/>
<path d="M104.903 10.9663C104.878 11.5861 104.882 12.2057 104.903 12.813C104.916 13.2075 104.779 13.377 104.37 13.3562C103.907 13.3336 103.444 13.3562 102.98 13.3562C101.057 13.3562 101.057 13.3562 101.057 11.4683C101.057 10.291 101.057 10.291 102.228 10.291C102.899 10.291 103.568 10.3116 104.237 10.291C104.75 10.26 104.923 10.4788 104.903 10.9663Z" fill="#FEFEFE"/>
<path d="M109.819 13.147C108.866 12.9755 108.866 12.9755 108.862 12.007C108.871 11.8289 108.871 11.6503 108.862 11.4722C108.798 10.8237 109.004 10.4602 109.739 10.4768C110.262 10.4892 110.584 10.2537 110.324 9.65075C110.14 9.03116 110.004 8.41162 109.762 7.82099C108.11 3.80843 105.12 1.41908 100.804 0.875943C96.1813 0.297705 92.401 1.87134 89.7085 5.74553C88.8888 6.9149 88.3297 8.24662 88.069 9.65075C87.7634 10.4768 88.3746 10.4623 88.8805 10.4933C89.7663 10.5469 89.5412 11.2182 89.5 11.6869C89.4628 12.2073 89.9005 12.9859 88.8805 13.118C87.8605 13.2503 87.8481 13.3246 88.0773 14.415C88.281 15.3675 88.5991 16.2918 89.0251 17.1678C91.2426 21.4943 95.7752 23.8258 100.776 23.2145C105.558 22.6301 109.211 19.264 110.315 14.4191C110.515 13.4052 110.461 13.2729 109.819 13.147ZM104.527 16.8167C102.856 19.0636 100.506 19.7079 97.8337 19.2432C95.0027 18.7559 93.4021 16.9406 92.6962 14.2539C92.5037 13.5069 92.4177 12.7367 92.4399 11.9657C92.4714 9.46484 93.1921 7.25927 95.3764 5.81161C96.3266 5.1635 97.4266 4.76972 98.572 4.66789C99.7183 4.56605 100.87 4.75954 101.92 5.22991C102.969 5.70026 103.881 6.43179 104.567 7.35467C105.254 8.27754 105.692 9.36096 105.841 10.5015C106.163 12.7587 105.925 14.9395 104.527 16.8167Z" fill="#FEFEFE"/>
<path d="M72.2381 7.02587C71.9547 7.00933 71.6706 7.00933 71.3874 7.02587C70.4933 7.13119 69.942 6.99076 69.529 5.95613C68.8269 4.21108 65.6162 3.84143 64.2988 5.20235C64.0774 5.44464 63.907 5.72904 63.7978 6.03861C63.6887 6.34817 63.643 6.67655 63.6633 7.00417C63.6838 7.33179 63.7699 7.65194 63.9167 7.94554C64.0636 8.23914 64.2679 8.50018 64.5177 8.71308C65.6306 9.61557 67.0264 9.85718 68.3356 10.2991C69.3101 10.6274 70.2992 10.9186 71.2449 11.3193C73.2683 12.166 74.7096 13.5434 74.9615 15.8337C75.2237 18.2849 74.4494 20.3439 72.4032 21.8226C70.2393 23.3776 67.7801 23.549 65.2466 23.1546C63.1405 22.8263 61.3234 21.9671 60.0474 20.1725C59.4722 19.3183 59.1174 18.335 59.015 17.3102C58.9613 16.9137 59.0605 16.7506 59.492 16.7568C60.7535 16.7774 62.0172 16.7754 63.2808 16.7568C63.6298 16.7568 63.7579 16.8518 63.8198 17.2111C64.0263 18.4336 64.7242 19.2762 65.9692 19.5447C67.3506 19.8338 68.7114 19.807 69.7912 18.7186C70.7596 17.7459 70.6171 16.0464 69.5475 15.1542C68.5275 14.3034 67.2598 14.0185 66.0374 13.6508C64.9234 13.3382 63.8269 12.9666 62.7523 12.5378C60.6214 11.6477 59.2422 10.1772 59.0914 7.75898C58.9262 5.19822 59.7975 3.08765 62.1123 1.91258C65.4159 0.231567 68.8105 0.217111 72.0502 2.19345C73.607 3.14341 74.4246 4.63444 74.7199 6.4249C74.8004 6.91022 74.6766 7.06923 74.179 7.04445C73.5285 6.99901 72.8823 7.02587 72.2381 7.02587Z" fill="#FEFEFE"/>
<path d="M36.0491 18.56C36.4228 17.4965 36.7387 16.6126 37.0464 15.7266C38.6721 11.025 40.2916 6.32134 41.9049 1.61559C42.0433 1.21495 42.194 1.03115 42.6462 1.04355C43.8314 1.07452 45.0186 1.07659 46.2018 1.04355C46.7819 1.02496 46.7675 1.25006 46.6044 1.67754C45.1343 5.64535 43.671 9.61595 42.2146 13.5892C41.1244 16.5506 40.0156 19.5058 38.9502 22.4694C38.7808 22.9422 38.564 23.0889 38.0726 23.0889C36.7085 23.0544 35.3429 23.0544 33.9761 23.0889C33.4928 23.1013 33.2699 22.9712 33.0944 22.492C30.5561 15.5326 27.997 8.57991 25.4174 1.63417C25.2109 1.09311 25.3576 1.04355 25.8303 1.05387C26.9887 1.07865 28.1491 1.08898 29.3075 1.05387C29.8175 1.03529 30.0322 1.2356 30.1851 1.67341C31.8245 6.42322 33.4708 11.173 35.124 15.9229C35.4193 16.7241 35.6981 17.5419 36.0491 18.56Z" fill="#FEFEFE"/>
<path d="M138.367 12.0707C138.367 8.62818 138.381 5.18559 138.35 1.74508C138.35 1.15652 138.513 1.01402 139.083 1.01815C142.899 1.04293 146.714 1.04293 150.528 1.01815C151.08 1.01815 151.239 1.18336 151.212 1.70997C151.168 2.47963 151.168 3.25121 151.212 4.02086C151.247 4.56606 151.016 4.66105 150.541 4.65899C148.168 4.6404 145.792 4.65899 143.426 4.63627C142.92 4.63627 142.779 4.76637 142.794 5.2682C142.829 6.65597 142.831 8.04375 142.794 9.42945C142.779 9.9808 142.891 10.1749 143.498 10.1605C145.533 10.1171 147.57 10.1605 149.608 10.1337C150.118 10.1337 150.279 10.2679 150.25 10.7759C150.206 11.4939 150.206 12.214 150.25 12.9319C150.285 13.4916 150.14 13.6775 149.538 13.6651C147.501 13.6237 145.463 13.6651 143.428 13.6361C142.911 13.6361 142.783 13.7848 142.794 14.2784C142.825 15.7942 142.826 17.3121 142.794 18.8217C142.781 19.3504 142.91 19.5177 143.465 19.5093C145.786 19.4763 148.106 19.5217 150.425 19.4784C151.094 19.466 151.251 19.6849 151.214 20.3045C151.173 21.0487 151.173 21.7946 151.214 22.5389C151.226 22.9189 151.142 23.08 150.714 23.0779C146.77 23.0628 142.826 23.0628 138.88 23.0779C138.288 23.0779 138.369 22.7495 138.369 22.3923C138.369 18.9545 138.368 15.5141 138.367 12.0707Z" fill="#FEFEFE"/>
<path d="M50.1095 12.0339C50.1095 8.59133 50.124 5.14875 50.093 1.70824C50.093 1.15272 50.2437 1.01435 50.7702 1.035C51.7738 1.07218 52.7814 1.07837 53.7849 1.035C54.3836 1.01022 54.5592 1.18163 54.5571 1.80323C54.5303 7.99863 54.5406 14.1941 54.5406 20.3771C54.5406 21.0462 54.5076 21.7153 54.5406 22.3802C54.5737 22.8944 54.458 23.1051 53.8861 23.0782C52.8309 23.0307 51.7717 23.0349 50.7166 23.0782C50.1983 23.0989 50.0848 22.9316 50.0971 22.4401C50.124 18.9749 50.1095 15.5075 50.1095 12.0339Z" fill="#FEFEFE"/>
<path d="M79.5017 12.0674C79.5017 8.62477 79.5017 5.18425 79.4893 1.74167C79.4893 1.22126 79.6029 1.01268 80.1665 1.03539C81.168 1.07876 82.1756 1.08083 83.1791 1.03539C83.7779 1.00855 83.9658 1.17789 83.9596 1.7995C83.9265 5.37011 83.9389 8.93866 83.9369 12.5093C83.9369 15.8135 83.9245 19.1343 83.9493 22.4468C83.9493 22.9486 83.8233 23.1013 83.3153 23.0807C82.2603 23.0415 81.201 23.0353 80.1459 23.0807C79.576 23.1075 79.4872 22.8969 79.4914 22.3868C79.514 18.9484 79.5017 15.5078 79.5017 12.0674Z" fill="#FEFEFE"/>
<path d="M163.004 4.92596C163.58 3.64971 164.111 2.48704 164.626 1.3161C164.757 1.01872 164.862 0.756451 165.269 0.803949C165.761 0.863838 165.548 1.22937 165.552 1.45859C165.573 2.74105 165.562 4.02556 165.552 5.31007C165.552 5.55789 165.624 5.83255 165.194 5.80777C164.799 5.78712 164.914 5.51452 164.911 5.3142C164.911 4.36631 164.911 3.41635 164.911 2.33628C164.402 2.95582 164.259 3.63525 163.947 4.22382C163.756 4.58521 163.609 4.96932 163.426 5.33485C163.33 5.52279 163.352 5.80777 163.012 5.80571C162.672 5.80364 162.667 5.55789 162.574 5.35344C162.142 4.34943 161.645 3.37528 161.084 2.43748C161.084 3.36265 161.096 4.29609 161.084 5.20888C161.084 5.43605 161.29 5.82842 160.757 5.80364C160.224 5.77886 160.458 5.40713 160.454 5.1841C160.434 3.94501 160.434 2.71282 160.454 1.48751C160.454 1.25209 160.248 0.884489 160.695 0.797754C161.143 0.711018 161.249 1.02698 161.391 1.34914C161.891 2.49943 162.42 3.63732 163.004 4.92596Z" fill="#FEFEFE"/>
<path d="M110.314 14.4276C110.349 13.3662 110.349 13.3352 109.244 13.358C108.713 13.3682 108.572 13.1721 108.624 12.6909C108.658 12.3646 108.624 12.03 108.624 11.6976C108.624 10.4048 108.624 10.3634 109.882 10.3263C110.48 10.3098 110.235 9.91326 110.317 9.65723C110.497 9.77493 110.487 9.96286 110.491 10.1384C110.507 11.2825 110.534 12.4265 110.52 13.5706C110.518 13.8556 110.609 14.1964 110.314 14.4276Z" fill="#FEFEFE"/>
<path d="M88.0663 9.65918C87.9961 10.2416 88.2852 10.4109 88.8159 10.3097C89.586 10.1631 89.8792 10.4625 89.7719 11.2472C89.7226 11.7278 89.7226 12.2122 89.7719 12.6929C89.8049 13.1616 89.6975 13.3661 89.1524 13.3537C88.0622 13.3269 88.0622 13.3537 88.0746 14.4193C87.7896 14.1261 87.8784 13.7502 87.8682 13.4094C87.8682 12.3955 87.8826 11.3795 87.895 10.3634C87.9074 10.1197 87.8351 9.85535 88.0663 9.65918Z" fill="#FEFEFE"/>
<path d="M22.9541 13.6705C22.8715 13.2057 22.4936 13.3193 22.2272 13.3544C21.6241 13.435 21.4754 13.183 21.527 12.6314C21.5744 12.1506 21.5744 11.6664 21.527 11.1856C21.4588 10.5184 21.6447 10.1775 22.3799 10.3056C22.5583 10.3164 22.7373 10.3046 22.9128 10.2705C23.1998 10.2705 23.4023 10.3448 23.3981 10.7001C23.3837 11.4644 23.3981 12.2287 23.3981 12.9909C23.3961 13.3131 23.109 13.4474 22.9541 13.6705Z" fill="#FEFEFE"/>
<path d="M157.373 3.54837C157.373 3.21382 157.351 2.87927 157.373 2.54884C157.428 1.7992 157.48 1.08053 156.34 1.30977C156.144 1.349 155.975 1.25607 155.995 1.01651C156.015 0.776959 156.201 0.748047 156.387 0.748047C157.287 0.748047 158.185 0.748047 159.084 0.748047C159.291 0.748047 159.452 0.803806 159.443 1.04336C159.435 1.28292 159.255 1.35107 159.066 1.30977C157.961 1.06608 158.033 1.77236 158.054 2.49928C158.082 3.39348 158.07 4.29182 158.054 5.18396C158.054 5.41938 158.228 5.78491 157.733 5.8035C157.174 5.82002 157.385 5.40906 157.373 5.15505C157.353 4.6243 157.373 4.08531 157.373 3.54837Z" fill="#FEFEFE"/>
<path d="M10.2432 10.946C10.2268 11.1236 10.2432 11.3053 10.2432 11.4851C10.2432 13.3441 10.2432 13.3441 8.34321 13.3441C6.39979 13.3441 6.39979 13.3441 6.40392 11.3962C6.40392 10.2767 6.40392 10.2767 7.55221 10.2767C8.22136 10.2767 8.89051 10.2952 9.55966 10.2767C10.0553 10.2622 10.2887 10.4377 10.2432 10.946Z" fill="#FEFEFE"/>
<path d="M17.7183 12.7901C17.7802 13.323 17.5571 13.3851 17.1317 13.3602C16.7063 13.3354 16.3056 13.3602 15.8926 13.3602C13.9594 13.3602 13.9532 13.3602 13.9615 11.4454C13.9615 10.1297 13.819 10.3073 15.1077 10.2928C15.75 10.2928 16.3944 10.3115 17.0367 10.2928C17.5282 10.2742 17.8091 10.3321 17.7161 10.9621C17.6374 11.569 17.6381 12.1835 17.7183 12.7901Z" fill="#FEFEFE"/>
<path d="M2.67172 11.8278C2.6562 12.0058 2.6562 12.1848 2.67172 12.3628C2.81422 13.1746 2.46519 13.3688 1.67832 13.3708C0.891454 13.3728 0.695253 13.1415 0.786125 12.4248C0.842927 11.9935 0.842927 11.5568 0.786125 11.1255C0.686992 10.4273 0.9658 10.2559 1.62876 10.2992C2.82868 10.3736 2.6614 10.1361 2.67379 11.3775C2.67379 11.5283 2.67172 11.6811 2.67172 11.8278Z" fill="#FEFEFE"/>
<path d="M97.3396 12.7508C97.3628 13.23 97.1721 13.3911 96.7095 13.3704C96.2477 13.3498 95.8359 13.3704 95.4 13.3704C93.4863 13.3704 93.4863 13.3704 93.4863 11.4495C93.4863 10.301 93.4863 10.301 94.6014 10.303C95.2955 10.303 95.9895 10.3196 96.6808 10.303C97.1398 10.2886 97.3443 10.4683 97.3332 10.9228C97.3193 11.5218 97.3063 12.1373 97.3396 12.7508Z" fill="#FEFEFE"/>
<path d="M104.903 12.8129C104.916 13.2075 104.779 13.3768 104.37 13.3562C103.907 13.3334 103.444 13.3562 102.98 13.3562C101.057 13.3562 101.057 13.3562 101.057 11.4682C101.057 10.2908 101.057 10.2908 102.228 10.2908C102.899 10.2908 103.568 10.3115 104.237 10.2908C104.75 10.2702 104.923 10.4974 104.903 10.9766C104.878 11.5819 104.882 12.1995 104.903 12.8129Z" fill="#FEFEFE"/>
<path d="M10.2432 10.946C10.2268 11.1236 10.2432 11.3053 10.2432 11.4851C10.2432 13.3441 10.2432 13.3441 8.34321 13.3441C6.39979 13.3441 6.39979 13.3441 6.40392 11.3962C6.40392 10.2767 6.40392 10.2767 7.55221 10.2767C8.22136 10.2767 8.89051 10.2952 9.55966 10.2767C10.0553 10.2622 10.2887 10.4377 10.2432 10.946Z" fill="#FEFEFE"/>
<path d="M17.7183 12.7901C17.7802 13.323 17.5571 13.3851 17.1317 13.3602C16.7063 13.3354 16.3056 13.3602 15.8926 13.3602C13.9594 13.3602 13.9532 13.3602 13.9615 11.4454C13.9615 10.1297 13.819 10.3073 15.1077 10.2928C15.75 10.2928 16.3944 10.3115 17.0367 10.2928C17.5282 10.2742 17.8091 10.3321 17.7161 10.9621C17.6374 11.569 17.6381 12.1835 17.7183 12.7901Z" fill="#FEFEFE"/>
<path d="M97.3396 12.7508C97.3628 13.23 97.1721 13.3911 96.7095 13.3704C96.2477 13.3498 95.8359 13.3704 95.4 13.3704C93.4863 13.3704 93.4863 13.3704 93.4863 11.4495C93.4863 10.301 93.4863 10.301 94.6014 10.303C95.2955 10.303 95.9895 10.3196 96.6808 10.303C97.1398 10.2886 97.3443 10.4683 97.3332 10.9228C97.3193 11.5218 97.3063 12.1373 97.3396 12.7508Z" fill="#FEFEFE"/>
<path d="M104.903 12.8129C104.916 13.2075 104.779 13.3768 104.37 13.3562C103.907 13.3334 103.444 13.3562 102.98 13.3562C101.057 13.3562 101.057 13.3562 101.057 11.4682C101.057 10.2908 101.057 10.2908 102.228 10.2908C102.899 10.2908 103.568 10.3115 104.237 10.2908C104.75 10.2702 104.923 10.4974 104.903 10.9766C104.878 11.5819 104.882 12.1995 104.903 12.8129Z" fill="#FEFEFE"/>
</svg>
