<svg width="164" height="31" viewBox="0 0 164 31" fill="none" xmlns="http://www.w3.org/2000/svg">
<path d="M31.2487 0.470215C28.4748 0.476974 25.7004 0.476974 22.9255 0.470215C22.5876 0.470215 22.4288 0.586811 22.4508 0.929843C22.4626 1.12248 22.4508 1.31512 22.4508 1.50607C22.4508 11.1617 22.4463 20.8172 22.4373 30.4728H31.7082C31.7082 20.6719 31.7127 10.871 31.7217 1.0701C31.7217 1.02109 31.7217 0.973778 31.7217 0.924774C31.7504 0.586811 31.5832 0.470215 31.2487 0.470215ZM29.2215 28.7559C27.7991 28.712 26.375 28.7272 24.9509 28.7559C24.4982 28.7559 24.3158 28.6528 24.3158 28.1611C24.3293 19.7053 24.3293 11.2501 24.3158 2.7954C24.3158 2.35605 24.4526 2.21072 24.8968 2.21748C26.3682 2.23944 27.8397 2.25127 29.3111 2.21748C29.882 2.20227 29.9868 2.41349 29.9868 2.9272C29.9682 7.12976 29.9766 11.334 29.9766 15.5383C29.9766 19.6935 29.9648 23.8487 29.9901 28.004C29.9868 28.5937 29.8195 28.7728 29.2164 28.7559H29.2215Z" fill="#FEFEFE"/>
<path d="M20.842 7.91538C20.842 7.29185 20.7018 7.09414 20.0463 7.10596C17.803 7.14821 15.5595 7.12286 13.3144 7.12286C11.4461 7.12286 11.4461 7.12286 11.4461 8.99682C11.4393 16.156 11.4331 23.3147 11.4275 30.4727H20.842C20.842 30.329 20.8285 30.1854 20.8285 30.0417C20.8375 22.6663 20.842 15.2909 20.842 7.91538ZM18.2877 28.7541C16.844 28.7192 15.3979 28.7192 13.9496 28.7541C13.4259 28.7659 13.3043 28.5852 13.3077 28.0917C13.3263 25.0196 13.3178 21.9476 13.3178 18.8755C13.3178 15.8034 13.3296 12.7313 13.306 9.65929C13.306 9.12525 13.4479 8.95123 13.9952 8.96474C15.4413 9.00076 16.8879 9.00076 18.3351 8.96474C18.8587 8.95292 18.977 9.1439 18.977 9.63058C18.9635 15.7747 18.9635 21.9188 18.977 28.063C18.9837 28.6004 18.8334 28.7676 18.2877 28.7541Z" fill="#FEFEFE"/>
<path d="M9.86185 15.7139C9.86185 15.0988 9.73177 14.8893 9.07128 14.8977C6.2518 14.9349 3.43065 14.9129 0.609509 14.9112C0.421996 15.0938 0.504772 15.3218 0.504772 15.528C0.504772 20.3225 0.504772 25.1171 0.504772 29.9117C0.504772 30.1009 0.459161 30.297 0.572344 30.4727H9.84159C9.8399 25.5537 9.82977 20.6329 9.86185 15.7139ZM7.30424 28.7541C5.83454 28.717 4.36146 28.7271 2.89007 28.7541C2.44579 28.7541 2.30727 28.6139 2.30895 28.1746C2.32472 24.5696 2.32472 20.9647 2.30895 17.3598C2.30895 16.8664 2.49477 16.7582 2.94751 16.765C4.41946 16.7886 5.89141 16.7886 7.36336 16.765C7.83636 16.7565 7.9884 16.9086 7.98165 17.3801C7.95968 19.1814 7.98165 20.9844 7.98165 22.7874C7.98165 24.5415 7.96475 26.2938 7.99178 28.0478C7.99009 28.5632 7.87184 28.7694 7.30424 28.7541Z" fill="#FEFEFE"/>
<path d="M0.592802 14.9116C0.582666 17.9386 0.57253 20.9645 0.562394 23.9893C0.562394 26.1556 0.562394 28.3118 0.562394 30.4731H0.417113C0.417113 25.5524 0.417113 20.6305 0.417113 15.7075C0.423871 15.4405 0.287037 15.1229 0.592802 14.9116Z" fill="#FEFEFE"/>
<path d="M106.005 10.8405V16.2107C106.005 17.2449 105.99 18.2774 106.013 19.3098C106.013 19.6934 105.947 19.8523 105.506 19.859C104.201 19.8759 104.202 19.8979 104.202 18.5917C104.202 14.7946 104.202 10.9993 104.214 7.20234C104.214 6.93873 103.977 6.55007 104.422 6.39968C105.022 6.1969 105.81 6.43686 106.031 6.86776L109.295 13.2738C109.655 14.0172 110.07 14.7318 110.539 15.4114V14.3147C110.539 11.8882 110.551 9.46163 110.528 7.03505C110.528 6.56021 110.6 6.35913 111.142 6.37772C112.353 6.40982 112.355 6.37772 112.355 7.58424C112.355 11.4049 112.355 15.2256 112.343 19.0445C112.343 19.3098 112.564 19.81 112.113 19.81C111.585 19.81 110.907 20.2003 110.525 19.4163C109.861 18.0644 109.16 16.7228 108.474 15.3776C107.697 13.8534 106.921 12.3293 106.145 10.8051L106.005 10.8405Z" fill="#FEFEFE"/>
<path d="M157.269 10.8323C157.269 13.5935 157.25 16.3529 157.284 19.1124C157.284 19.7157 157.135 19.8897 156.532 19.8627C155.454 19.8153 155.453 19.8525 155.453 18.7997C155.453 14.9317 155.453 11.0621 155.465 7.19245C155.465 6.93053 155.228 6.54018 155.686 6.39992C156.321 6.20729 157.086 6.43034 157.304 6.85786L161.218 14.5549C161.364 14.8744 161.561 15.1683 161.799 15.4252V14.8338C161.799 12.2382 161.816 9.64265 161.786 7.04712C161.786 6.50976 161.908 6.29178 162.462 6.3864C162.63 6.4143 162.801 6.4143 162.968 6.3864C163.476 6.30192 163.546 6.54356 163.545 6.98629C163.526 10.1818 163.534 13.3771 163.534 16.5743C163.534 17.4868 163.519 18.4009 163.534 19.3134C163.545 19.6869 163.476 19.8204 163.043 19.866C162.261 19.942 161.861 19.6717 161.523 18.9535C160.2 16.2177 158.794 13.5208 157.419 10.8104L157.269 10.8323Z" fill="#FEFEFE"/>
<path d="M58.9397 15.8086C58.6019 15.0499 58.291 14.3655 59.2674 13.8416C59.3992 13.7707 59.4769 13.5814 59.558 13.4361C60.3419 12.0099 60.4026 10.5043 59.9787 8.97502C59.4972 7.22266 58.4312 6.42 56.6304 6.39635C55.6422 6.38282 54.6522 6.43014 53.6657 6.37944C53.1082 6.35072 52.9984 6.52646 53.0018 7.05537C53.0254 10.92 53.0153 14.7863 53.0153 18.6509C53.0153 19.8709 53.0153 19.8455 54.2215 19.8607C54.7013 19.8607 54.8415 19.7289 54.8263 19.2558C54.7941 18.1997 54.8161 17.1436 54.8161 16.0874C54.8161 14.9045 54.8161 14.9349 55.9767 14.9045C56.4565 14.891 56.7132 15.0127 56.8754 15.4858C57.2014 16.4338 57.595 17.3598 57.9549 18.296C58.5968 19.9604 58.5951 19.9604 60.406 19.832C60.4523 19.8188 60.497 19.8006 60.5395 19.778C59.9989 18.4193 59.5039 17.0979 58.9397 15.8086ZM58.2876 11.584C58.0698 12.456 57.5409 12.8599 56.6321 12.8954C54.8161 12.968 54.8161 12.968 54.8161 11.165V10.658C54.7935 10.4433 54.7963 10.2266 54.8246 10.0125C54.958 9.48703 54.4157 8.64041 55.1354 8.46298C56.8247 8.0456 57.9447 8.60495 58.2792 9.80129C58.4365 10.3836 58.4395 10.9969 58.2876 11.5806V11.584Z" fill="#FEFEFE"/>
<path d="M121.876 9.58493C121.146 7.33411 119.668 6.39795 117.286 6.39288C116.467 6.39288 115.644 6.4233 114.825 6.38105C114.353 6.35739 114.276 6.52807 114.279 6.95221C114.301 8.99516 114.29 11.0365 114.29 13.0795C114.29 15.1224 114.301 17.2127 114.279 19.2793C114.279 19.7019 114.357 19.8759 114.827 19.8573C115.791 19.8201 116.758 19.8573 117.724 19.8438C119.394 19.832 120.66 19.0851 121.422 17.625C122.777 15.0261 122.752 12.2988 121.876 9.58493ZM120.231 15.8609C119.773 17.1874 118.898 17.7383 117.48 17.7585C117.191 17.7433 116.902 17.7433 116.612 17.7585C116.149 17.8143 116.043 17.6217 116.051 17.1891C116.077 15.8372 116.051 14.4972 116.051 13.1521C116.051 11.8071 116.066 10.4603 116.051 9.11514C116.051 8.67245 116.126 8.4291 116.641 8.49839C116.978 8.52811 117.316 8.53486 117.655 8.5187C118.957 8.50514 119.818 9.1642 120.227 10.3403C120.863 12.1253 120.864 14.075 120.231 15.8609Z" fill="#FEFEFE"/>
<path d="M152.632 8.33467C151.94 6.96761 150.739 6.17509 149.121 6.22916C147.502 6.28323 146.453 7.18053 145.706 8.52056C144.914 9.94504 144.706 11.5014 144.693 13.2013C144.722 14.8912 144.943 16.6367 145.985 18.1728C147.703 20.7075 151 20.7345 152.523 18.0916C154.344 14.9165 154.275 11.5808 152.632 8.33467ZM151.389 16.2768C151.026 17.2045 150.342 17.8398 149.265 17.85C148.19 17.8601 147.541 17.2382 147.098 16.3291C146.591 15.2882 146.505 14.1679 146.501 12.9495C146.53 11.9508 146.607 10.8812 147.122 9.891C147.573 9.02749 148.196 8.40902 149.242 8.41577C150.288 8.42254 150.97 9.00554 151.348 9.90451C152.233 12.01 152.218 14.1578 151.389 16.27V16.2768Z" fill="#FEFEFE"/>
<path d="M91.6242 8.65437C90.8822 7.22644 89.7856 6.24973 88.0765 6.23114C86.3216 6.21593 85.1237 7.14533 84.4444 8.6374C83.0609 11.6791 83.0392 14.7714 84.532 17.7894C85.2266 19.1936 86.4044 20.0538 88.0395 20.0386C89.6747 20.0234 90.7761 19.1295 91.5325 17.754C92.3284 16.3041 92.5696 14.7343 92.5463 13.0343C92.5784 11.5524 92.3405 10.0468 91.6242 8.65437ZM90.0694 16.4866C89.6795 17.3315 88.9954 17.8385 88.0259 17.8385C87.0563 17.8385 86.4156 17.3112 85.9694 16.4866C85.385 15.4152 85.2941 14.2527 85.2941 12.9498C85.262 12.0025 85.4204 11.0582 85.7604 10.1735C86.2178 9.02951 87.0395 8.38734 88.046 8.41269C89.2285 8.44649 89.9046 9.17144 90.2423 10.1853C90.9867 12.2993 91.0188 14.4216 90.063 16.4866H90.0694Z" fill="#FEFEFE"/>
<path d="M69.4593 8.18586C67.9779 5.53962 64.6161 5.53962 62.9099 8.07433C61.8862 9.58503 61.6395 11.312 61.6311 13.3533C61.6412 14.8387 61.8575 16.5386 62.822 18.0594C64.5114 20.731 67.9575 20.7884 69.4915 18.029C71.2754 14.8015 71.2534 11.3998 69.4593 8.18586ZM68.2768 16.3696C67.9069 17.2703 67.1973 17.8398 66.1601 17.8431C65.1229 17.8465 64.4709 17.2331 64.0367 16.3645C63.5299 15.3287 63.4116 14.2117 63.4336 13.0728C63.4184 11.9845 63.5417 10.9183 64.0282 9.9247C64.4573 9.05107 65.0874 8.4275 66.1297 8.41736C67.172 8.40723 67.8613 8.96486 68.2532 9.87058C69.184 12.0268 69.1603 14.2117 68.2735 16.3696H68.2768Z" fill="#FEFEFE"/>
<path d="M131.996 19.2961C131 15.5481 130.037 11.7917 129.067 8.03525C128.628 6.3353 128.633 6.34544 126.898 6.38092C126.53 6.38092 126.391 6.51611 126.319 6.83886C126.15 7.53675 125.965 8.23127 125.787 8.9275C124.854 12.5402 123.928 16.1531 122.967 19.8454C123.454 19.8454 123.886 19.8166 124.319 19.8454C124.773 19.8876 124.948 19.7203 125.03 19.2725C125.169 18.5205 125.419 17.7888 125.565 17.0368C125.648 16.6178 125.836 16.4944 126.241 16.513C126.916 16.5434 127.593 16.5215 128.268 16.5215C129.392 16.5215 129.39 16.5215 129.675 17.6503C129.753 17.9511 129.844 18.2502 129.912 18.5526C130.231 19.869 130.229 19.8521 131.564 19.847C132.016 19.8538 132.13 19.7912 131.996 19.2961ZM128.601 14.5917C127.814 14.5799 127.027 14.5917 126.178 14.5917L127.488 9.25696H127.606C128.018 10.9209 128.432 12.5842 128.846 14.247C128.905 14.4734 128.888 14.5951 128.601 14.5917Z" fill="#FEFEFE"/>
<path d="M51.568 19.1912C50.5308 15.2776 49.524 11.3572 48.5104 7.44026C48.2401 6.39428 48.2452 6.39258 47.1724 6.39258C46.0338 6.39258 46.0372 6.39258 45.7501 7.50785C45.5812 8.15843 45.4037 8.80396 45.2433 9.45283C44.3986 12.7463 43.5539 16.043 42.6874 19.3298C42.5708 19.7691 42.6518 19.8486 43.0827 19.8553C44.451 19.8739 44.4493 19.8908 44.7837 18.5372C44.8243 18.3683 44.8682 18.2128 44.9071 18.0489C45.2703 16.528 45.2703 16.5145 46.8143 16.528C47.5306 16.5382 48.4462 16.2205 48.9074 16.6581C49.3686 17.0958 49.3551 17.9762 49.5273 18.6707C49.8196 19.8452 49.8128 19.813 51.0595 19.8536C51.6441 19.879 51.7099 19.7336 51.568 19.1912ZM45.7669 14.5612C46.2113 12.7648 46.6437 11.0125 47.0778 9.24834H47.1944L48.5053 14.5645L45.7669 14.5612Z" fill="#FEFEFE"/>
<path d="M102.264 11.7125C102.166 13.159 102.46 14.9451 102.105 16.7042C101.615 19.1223 99.6737 20.4303 97.3415 19.9554C95.6902 19.6174 94.3582 17.9766 94.3003 15.9522C94.2207 12.9106 94.2681 9.85544 94.2528 6.807C94.2528 6.51128 94.3172 6.40314 94.6452 6.38286C96.0303 6.30005 96.0303 6.28484 96.0303 7.68401C96.0303 10.1095 96.0303 12.5343 96.0303 14.9586C96.011 15.6344 96.1806 16.3023 96.5199 16.8867C96.6992 17.1951 96.9564 17.4505 97.2667 17.6268C97.5762 17.8031 97.9275 17.8939 98.2837 17.8899C98.6406 17.886 98.9895 17.7874 99.2958 17.6043C99.6013 17.4213 99.8537 17.1602 100.026 16.8478C100.358 16.2331 100.519 15.5405 100.494 14.842C100.494 12.2735 100.511 9.70498 100.478 7.13651C100.478 6.56874 100.56 6.33892 101.201 6.37609C102.262 6.43693 102.265 6.39131 102.265 7.42716L102.264 11.7125Z" fill="#FEFEFE"/>
<path d="M42.6052 9.53265C42.1845 7.33587 41.0374 6.39971 38.8177 6.39295C37.9258 6.39295 37.0338 6.41999 36.1435 6.38281C35.6706 6.36254 35.532 6.49603 35.5388 6.97424C35.5641 9.01381 35.5489 11.0535 35.5489 13.0931V18.6373C35.5489 19.8641 35.5489 19.8422 36.7534 19.8574C37.2146 19.8574 37.3818 19.7577 37.3632 19.2676C37.3244 18.2132 37.3852 17.1553 37.3379 16.1009C37.3109 15.5061 37.4189 15.207 38.0981 15.3118C38.5066 15.3506 38.9178 15.3506 39.3262 15.3118C40.6455 15.2594 41.6118 14.6561 42.1879 13.453C42.8028 12.2042 42.8653 10.8794 42.6052 9.53265ZM40.6878 12.1688C40.568 12.5119 40.3417 12.8078 40.0422 13.0135C39.7427 13.2193 39.3853 13.3241 39.0221 13.3127C37.3514 13.3499 37.3514 13.3583 37.3514 11.7294V10.7899C37.3514 10.1443 37.37 9.49711 37.3514 8.8533C37.3379 8.50015 37.4663 8.37848 37.8042 8.41903C37.9482 8.42834 38.0926 8.42834 38.2366 8.41903C40.5121 8.42242 41.5696 10.0295 40.6878 12.1688Z" fill="#FEFEFE"/>
<path d="M78.9503 6.39312C79.8186 6.39312 80.6869 6.40833 81.5532 6.39312C81.9303 6.38298 82.1007 6.44044 82.1063 6.88655C82.128 8.44287 82.1481 8.44287 80.5957 8.44287C79.7764 8.44287 78.9554 8.46314 78.1378 8.44287C77.7188 8.42934 77.5263 8.52058 77.5465 8.99037C77.5803 9.85218 77.5735 10.7174 77.5465 11.5809C77.533 11.9898 77.6698 12.1216 78.0786 12.1098C79.0669 12.0861 80.0568 12.1098 81.0436 12.0946C81.4809 12.0844 81.677 12.1621 81.6714 12.6758C81.6602 14.1713 81.6867 14.1713 80.165 14.1713C79.4655 14.1713 78.7645 14.1933 78.0668 14.1713C77.653 14.1527 77.5381 14.2879 77.5448 14.6951C77.5668 16.2058 77.5364 17.7182 77.5651 19.2289C77.5735 19.7156 77.462 19.8947 76.935 19.8846C75.7525 19.8576 75.7525 19.8846 75.7525 18.7236C75.7525 14.8371 75.766 10.9506 75.7373 7.06398C75.7373 6.50634 75.891 6.37792 76.413 6.40664C77.261 6.42692 78.1057 6.39312 78.9503 6.39312Z" fill="#FEFEFE"/>
<path d="M134.853 14.1055C134.853 12.4021 134.84 10.6971 134.861 8.99377C134.861 8.56459 134.772 8.39898 134.308 8.42602C133.611 8.46657 132.91 8.42602 132.211 8.44291C131.91 8.44291 131.811 8.36856 131.791 8.0475C131.686 6.39318 131.674 6.39318 133.326 6.39318C135.254 6.39318 137.182 6.41007 139.112 6.38135C139.597 6.38135 139.71 6.51822 139.708 6.98123C139.708 8.43616 139.719 8.43616 138.239 8.43616C136.624 8.43616 136.624 8.43616 136.624 10.0347C136.624 13.0764 136.612 16.1298 136.636 19.1766C136.636 19.6835 136.542 19.9489 135.977 19.8525C135.785 19.8229 135.591 19.8229 135.399 19.8525C134.944 19.9167 134.837 19.7275 134.843 19.2898C134.867 17.5612 134.853 15.8342 134.853 14.1055Z" fill="#FEFEFE"/>
<path d="M141.216 13.1705C141.216 11.1056 141.231 9.03895 141.205 6.97233C141.205 6.50426 141.32 6.37077 141.797 6.3809C142.998 6.40287 142.998 6.3809 142.998 7.58404C142.998 11.4283 142.983 15.271 143.013 19.1153C143.013 19.7135 142.871 19.9602 142.265 19.8503C142.097 19.8232 141.926 19.8232 141.758 19.8503C141.303 19.9213 141.199 19.7355 141.204 19.2961C141.229 17.2548 141.216 15.2136 141.216 13.1705Z" fill="#FEFEFE"/>
<path d="M85.338 23.7185C84.5653 23.7049 84.0683 24.408 84.0418 25.549C84.0145 26.6898 84.5315 27.4504 85.3412 27.4386C86.1252 27.4285 86.5932 26.7304 86.59 25.5794C86.586 24.4284 86.1051 23.732 85.338 23.7185ZM85.3292 27.0295C84.7904 27.0295 84.4841 26.5089 84.4841 25.5912C84.4841 25.5675 84.4841 25.5421 84.4841 25.5185C84.5082 24.6362 84.8089 24.1308 85.3123 24.1224C85.8156 24.1139 86.1574 24.687 86.1574 25.5743C86.1638 26.4937 85.8615 27.0227 85.3292 27.0295Z" fill="#FEFEFE"/>
<path d="M44.9839 27.4487C44.5327 27.4487 44.1187 27.3608 43.8449 26.9636C43.7453 26.8182 43.5695 26.6256 43.7926 26.4769C43.9413 26.3771 44.1002 26.4667 44.1846 26.6611C44.2328 26.7729 44.3136 26.8675 44.4163 26.9326C44.5192 26.9977 44.6391 27.0303 44.7608 27.0262C45.1748 27.038 45.6378 27.0819 45.7831 26.5749C45.952 25.9969 45.4603 25.9208 45.075 25.794C44.8926 25.7332 44.7084 25.6824 44.5276 25.625C44.0595 25.4559 43.6827 25.2024 43.7605 24.643C43.8466 24.0041 44.3383 23.7877 44.896 23.7388C45.1488 23.6989 45.4077 23.741 45.6349 23.859C45.862 23.977 46.0454 24.1647 46.1582 24.3945C46.2122 24.4977 46.2511 24.6464 46.0939 24.692C46.0249 24.7154 45.9494 24.7108 45.8837 24.6792C45.818 24.6476 45.7674 24.5915 45.7425 24.523C45.5043 24.0784 45.0886 24.0801 44.6695 24.1663C44.5484 24.1819 44.4359 24.2376 44.3501 24.3246C44.2643 24.4117 44.2102 24.5249 44.1964 24.6464C44.1826 24.7673 44.2127 24.8891 44.2813 24.9897C44.3498 25.0902 44.4523 25.1628 44.5698 25.194C44.8182 25.2853 45.0767 25.3445 45.3268 25.4306C45.8506 25.6115 46.3271 25.843 46.2528 26.5242C46.1852 27.0937 45.707 27.4402 44.9839 27.4487Z" fill="#FEFEFE"/>
<path d="M93.1562 27.0011C93.6363 27.0011 94.0464 27.0011 94.4573 27.0011C94.5739 27.0011 94.7106 26.9893 94.721 27.1616C94.7307 27.3341 94.6173 27.4084 94.4525 27.4084C93.9692 27.4084 93.4859 27.4084 93.0027 27.4084C92.8217 27.4084 92.5765 27.5014 92.4816 27.2783C92.3875 27.0551 92.6119 26.8946 92.7502 26.7391C93.1964 26.2321 93.6628 25.7486 94.0922 25.2315C94.2032 25.1169 94.2683 24.9656 94.2756 24.8061C94.2828 24.6467 94.2313 24.4901 94.1308 24.3661C93.9467 24.1261 93.6829 24.1007 93.4111 24.1379C93.3042 24.1565 93.2037 24.204 93.1217 24.2751C93.0389 24.3463 92.9769 24.4385 92.9432 24.5418C92.8756 24.6923 92.8049 24.9018 92.5902 24.7717C92.406 24.6584 92.5138 24.4591 92.5781 24.3137C92.7992 23.8067 93.506 23.5818 94.0705 23.8337C94.1935 23.8815 94.3053 23.9547 94.3986 24.0484C94.4927 24.142 94.565 24.2541 94.6133 24.3776C94.6607 24.501 94.6824 24.633 94.676 24.7652C94.6696 24.8973 94.6358 25.0268 94.5771 25.1452C94.3825 25.627 93.9821 25.9532 93.6612 26.3402C93.506 26.5329 93.256 26.663 93.1562 27.0011Z" fill="#FEFEFE"/>
<path d="M76.5718 27.0012C77.0787 27.0012 77.4842 27.0012 77.8847 27.0012C78.0181 27.0012 78.1922 26.9622 78.2024 27.1786C78.2125 27.395 78.0773 27.4085 77.9167 27.4085C77.3642 27.4085 76.8101 27.4186 76.2558 27.4085C75.8182 27.3984 75.8233 27.1837 76.0666 26.9099C76.4974 26.4265 76.9469 25.9583 77.3676 25.4681C77.6717 25.1115 77.9894 24.6771 77.4944 24.2935C77.0297 23.9317 76.5887 24.0855 76.3504 24.6535C76.2947 24.787 76.2119 24.8462 76.0767 24.7921C75.8807 24.7109 75.9618 24.5639 76.004 24.4304C76.1341 24.0163 76.4552 23.8185 76.8489 23.7442C77.0495 23.6978 77.2594 23.7116 77.4523 23.7837C77.6452 23.8558 77.8126 23.9831 77.9337 24.1498C78.0697 24.3067 78.1478 24.5056 78.1552 24.7131C78.1626 24.9207 78.0987 25.1245 77.9742 25.2907C77.5738 25.8485 77.1024 26.3606 76.5718 27.0012Z" fill="#FEFEFE"/>
<path d="M36.2128 25.5542V25.4106C36.2128 23.6122 36.2601 23.5716 38.0715 23.7947C38.2083 23.8116 38.3891 23.7728 38.3806 23.9858C38.3722 24.1987 38.1847 24.1548 38.0529 24.1548C37.7647 24.17 37.4759 24.17 37.1878 24.1548C36.8059 24.1227 36.6487 24.2206 36.6301 24.6618C36.6065 25.228 36.7163 25.4934 37.3601 25.4308C37.6389 25.4038 38.2049 25.2043 38.2049 25.5998C38.2049 25.9954 37.6524 25.747 37.3516 25.7689C36.7011 25.8111 36.4358 26.1948 36.6521 26.8303C36.7332 27.0686 36.9005 27.0129 37.0543 27.0163C37.4159 27.0247 37.7757 27.0163 38.1373 27.0163C38.2522 27.0163 38.3925 27.0163 38.4026 27.1751C38.4127 27.334 38.2911 27.4168 38.1289 27.4185C37.6 27.4185 37.0712 27.4185 36.5423 27.4185C36.2212 27.4185 36.2043 27.2359 36.2043 26.9994C36.2128 26.5126 36.2128 26.0343 36.2128 25.5542Z" fill="#FEFEFE"/>
<path d="M52.5425 25.7636C52.529 25.5249 52.529 25.2857 52.5425 25.0469C52.6169 24.4368 52.5273 24.0024 51.7433 24.1512C51.6199 24.1748 51.429 24.2001 51.4138 23.9923C51.3986 23.7844 51.5726 23.7945 51.7146 23.7945C52.4107 23.7945 53.1069 23.7945 53.803 23.7945C53.9415 23.7945 54.1207 23.7945 54.097 24.0041C54.0801 24.1478 53.928 24.1731 53.8131 24.1495C52.8956 23.9551 52.948 24.5382 52.9768 25.1433C53.0021 25.7163 52.992 26.2909 52.9768 26.8639C52.9768 27.0532 53.0984 27.371 52.7774 27.3811C52.3854 27.3913 52.5611 27.0431 52.5459 26.8368C52.5222 26.482 52.5425 26.1219 52.5425 25.7636Z" fill="#FEFEFE"/>
<path d="M101.52 24.3357C101.143 24.3678 100.992 24.7007 100.675 24.6923C100.734 24.2529 101.351 23.7458 101.729 23.7965C101.982 23.8303 101.953 23.9976 101.954 24.1616C101.954 25.1205 101.954 26.0782 101.954 27.0349C101.954 27.1938 101.988 27.4 101.727 27.3949C101.468 27.3899 101.52 27.1752 101.518 27.0231C101.516 26.1425 101.52 25.2551 101.52 24.3357Z" fill="#FEFEFE"/>
<path d="M62.045 26.7539C62.1305 26.7576 62.2119 26.7922 62.2741 26.8512C62.3361 26.9102 62.3748 26.9897 62.3829 27.0751C62.3945 27.1241 62.3949 27.1751 62.3843 27.2244C62.3736 27.2737 62.352 27.32 62.3212 27.3598C62.2903 27.3997 62.2509 27.4321 62.2059 27.4548C62.1609 27.4774 62.1113 27.4897 62.0609 27.4908C62.0106 27.4918 61.9606 27.4815 61.9146 27.4608C61.8687 27.4399 61.828 27.4091 61.7956 27.3706C61.7631 27.332 61.7397 27.2867 61.727 27.2379C61.7143 27.1891 61.7126 27.1381 61.7222 27.0886C61.7188 26.9077 61.8675 26.8012 62.045 26.7539Z" fill="#FEFEFE"/>
</svg>
