<svg width="72" height="37" viewBox="0 0 72 37" fill="none" xmlns="http://www.w3.org/2000/svg">
<path d="M50.5011 0.0556641C50.504 0.0688279 50.504 0.0824957 50.5011 0.0956595C50.4014 0.190968 50.2754 0.16629 50.1604 0.16629C49.1742 0.16629 48.188 0.16629 47.2019 0.16629C43.0318 0.16629 38.8611 0.16629 34.6899 0.16629C34.5502 0.16629 34.4029 0.196925 34.2794 0.0965106C34.2773 0.0829777 34.2773 0.0691969 34.2794 0.0556641H50.5011Z" fill="#FEFEFE"/>
<path d="M57.9714 22.8044C57.7483 22.7551 57.7006 22.7925 57.6997 23.0188C57.6997 23.2682 57.7619 23.3158 57.9927 23.2444C58.0411 23.2336 58.084 23.2058 58.1135 23.1658C58.1429 23.1259 58.1568 23.0767 58.1528 23.0274C58.1557 22.9743 58.1387 22.9221 58.1052 22.8809C58.0717 22.8396 58.024 22.8123 57.9714 22.8044ZM57.9714 22.8044C57.7483 22.7551 57.7006 22.7925 57.6997 23.0188C57.6997 23.2682 57.7619 23.3158 57.9927 23.2444C58.0411 23.2336 58.084 23.2058 58.1135 23.1658C58.1429 23.1259 58.1568 23.0767 58.1528 23.0274C58.1557 22.9743 58.1387 22.9221 58.1052 22.8809C58.0717 22.8396 58.024 22.8123 57.9714 22.8044ZM53.9688 22.9065C53.9219 23.1278 53.8445 23.2929 53.8223 23.4818C53.9324 23.498 54.0444 23.4954 54.1535 23.4741C54.1162 23.2781 54.0547 23.0875 53.9705 22.9065H53.9688ZM57.9714 22.8044C57.7483 22.7551 57.7006 22.7925 57.6997 23.0188C57.6997 23.2682 57.7619 23.3158 57.9927 23.2444C58.0411 23.2336 58.084 23.2058 58.1135 23.1658C58.1429 23.1259 58.1568 23.0767 58.1528 23.0274C58.1557 22.9743 58.1387 22.9221 58.1052 22.8809C58.0717 22.8396 58.024 22.8123 57.9714 22.8044ZM57.9714 22.8044C57.7483 22.7551 57.7006 22.7925 57.6997 23.0188C57.6997 23.2682 57.7619 23.3158 57.9927 23.2444C58.0411 23.2336 58.084 23.2058 58.1135 23.1658C58.1429 23.1259 58.1568 23.0767 58.1528 23.0274C58.1557 22.9743 58.1387 22.9221 58.1052 22.8809C58.0717 22.8396 58.024 22.8123 57.9714 22.8044ZM53.9688 22.9065C53.9219 23.1278 53.8445 23.2929 53.8223 23.4818C53.9324 23.498 54.0444 23.4954 54.1535 23.4741C54.1162 23.2781 54.0547 23.0875 53.9705 22.9065H53.9688ZM53.9688 22.9065C53.9219 23.1278 53.8445 23.2929 53.8223 23.4818C53.9324 23.498 54.0444 23.4954 54.1535 23.4741C54.1162 23.2781 54.0547 23.0875 53.9705 22.9065H53.9688ZM57.9714 22.8044C57.7483 22.7551 57.7006 22.7925 57.6997 23.0188C57.6997 23.2682 57.7619 23.3158 57.9927 23.2444C58.0411 23.2336 58.084 23.2058 58.1135 23.1658C58.1429 23.1259 58.1568 23.0767 58.1528 23.0274C58.1557 22.9743 58.1387 22.9221 58.1052 22.8809C58.0717 22.8396 58.024 22.8123 57.9714 22.8044ZM57.9714 22.8044C57.7483 22.7551 57.7006 22.7925 57.6997 23.0188C57.6997 23.2682 57.7619 23.3158 57.9927 23.2444C58.0411 23.2336 58.084 23.2058 58.1135 23.1658C58.1429 23.1259 58.1568 23.0767 58.1528 23.0274C58.1557 22.9743 58.1387 22.9221 58.1052 22.8809C58.0717 22.8396 58.024 22.8123 57.9714 22.8044ZM53.9688 22.9065C53.9219 23.1278 53.8445 23.2929 53.8223 23.4818C53.9324 23.498 54.0444 23.4954 54.1535 23.4741C54.1162 23.2781 54.0547 23.0875 53.9705 22.9065H53.9688ZM53.9688 22.9065C53.9219 23.1278 53.8445 23.2929 53.8223 23.4818C53.9324 23.498 54.0444 23.4954 54.1535 23.4741C54.1162 23.2781 54.0547 23.0875 53.9705 22.9065H53.9688ZM57.9714 22.8044C57.7483 22.7551 57.7006 22.7925 57.6997 23.0188C57.6997 23.2682 57.7619 23.3158 57.9927 23.2444C58.0411 23.2336 58.084 23.2058 58.1135 23.1658C58.1429 23.1259 58.1568 23.0767 58.1528 23.0274C58.1557 22.9743 58.1387 22.9221 58.1052 22.8809C58.0717 22.8396 58.024 22.8123 57.9714 22.8044ZM57.9714 22.8044C57.7483 22.7551 57.7006 22.7925 57.6997 23.0188C57.6997 23.2682 57.7619 23.3158 57.9927 23.2444C58.0411 23.2336 58.084 23.2058 58.1135 23.1658C58.1429 23.1259 58.1568 23.0767 58.1528 23.0274C58.1557 22.9743 58.1387 22.9221 58.1052 22.8809C58.0717 22.8396 58.024 22.8123 57.9714 22.8044ZM53.9688 22.9065C53.9219 23.1278 53.8445 23.2929 53.8223 23.4818C53.9324 23.498 54.0444 23.4954 54.1535 23.4741C54.1162 23.2781 54.0547 23.0875 53.9705 22.9065H53.9688ZM46.7538 13.4029C46.7551 13.4795 46.7351 13.5548 46.6959 13.6208C46.3527 14.193 46.0444 14.7855 45.7728 15.395C45.6876 15.5848 45.6297 15.7898 45.5088 15.9634C45.3001 15.9456 45.0906 15.9337 44.8828 15.9056C44.7764 15.8911 44.7219 15.9124 44.7202 16.0256C44.7174 16.0605 44.7126 16.0951 44.7057 16.1294C44.6333 16.2145 44.6657 16.3149 44.6657 16.4085C44.6754 16.5732 44.662 16.7385 44.6257 16.8996C44.6172 17.017 44.6172 17.1352 44.5976 17.2501C44.5796 17.3514 44.6146 17.3922 44.7117 17.3965C44.7403 17.3986 44.7688 17.4027 44.7969 17.4084C44.9578 17.4807 44.9578 17.4799 44.905 17.6526C44.8964 17.6854 44.8898 17.7186 44.8854 17.7522C45.0259 17.5625 45.0378 17.4833 44.8973 17.4118C44.9203 17.4106 44.9433 17.4106 44.9663 17.4118C44.9766 17.414 44.9872 17.4141 44.9975 17.4119C45.0078 17.4098 45.0176 17.4056 45.0261 17.3995C45.0346 17.3934 45.0419 17.3857 45.0473 17.3766C45.0527 17.3676 45.0561 17.3576 45.0575 17.3471C45.1074 17.2057 45.1461 17.0606 45.1733 16.9132L44.7236 16.8621C44.7143 16.8608 44.7048 16.8608 44.6955 16.8621C44.7298 16.712 44.7404 16.5576 44.727 16.4043C44.7404 16.4155 44.7572 16.4218 44.7747 16.4221C44.9357 16.4374 45.0966 16.4527 45.2567 16.4698C45.2686 16.4728 45.2811 16.4733 45.2932 16.4715C45.3053 16.4695 45.3169 16.4652 45.3274 16.4587C45.3378 16.4521 45.3468 16.4436 45.3538 16.4336C45.3609 16.4235 45.3658 16.412 45.3683 16.4C45.4232 16.2699 45.4692 16.1363 45.5062 16.0001H45.5165C45.5455 15.9865 45.5712 15.9667 45.5917 15.9421C45.6124 15.9176 45.6273 15.8888 45.6357 15.858C45.9518 15.1001 46.3218 14.3658 46.7428 13.6607C46.7828 13.5774 46.8245 13.4939 46.7538 13.4029ZM49.3717 16.7651C49.3717 16.737 49.3717 16.7089 49.3717 16.68C49.3717 15.1862 49.3717 13.6928 49.3717 12.1996C49.3717 12.1145 49.3717 12.0294 49.3717 11.9444C49.3737 11.887 49.3572 11.8306 49.3247 11.7832C49.2922 11.736 49.2454 11.7002 49.1912 11.6814C49.135 11.6575 49.0724 11.6529 49.0132 11.6683C48.954 11.6837 48.9017 11.7182 48.8642 11.7665C48.8216 11.8133 48.779 11.8618 48.7381 11.9095C47.6101 13.2236 46.7142 14.7199 46.0887 16.3345C46.048 16.3984 46.0305 16.4745 46.0393 16.5498C46.1884 16.5659 46.3408 16.5847 46.4941 16.6L48.5014 16.8025C48.7569 16.8272 49.0123 16.8467 49.2627 16.874C49.3436 16.8774 49.3769 16.8476 49.3717 16.7651ZM47.0774 15.5737L48.5746 13.2251L48.6112 13.2387C48.7271 14.1467 48.8421 15.0546 48.9613 15.9941L47.0774 15.5737ZM53.9705 22.9065C53.9237 23.1278 53.8462 23.2929 53.824 23.4818C53.934 23.498 54.0461 23.4954 54.1553 23.4741C54.1173 23.278 54.0552 23.0874 53.9705 22.9065ZM57.9731 22.8044C57.75 22.7551 57.7022 22.7925 57.7014 23.0188C57.7014 23.2682 57.7636 23.3158 57.9944 23.2444C58.0428 23.2336 58.0857 23.2058 58.1152 23.1658C58.1445 23.1259 58.1586 23.0767 58.1545 23.0274C58.1574 22.9741 58.1402 22.9216 58.1063 22.8804C58.0724 22.8391 58.0243 22.812 57.9714 22.8044H57.9731ZM57.9731 22.8044C57.75 22.7551 57.7022 22.7925 57.7014 23.0188C57.7014 23.2682 57.7636 23.3158 57.9944 23.2444C58.0428 23.2336 58.0857 23.2058 58.1152 23.1658C58.1445 23.1259 58.1586 23.0767 58.1545 23.0274C58.1574 22.9741 58.1402 22.9216 58.1063 22.8804C58.0724 22.8391 58.0243 22.812 57.9714 22.8044H57.9731ZM53.9705 22.9065C53.9237 23.1278 53.8462 23.2929 53.824 23.4818C53.934 23.498 54.0461 23.4954 54.1553 23.4741C54.1173 23.278 54.0552 23.0874 53.9705 22.9065ZM49.3717 16.7651C49.3717 16.737 49.3717 16.7089 49.3717 16.68C49.3717 15.1862 49.3717 13.6928 49.3717 12.1996C49.3717 12.1145 49.3717 12.0294 49.3717 11.9444C49.3737 11.887 49.3572 11.8306 49.3247 11.7832C49.2922 11.736 49.2454 11.7002 49.1912 11.6814C49.135 11.6575 49.0724 11.6529 49.0132 11.6683C48.954 11.6837 48.9017 11.7182 48.8642 11.7665C48.8216 11.8133 48.779 11.8618 48.7381 11.9095C47.6101 13.2236 46.7142 14.7199 46.0887 16.3345C46.048 16.3984 46.0305 16.4745 46.0393 16.5498C46.1884 16.5659 46.3408 16.5847 46.4941 16.6L48.5014 16.8025C48.7569 16.8272 49.0123 16.8467 49.2627 16.874C49.3436 16.8774 49.3769 16.8476 49.3717 16.7651ZM47.0774 15.5737L48.5746 13.2251L48.6112 13.2387C48.7271 14.1467 48.8421 15.0546 48.9613 15.9941L47.0774 15.5737ZM46.7538 13.4029C46.7551 13.4795 46.7351 13.5548 46.6959 13.6208C46.3527 14.193 46.0444 14.7855 45.7728 15.395C45.6876 15.5848 45.6297 15.7898 45.5088 15.9634C45.3001 15.9456 45.0906 15.9337 44.8828 15.9056C44.7764 15.8911 44.7219 15.9124 44.7202 16.0256C44.7174 16.0605 44.7126 16.0951 44.7057 16.1294C44.6333 16.2145 44.6657 16.3149 44.6657 16.4085C44.6754 16.5732 44.662 16.7385 44.6257 16.8996C44.6172 17.017 44.6172 17.1352 44.5976 17.2501C44.5796 17.3514 44.6146 17.3922 44.7117 17.3965C44.7403 17.3986 44.7688 17.4027 44.7969 17.4084C44.9578 17.4807 44.9578 17.4799 44.905 17.6526C44.8964 17.6854 44.8898 17.7186 44.8854 17.7522C45.0259 17.5625 45.0378 17.4833 44.8973 17.4118C44.9203 17.4106 44.9433 17.4106 44.9663 17.4118C44.9766 17.414 44.9872 17.4141 44.9975 17.4119C45.0078 17.4098 45.0176 17.4056 45.0261 17.3995C45.0346 17.3934 45.0419 17.3857 45.0473 17.3766C45.0527 17.3676 45.0561 17.3576 45.0575 17.3471C45.1074 17.2057 45.1461 17.0606 45.1733 16.9132L44.7236 16.8621C44.7143 16.8608 44.7048 16.8608 44.6955 16.8621C44.7298 16.712 44.7404 16.5576 44.727 16.4043C44.7404 16.4155 44.7572 16.4218 44.7747 16.4221C44.9357 16.4374 45.0966 16.4527 45.2567 16.4698C45.2686 16.4728 45.2811 16.4733 45.2932 16.4715C45.3053 16.4695 45.3169 16.4652 45.3274 16.4587C45.3378 16.4521 45.3468 16.4436 45.3538 16.4336C45.3609 16.4235 45.3658 16.412 45.3683 16.4C45.4232 16.2699 45.4692 16.1363 45.5062 16.0001H45.5165C45.5455 15.9865 45.5712 15.9667 45.5917 15.9421C45.6124 15.9176 45.6273 15.8888 45.6357 15.858C45.9518 15.1001 46.3218 14.3658 46.7428 13.6607C46.7828 13.5774 46.8245 13.4939 46.7538 13.4029ZM71.3938 25.8219C68.8736 24.7753 66.464 23.4809 64.2001 21.9577C61.1845 19.9154 58.5283 17.4825 56.3159 14.5823C53.7389 11.2032 51.896 7.47761 50.9464 3.32659C50.7031 2.32208 50.5604 1.29586 50.5206 0.263106C50.5288 0.206734 50.5208 0.149196 50.4976 0.097168H50.4124H34.2768C34.2588 0.173224 34.2539 0.251785 34.2623 0.329482V25.7113C34.2623 25.7471 34.2623 25.7828 34.2623 25.8177C34.2546 25.9122 34.2801 25.9709 34.3901 25.9547C34.4183 25.9525 34.4469 25.9525 34.4752 25.9547H71.6314C71.5631 25.8933 71.4819 25.848 71.3938 25.8219ZM37.989 23.7209C37.9857 23.8137 37.9533 23.9031 37.8963 23.9765C37.8393 24.0498 37.7605 24.1033 37.6714 24.1294C37.4697 24.2031 37.2478 24.1994 37.0488 24.1191C36.9651 24.0883 36.8917 24.0347 36.8371 23.9643C36.7825 23.8939 36.7487 23.8095 36.7397 23.7209C36.7243 23.6256 36.7593 23.595 36.8521 23.5967C36.9713 23.5967 37.0786 23.5822 37.1416 23.7345C37.1884 23.8477 37.4115 23.8707 37.5223 23.8052C37.5484 23.7933 37.5704 23.774 37.5856 23.7497C37.6008 23.7255 37.6086 23.6973 37.608 23.6687C37.6073 23.6401 37.5983 23.6123 37.582 23.5888C37.5657 23.5652 37.5429 23.547 37.5163 23.5362C37.4395 23.5005 37.3589 23.4735 37.2762 23.4554C37.1933 23.4375 37.1125 23.411 37.0352 23.3762C36.9661 23.3443 36.9057 23.2959 36.8597 23.2353C36.8135 23.1746 36.7829 23.1037 36.7706 23.0286C36.7583 22.9535 36.7645 22.8764 36.7888 22.8043C36.8131 22.7321 36.8547 22.667 36.91 22.6146C37.1195 22.4061 37.5691 22.3857 37.7922 22.5772C37.8505 22.6253 37.8968 22.6862 37.9275 22.7551C37.9582 22.8241 37.9725 22.8992 37.9694 22.9746C37.8894 22.9746 37.8255 22.9746 37.7633 22.9746C37.7261 22.982 37.6874 22.9769 37.6535 22.9599C37.6196 22.943 37.5923 22.9152 37.5759 22.881C37.544 22.8335 37.4963 22.799 37.4413 22.7834C37.3862 22.7678 37.3274 22.7723 37.2754 22.7958C37.2441 22.8031 37.216 22.8204 37.1957 22.8452C37.1753 22.8699 37.1638 22.9008 37.1629 22.9329C37.1595 22.9614 37.1654 22.9901 37.1798 23.0148C37.1943 23.0397 37.2165 23.0589 37.243 23.0699C37.3077 23.098 37.3746 23.1208 37.4431 23.138C37.5402 23.1573 37.6346 23.1884 37.7241 23.2307C37.8154 23.2729 37.8905 23.3433 37.9383 23.4317C37.986 23.5201 38.0037 23.6216 37.989 23.7209ZM40.6546 24.1183C40.5695 24.159 40.477 24.1822 40.3828 24.1866C40.2886 24.1909 40.1944 24.1764 40.1059 24.1437C40.0173 24.1111 39.9363 24.0612 39.8674 23.9967C39.7986 23.9322 39.7434 23.8547 39.705 23.7686C39.6404 23.626 39.6069 23.4714 39.6069 23.315C39.6069 23.1585 39.6404 23.0039 39.705 22.8614C39.8361 22.5576 40.1257 22.4104 40.4715 22.4546C40.7908 22.4964 40.9825 22.6937 41.0378 23.0503C40.9655 23.0716 40.8898 23.0794 40.8146 23.0733C40.7772 23.083 40.7374 23.0777 40.7038 23.0584C40.6702 23.0392 40.6455 23.0075 40.6349 22.9704C40.614 22.9129 40.5738 22.8646 40.5212 22.8336C40.4685 22.8026 40.4067 22.7907 40.3463 22.8001C40.2856 22.8005 40.2263 22.819 40.1762 22.8533C40.1262 22.8875 40.0875 22.936 40.0652 22.9925C40.0178 23.092 39.9931 23.2009 39.9931 23.3111C39.9931 23.4214 40.0178 23.5303 40.0652 23.6298C40.1717 23.8528 40.4842 23.8962 40.6026 23.6945C40.626 23.6448 40.6657 23.6045 40.7151 23.5802C40.7644 23.5559 40.8205 23.5491 40.8743 23.5609C40.9228 23.5651 40.9714 23.5609 41.0446 23.5609C41.036 23.6803 40.9953 23.7952 40.9266 23.8934C40.8579 23.9915 40.7639 24.0692 40.6546 24.1183ZM43.0833 22.9167C43.0872 22.9521 43.0872 22.9878 43.0833 23.0231C43.0757 23.1082 43.1056 23.1524 43.2018 23.1473C43.3363 23.1413 43.4717 23.1524 43.6054 23.1473C43.7144 23.1405 43.7451 23.1882 43.7332 23.2843C43.7323 23.2985 43.7323 23.3127 43.7332 23.3269C43.7332 23.4801 43.7332 23.4809 43.585 23.4835C43.4572 23.4835 43.3295 23.4894 43.2018 23.4835C43.1072 23.4783 43.0732 23.5167 43.0833 23.606C43.0833 23.6273 43.0833 23.6486 43.0833 23.6698C43.0833 23.8281 43.0833 23.829 43.2477 23.8306C43.39 23.8306 43.5314 23.8349 43.6735 23.8306C43.7587 23.8306 43.7919 23.8579 43.7876 23.9395C43.7876 23.9889 43.7876 24.0383 43.7876 24.0885C43.7887 24.099 43.7872 24.1096 43.7836 24.1195C43.7799 24.1294 43.774 24.1384 43.7664 24.1458C43.7589 24.1531 43.7497 24.1586 43.7397 24.162C43.7297 24.1654 43.719 24.1665 43.7084 24.1651H42.7913C42.7061 24.1651 42.7061 24.1115 42.7061 24.0511V23.3074C42.7061 23.0801 42.7061 22.8537 42.7061 22.6266C42.7061 22.4742 42.7061 22.4716 42.8552 22.4708C43.1174 22.4708 43.3798 22.4708 43.642 22.4708C43.751 22.4708 43.7919 22.4989 43.7903 22.6121C43.7903 22.8053 43.7945 22.8061 43.5893 22.8069C43.4623 22.8069 43.3337 22.8112 43.2069 22.8069C43.1174 22.795 43.0715 22.8206 43.0833 22.9167ZM46.7393 24.1558C46.6806 24.1781 46.616 24.1797 46.5561 24.1606C46.4963 24.1414 46.4447 24.1025 46.4098 24.0502C46.2796 23.8477 46.1543 23.6434 46.0223 23.4409L45.8963 23.2452L45.8511 23.2503V23.6018C45.8511 23.7507 45.8511 23.8988 45.8511 24.0477C45.8511 24.1277 45.8247 24.1676 45.7413 24.1608C45.7055 24.1608 45.6706 24.1608 45.6348 24.1608C45.4756 24.1608 45.473 24.1608 45.4721 23.9966C45.4721 23.5438 45.4721 23.0903 45.4721 22.635C45.4721 22.5789 45.4364 22.5032 45.519 22.4648C45.6016 22.4266 45.7916 22.4648 45.8307 22.5236C45.8869 22.6086 45.9372 22.6937 45.9899 22.7747C46.1165 22.9856 46.2589 23.1867 46.4157 23.3762C46.4157 23.2545 46.4157 23.1328 46.4157 23.0111C46.4157 22.8691 46.4157 22.7278 46.4157 22.5857C46.4157 22.5006 46.437 22.4563 46.5342 22.4572C46.8493 22.4623 46.7896 22.441 46.7947 22.6946C46.7947 23.1122 46.7947 23.5297 46.7947 23.9473C46.793 24.023 46.8373 24.1183 46.7393 24.1558ZM49.6136 22.8018C49.5438 22.7942 49.4714 22.8061 49.4015 22.8018C49.2977 22.7925 49.267 22.835 49.2687 22.9355C49.2747 23.2333 49.2687 23.5311 49.2687 23.829C49.2708 23.8641 49.2708 23.8993 49.2687 23.9345C49.2584 24.0093 49.3096 24.1166 49.2313 24.1498C49.1425 24.1735 49.0495 24.1764 48.9596 24.1583C48.8906 24.1532 48.9017 24.0885 48.9008 24.0417C48.9008 23.8502 48.9008 23.6587 48.9008 23.4673C48.9008 23.2835 48.9008 23.0989 48.9008 22.915C48.9008 22.8367 48.8787 22.795 48.7918 22.8027C48.7356 22.8069 48.6785 22.8027 48.6215 22.8027C48.4383 22.8027 48.3659 22.6972 48.4281 22.5218C48.4511 22.4555 48.5048 22.4691 48.5508 22.4691C48.7279 22.4691 48.9059 22.4691 49.083 22.4691C49.2602 22.4691 49.4237 22.4691 49.594 22.4691C49.7405 22.4691 49.7405 22.4691 49.7422 22.6257C49.7413 22.6398 49.7413 22.6541 49.7422 22.6683C49.7516 22.7619 49.7201 22.8138 49.6136 22.8018ZM50.0215 13.8343V19.5724C50.0215 19.6073 50.0215 19.643 50.0215 19.6788C50.0215 19.8354 50.0215 19.8362 49.8512 19.8379C49.7448 19.8379 49.6383 19.8379 49.5327 19.8379C49.3734 19.8379 49.3701 19.8379 49.3701 19.6678C49.3701 19.0516 49.3701 18.4355 49.3701 17.8195C49.3701 17.6986 49.3701 17.5778 49.3701 17.4577C49.3701 17.3641 49.3462 17.3199 49.2414 17.3114C48.8531 17.2782 48.4664 17.2339 48.0781 17.1948C47.4019 17.1267 46.7249 17.0604 46.0478 16.9906C45.8528 16.971 45.8511 16.9668 45.7924 17.148C45.4598 18.1708 45.2382 19.2264 45.1315 20.2966C45.1009 20.6115 45.1026 20.6115 44.7969 20.5867C44.4562 20.5604 44.4562 20.5604 44.4886 20.2311C44.5675 19.449 44.7033 18.6737 44.8948 17.9113C44.9084 17.8577 44.9655 17.7956 44.8837 17.7462C44.7483 18.1547 44.6035 18.5589 44.4843 18.9717C44.4717 19.0395 44.4361 19.1011 44.3836 19.146C44.331 19.1909 44.2647 19.2165 44.1956 19.2184C43.8303 19.2714 43.4618 19.2998 43.0928 19.3035C41.071 19.3035 39.0495 19.3035 37.0283 19.3035H36.9245C36.864 19.3035 36.83 19.2814 36.8308 19.2184C36.8308 19.1759 36.8308 19.1333 36.8308 19.0907V15.6699C36.8308 15.6342 36.8308 15.5993 36.8308 15.5635C36.8308 15.4937 36.8571 15.458 36.9305 15.4623C36.973 15.4623 37.0155 15.4623 37.0581 15.4623C38.7046 15.4623 40.3511 15.4623 41.9976 15.4623C42.1457 15.4623 42.2931 15.4997 42.4429 15.4673C42.6073 15.4317 42.6244 15.3976 42.5281 15.2589C42.4544 15.1542 42.3623 15.0637 42.2565 14.9916C42.0648 14.8578 41.8632 14.7387 41.6535 14.6351C40.9356 14.2667 40.1972 13.9347 39.51 13.5076C39.1975 13.3135 38.8832 13.1195 38.5809 12.9119C37.8442 12.3962 37.2898 11.7333 37.082 10.8423C36.8513 9.85352 36.887 8.87323 37.3052 7.93033C37.4475 7.61117 37.6499 7.32228 37.9012 7.07936C38.5667 6.41308 39.4175 5.96237 40.3429 5.78589C40.6701 5.72841 41.0018 5.69993 41.3341 5.7008C43.0374 5.67782 44.7407 5.66165 46.4438 5.6676C46.4932 5.6676 46.5435 5.6676 46.5929 5.6676C46.6713 5.6625 46.7147 5.68973 46.7079 5.77568C46.7079 5.81738 46.7079 5.86077 46.7079 5.90247V9.26127C46.7079 9.30383 46.7079 9.3463 46.7079 9.38886C46.7147 9.47397 46.6832 9.50803 46.5997 9.5029C46.5503 9.5029 46.5001 9.5029 46.4507 9.5029H42.041C41.8945 9.5029 41.7464 9.5029 41.6194 9.58801C41.6407 9.67312 41.7182 9.69524 41.7735 9.73351C42.2973 10.1011 42.8705 10.3837 43.4394 10.6696C43.7672 10.8398 44.1053 10.9896 44.4221 11.1691C45.3589 11.7035 46.1935 12.369 46.7351 13.3348C46.7436 13.3539 46.75 13.3738 46.7538 13.3944C46.8195 13.4301 46.839 13.3782 46.8671 13.3373C47.0375 13.0821 47.2078 12.8174 47.3909 12.563C47.696 12.1275 48.0279 11.7115 48.3847 11.3171C48.476 11.2153 48.5885 11.1346 48.7142 11.0807C48.8401 11.0269 48.9762 11.0013 49.1129 11.0056C49.2497 11.0101 49.3839 11.0443 49.506 11.106C49.6281 11.1679 49.7352 11.2556 49.8197 11.3631C49.9585 11.5453 50.0296 11.77 50.0207 11.9988C50.019 12.6166 50.0198 13.2259 50.0198 13.8343H50.0215ZM54.6254 24.16C54.3699 24.1643 54.3657 24.1659 54.2958 23.9268C54.2936 23.9059 54.287 23.8858 54.2764 23.8676C54.2657 23.8496 54.2513 23.8339 54.2341 23.8218C54.2169 23.8098 54.1974 23.8015 54.1767 23.7976C54.1561 23.7936 54.1349 23.7942 54.1144 23.7992C54.0792 23.8013 54.044 23.8013 54.0088 23.7992C53.7389 23.7992 53.7346 23.7992 53.6512 24.0544C53.6484 24.0717 53.6422 24.0882 53.633 24.1029C53.6238 24.1177 53.6118 24.1305 53.5976 24.1406C53.5834 24.1508 53.5674 24.158 53.5504 24.1619C53.5334 24.1658 53.5159 24.1663 53.4987 24.1634C53.4136 24.1575 53.3284 24.1634 53.2143 24.1634C53.3557 23.7031 53.4885 23.2716 53.6214 22.841L53.6299 22.8206C53.7517 22.43 53.7517 22.4325 54.151 22.4666C54.1786 22.4658 54.2056 22.475 54.2271 22.4922C54.2487 22.5096 54.2633 22.534 54.2685 22.561L54.7548 24.131C54.7071 24.1736 54.6628 24.1591 54.6237 24.16H54.6254ZM58.0395 23.8613C58.0089 23.7983 57.9714 23.737 57.9467 23.6707C57.9407 23.6521 57.931 23.6349 57.9181 23.6203C57.9053 23.6057 57.8895 23.5937 57.8719 23.5854C57.8543 23.577 57.8351 23.5724 57.8156 23.5716C57.7961 23.5709 57.7767 23.5742 57.7585 23.5814C57.6784 23.5975 57.7057 23.6664 57.704 23.7217C57.704 23.8281 57.6989 23.9345 57.704 24.0409C57.704 24.1319 57.6733 24.1719 57.5814 24.1617C57.5533 24.1617 57.5243 24.1617 57.4962 24.1617C57.337 24.1617 57.3335 24.1617 57.3327 23.9915C57.3327 23.5388 57.3327 23.0852 57.3327 22.6299C57.3327 22.4657 57.3327 22.464 57.4928 22.4598C57.6529 22.4555 57.819 22.4598 57.9816 22.4598C58.2218 22.4598 58.4151 22.5534 58.5002 22.79C58.5854 23.0265 58.5726 23.258 58.3708 23.4324C58.2857 23.509 58.2934 23.5618 58.3393 23.646C58.4245 23.8009 58.4994 23.9591 58.5948 24.1404C58.1937 24.1796 58.1937 24.1796 58.0378 23.8613H58.0395ZM62.416 22.5942C62.4126 22.6296 62.4126 22.6652 62.416 22.7006C62.416 22.7712 62.3888 22.8036 62.3155 22.801C62.2423 22.7985 62.1452 22.8061 62.06 22.801C61.9749 22.7958 61.9417 22.8376 61.9425 22.9244C61.9459 23.271 61.9459 23.6174 61.9425 23.9634C61.9425 24.0281 61.9842 24.1226 61.8982 24.1515C61.8027 24.1801 61.7008 24.1801 61.6053 24.1515C61.5516 24.1362 61.5704 24.0664 61.5704 24.0178C61.5704 23.6928 61.5704 23.3677 61.5704 23.0427C61.5704 23.0001 61.5704 22.9576 61.5704 22.915C61.5772 22.8367 61.5499 22.7968 61.4647 22.8018C61.3796 22.8069 61.2945 22.8018 61.2093 22.8018C61.1241 22.8018 61.0909 22.7747 61.0977 22.6921C61.1003 22.6496 61.1003 22.607 61.0977 22.5644C61.0977 22.4921 61.1266 22.4648 61.1982 22.4657C61.3898 22.4657 61.5805 22.4657 61.7713 22.4657C61.9417 22.4657 62.112 22.4657 62.2823 22.4657C62.376 22.4606 62.4271 22.4887 62.4143 22.5942H62.416ZM57.9731 22.8044C57.75 22.7551 57.7022 22.7925 57.7014 23.0188C57.7014 23.2682 57.7636 23.3158 57.9944 23.2444C58.0428 23.2336 58.0857 23.2058 58.1152 23.1658C58.1445 23.1259 58.1586 23.0767 58.1545 23.0274C58.1574 22.9741 58.1402 22.9216 58.1063 22.8804C58.0724 22.8391 58.0243 22.812 57.9714 22.8044H57.9731ZM53.8257 23.4851C53.9358 23.5014 54.0478 23.4989 54.157 23.4775C54.119 23.2815 54.0569 23.0908 53.9722 22.9099C53.9237 23.1278 53.8462 23.2929 53.824 23.4818L53.8257 23.4851ZM49.3734 16.6843C49.3734 15.1905 49.3734 13.6971 49.3734 12.2039C49.3734 12.1188 49.3734 12.0337 49.3734 11.9486C49.3754 11.8912 49.3589 11.8348 49.3264 11.7875C49.2939 11.7402 49.2472 11.7045 49.1929 11.6857C49.1367 11.6618 49.074 11.6572 49.0149 11.6726C48.9557 11.6879 48.9033 11.7224 48.8659 11.7708C48.8233 11.8175 48.7807 11.8661 48.7398 11.9137C47.6118 13.2278 46.7159 14.7242 46.0904 16.3388C46.0497 16.4027 46.0322 16.4787 46.041 16.5541C46.1901 16.5702 46.3425 16.5889 46.4959 16.6043L48.5031 16.8068C48.7586 16.8314 49.014 16.851 49.2644 16.8783C49.3496 16.8876 49.3837 16.8578 49.3785 16.7753C49.37 16.7345 49.3717 16.7089 49.3717 16.6808L49.3734 16.6843ZM47.0792 15.578L48.5764 13.2293L48.613 13.2429C48.7288 14.1509 48.8438 15.0589 48.9629 15.9983L47.0792 15.578ZM44.8956 17.4135C44.9186 17.4122 44.9416 17.4122 44.9646 17.4135C44.9749 17.4157 44.9855 17.4158 44.9958 17.4137C45.0061 17.4115 45.0159 17.4073 45.0244 17.4012C45.033 17.3951 45.0402 17.3874 45.0456 17.3784C45.051 17.3693 45.0544 17.3593 45.0557 17.3488C45.1056 17.2075 45.1443 17.0623 45.1716 16.9149L44.7219 16.8638C44.7125 16.8625 44.7031 16.8625 44.6938 16.8638C44.7281 16.7138 44.7387 16.5593 44.7253 16.406C44.7387 16.4172 44.7556 16.4235 44.773 16.4238C44.934 16.4392 45.0949 16.4545 45.255 16.4715C45.2669 16.4745 45.2793 16.4751 45.2915 16.4732C45.3036 16.4712 45.3153 16.4669 45.3257 16.4604C45.3361 16.4539 45.3451 16.4453 45.3521 16.4352C45.3592 16.4251 45.3641 16.4137 45.3666 16.4017C45.4214 16.2716 45.4675 16.138 45.5045 16.0018H45.5147C45.5438 15.9882 45.5694 15.9684 45.5901 15.9438C45.6107 15.9193 45.6257 15.8906 45.634 15.8596C45.95 15.1018 46.32 14.3675 46.7411 13.6625C46.7888 13.5816 46.8262 13.4982 46.7598 13.4072C46.7611 13.4837 46.7409 13.5591 46.7019 13.625C46.3587 14.1973 46.0504 14.7898 45.7788 15.3993C45.6936 15.589 45.6357 15.7941 45.5147 15.9677C45.3061 15.9499 45.0966 15.9379 44.8888 15.9099C44.7824 15.8954 44.7279 15.9167 44.7262 16.0299C44.7234 16.0647 44.7186 16.0993 44.7117 16.1336C44.6393 16.2188 44.6716 16.3192 44.6716 16.4128C44.6814 16.5775 44.6679 16.7428 44.6317 16.9038C44.6231 17.0213 44.6231 17.1395 44.6035 17.2544C44.5856 17.3556 44.6206 17.3965 44.7177 17.4007C44.7462 17.4029 44.7747 17.4069 44.8028 17.4127C44.9638 17.485 44.9638 17.4842 44.9109 17.6569C44.9023 17.6896 44.8958 17.7229 44.8914 17.7565C45.0225 17.5625 45.0345 17.4833 44.8939 17.4092L44.8956 17.4135ZM46.7556 13.4072C46.7568 13.4837 46.7367 13.5591 46.6977 13.625C46.3544 14.1973 46.0461 14.7898 45.7745 15.3993C45.6894 15.589 45.6314 15.7941 45.5105 15.9677C45.3019 15.9499 45.0924 15.9379 44.8846 15.9099C44.7781 15.8954 44.7236 15.9167 44.7219 16.0299C44.7192 16.0647 44.7143 16.0993 44.7074 16.1336C44.635 16.2188 44.6674 16.3192 44.6674 16.4128C44.6771 16.5775 44.6636 16.7428 44.6274 16.9038C44.6189 17.0213 44.6189 17.1395 44.5993 17.2544C44.5814 17.3556 44.6163 17.3965 44.7134 17.4007C44.742 17.4029 44.7705 17.4069 44.7986 17.4127C44.9595 17.485 44.9595 17.4842 44.9067 17.6569C44.898 17.6896 44.8915 17.7229 44.8871 17.7565C45.0277 17.5667 45.0395 17.4875 44.8991 17.416C44.922 17.4148 44.945 17.4148 44.968 17.416C44.9783 17.4183 44.9889 17.4183 44.9992 17.4162C45.0095 17.4141 45.0192 17.4098 45.0278 17.4038C45.0364 17.3977 45.0436 17.3899 45.049 17.3809C45.0543 17.3719 45.0579 17.3618 45.0591 17.3514C45.1091 17.21 45.1478 17.0649 45.175 16.9174L44.7253 16.8663C44.716 16.865 44.7065 16.865 44.6972 16.8663C44.7315 16.7163 44.7421 16.5618 44.7287 16.4085C44.7421 16.4198 44.7589 16.4261 44.7764 16.4264C44.9374 16.4417 45.0983 16.457 45.2584 16.474C45.2703 16.477 45.2828 16.4776 45.2949 16.4757C45.307 16.4738 45.3187 16.4695 45.3291 16.463C45.3395 16.4564 45.3485 16.4479 45.3556 16.4378C45.3626 16.4277 45.3674 16.4163 45.37 16.4043C45.4248 16.2742 45.4709 16.1405 45.5079 16.0043H45.5182C45.5471 15.9907 45.5729 15.9709 45.5934 15.9464C45.614 15.9219 45.629 15.8931 45.6374 15.8622C45.9535 15.1043 46.3235 14.37 46.7445 13.665C46.7828 13.5774 46.8245 13.4939 46.7538 13.4029L46.7556 13.4072ZM49.3734 16.7694C49.3734 16.7413 49.3734 16.7132 49.3734 16.6843C49.3734 15.1905 49.3734 13.6971 49.3734 12.2039C49.3734 12.1188 49.3734 12.0337 49.3734 11.9486C49.3754 11.8912 49.3589 11.8348 49.3264 11.7875C49.2939 11.7402 49.2472 11.7045 49.1929 11.6857C49.1367 11.6618 49.074 11.6572 49.0149 11.6726C48.9557 11.6879 48.9033 11.7224 48.8659 11.7708C48.8233 11.8175 48.7807 11.8661 48.7398 11.9137C47.6118 13.2278 46.7159 14.7242 46.0904 16.3388C46.0497 16.4027 46.0322 16.4787 46.041 16.5541C46.1901 16.5702 46.3425 16.5889 46.4959 16.6043L48.5031 16.8068C48.7586 16.8314 49.014 16.851 49.2644 16.8783C49.3436 16.8774 49.3769 16.8476 49.3717 16.7651L49.3734 16.7694ZM47.0792 15.578L48.5764 13.2293L48.613 13.2429C48.7288 14.1509 48.8438 15.0589 48.9629 15.9983L47.0792 15.578ZM53.9722 22.9107C53.9254 23.132 53.8479 23.2971 53.8257 23.486C53.9358 23.5022 54.0478 23.4997 54.157 23.4783C54.1188 23.2808 54.0562 23.0887 53.9705 22.9065L53.9722 22.9107ZM57.9748 22.8086C57.7517 22.7593 57.704 22.7968 57.7032 23.0231C57.7032 23.2725 57.7653 23.3201 57.9961 23.2486C58.0446 23.2379 58.0874 23.21 58.1168 23.1701C58.1463 23.1302 58.1603 23.081 58.1562 23.0316C58.1602 22.9773 58.1433 22.9236 58.1089 22.8814C58.0745 22.8392 58.0254 22.8117 57.9714 22.8044L57.9748 22.8086ZM57.9748 22.8086C57.7517 22.7593 57.704 22.7968 57.7032 23.0231C57.7032 23.2725 57.7653 23.3201 57.9961 23.2486C58.0446 23.2379 58.0874 23.21 58.1168 23.1701C58.1463 23.1302 58.1603 23.081 58.1562 23.0316C58.1602 22.9773 58.1433 22.9236 58.1089 22.8814C58.0745 22.8392 58.0254 22.8117 57.9714 22.8044L57.9748 22.8086ZM53.9722 22.9107C53.9254 23.132 53.8479 23.2971 53.8257 23.486C53.9358 23.5022 54.0478 23.4997 54.157 23.4783C54.1188 23.2808 54.0562 23.0887 53.9705 22.9065L53.9722 22.9107ZM49.3734 16.7694C49.3734 16.7413 49.3734 16.7132 49.3734 16.6843C49.3734 15.1905 49.3734 13.6971 49.3734 12.2039C49.3734 12.1188 49.3734 12.0337 49.3734 11.9486C49.3754 11.8912 49.3589 11.8348 49.3264 11.7875C49.2939 11.7402 49.2472 11.7045 49.1929 11.6857C49.1367 11.6618 49.074 11.6572 49.0149 11.6726C48.9557 11.6879 48.9033 11.7224 48.8659 11.7708C48.8233 11.8175 48.7807 11.8661 48.7398 11.9137C47.6118 13.2278 46.7159 14.7242 46.0904 16.3388C46.0497 16.4027 46.0322 16.4787 46.041 16.5541C46.1901 16.5702 46.3425 16.5889 46.4959 16.6043L48.5031 16.8068C48.7586 16.8314 49.014 16.851 49.2644 16.8783C49.3436 16.8774 49.3769 16.8476 49.3717 16.7651L49.3734 16.7694ZM47.0792 15.578L48.5764 13.2293L48.613 13.2429C48.7288 14.1509 48.8438 15.0589 48.9629 15.9983L47.0792 15.578ZM46.7556 13.4072C46.7568 13.4837 46.7367 13.5591 46.6977 13.625C46.3544 14.1973 46.0461 14.7898 45.7745 15.3993C45.6894 15.589 45.6314 15.7941 45.5105 15.9677C45.3019 15.9499 45.0924 15.9379 44.8846 15.9099C44.7781 15.8954 44.7236 15.9167 44.7219 16.0299C44.7192 16.0647 44.7143 16.0993 44.7074 16.1336C44.635 16.2188 44.6674 16.3192 44.6674 16.4128C44.6771 16.5775 44.6636 16.7428 44.6274 16.9038C44.6189 17.0213 44.6189 17.1395 44.5993 17.2544C44.5814 17.3556 44.6163 17.3965 44.7134 17.4007C44.742 17.4029 44.7705 17.4069 44.7986 17.4127C44.9595 17.485 44.9595 17.4842 44.9067 17.6569C44.898 17.6896 44.8915 17.7229 44.8871 17.7565C45.0277 17.5667 45.0395 17.4875 44.8991 17.416C44.922 17.4148 44.945 17.4148 44.968 17.416C44.9783 17.4183 44.9889 17.4183 44.9992 17.4162C45.0095 17.4141 45.0192 17.4098 45.0278 17.4038C45.0364 17.3977 45.0436 17.3899 45.049 17.3809C45.0543 17.3719 45.0579 17.3618 45.0591 17.3514C45.1091 17.21 45.1478 17.0649 45.175 16.9174L44.7253 16.8663C44.716 16.865 44.7065 16.865 44.6972 16.8663C44.7315 16.7163 44.7421 16.5618 44.7287 16.4085C44.7421 16.4198 44.7589 16.4261 44.7764 16.4264C44.9374 16.4417 45.0983 16.457 45.2584 16.474C45.2703 16.477 45.2828 16.4776 45.2949 16.4757C45.307 16.4738 45.3187 16.4695 45.3291 16.463C45.3395 16.4564 45.3485 16.4479 45.3556 16.4378C45.3626 16.4277 45.3674 16.4163 45.37 16.4043C45.4248 16.2742 45.4709 16.1405 45.5079 16.0043H45.5182C45.5471 15.9907 45.5729 15.9709 45.5934 15.9464C45.614 15.9219 45.629 15.8931 45.6374 15.8622C45.9535 15.1043 46.3235 14.37 46.7445 13.665C46.7828 13.5774 46.8245 13.4939 46.7538 13.4029L46.7556 13.4072ZM53.9722 22.9107C53.9254 23.132 53.8479 23.2971 53.8257 23.486C53.9358 23.5022 54.0478 23.4997 54.157 23.4783C54.1188 23.2808 54.0562 23.0887 53.9705 22.9065L53.9722 22.9107ZM57.9748 22.8086C57.7517 22.7593 57.704 22.7968 57.7032 23.0231C57.7032 23.2725 57.7653 23.3201 57.9961 23.2486C58.0446 23.2379 58.0874 23.21 58.1168 23.1701C58.1463 23.1302 58.1603 23.081 58.1562 23.0316C58.1602 22.9773 58.1433 22.9236 58.1089 22.8814C58.0745 22.8392 58.0254 22.8117 57.9714 22.8044L57.9748 22.8086ZM57.9748 22.8086C57.7517 22.7593 57.704 22.7968 57.7032 23.0231C57.7032 23.2725 57.7653 23.3201 57.9961 23.2486C58.0446 23.2379 58.0874 23.21 58.1168 23.1701C58.1463 23.1302 58.1603 23.081 58.1562 23.0316C58.1602 22.9773 58.1433 22.9236 58.1089 22.8814C58.0745 22.8392 58.0254 22.8117 57.9714 22.8044L57.9748 22.8086ZM53.9722 22.9107C53.9254 23.132 53.8479 23.2971 53.8257 23.486C53.9358 23.5022 54.0478 23.4997 54.157 23.4783C54.1188 23.2808 54.0562 23.0887 53.9705 22.9065L53.9722 22.9107ZM53.9722 22.9107C53.9254 23.132 53.8479 23.2971 53.8257 23.486C53.9358 23.5022 54.0478 23.4997 54.157 23.4783C54.1188 23.2808 54.0562 23.0887 53.9705 22.9065L53.9722 22.9107ZM57.9748 22.8086C57.7517 22.7593 57.704 22.7968 57.7032 23.0231C57.7032 23.2725 57.7653 23.3201 57.9961 23.2486C58.0446 23.2379 58.0874 23.21 58.1168 23.1701C58.1463 23.1302 58.1603 23.081 58.1562 23.0316C58.1602 22.9773 58.1433 22.9236 58.1089 22.8814C58.0745 22.8392 58.0254 22.8117 57.9714 22.8044L57.9748 22.8086ZM57.9748 22.8086C57.7517 22.7593 57.704 22.7968 57.7032 23.0231C57.7032 23.2725 57.7653 23.3201 57.9961 23.2486C58.0446 23.2379 58.0874 23.21 58.1168 23.1701C58.1463 23.1302 58.1603 23.081 58.1562 23.0316C58.1602 22.9773 58.1433 22.9236 58.1089 22.8814C58.0745 22.8392 58.0254 22.8117 57.9714 22.8044L57.9748 22.8086ZM53.9722 22.9107C53.9254 23.132 53.8479 23.2971 53.8257 23.486C53.9358 23.5022 54.0478 23.4997 54.157 23.4783C54.1188 23.2808 54.0562 23.0887 53.9705 22.9065L53.9722 22.9107ZM53.9722 22.9107C53.9254 23.132 53.8479 23.2971 53.8257 23.486C53.9358 23.5022 54.0478 23.4997 54.157 23.4783C54.1188 23.2808 54.0562 23.0887 53.9705 22.9065L53.9722 22.9107ZM57.9748 22.8086C57.7517 22.7593 57.704 22.7968 57.7032 23.0231C57.7032 23.2725 57.7653 23.3201 57.9961 23.2486C58.0446 23.2379 58.0874 23.21 58.1168 23.1701C58.1463 23.1302 58.1603 23.081 58.1562 23.0316C58.1602 22.9773 58.1433 22.9236 58.1089 22.8814C58.0745 22.8392 58.0254 22.8117 57.9714 22.8044L57.9748 22.8086ZM57.9748 22.8086C57.7517 22.7593 57.704 22.7968 57.7032 23.0231C57.7032 23.2725 57.7653 23.3201 57.9961 23.2486C58.0446 23.2379 58.0874 23.21 58.1168 23.1701C58.1463 23.1302 58.1603 23.081 58.1562 23.0316C58.1602 22.9773 58.1433 22.9236 58.1089 22.8814C58.0745 22.8392 58.0254 22.8117 57.9714 22.8044L57.9748 22.8086ZM53.9722 22.9107C53.9254 23.132 53.8479 23.2971 53.8257 23.486C53.9358 23.5022 54.0478 23.4997 54.157 23.4783C54.1188 23.2808 54.0562 23.0887 53.9705 22.9065L53.9722 22.9107Z" fill="#FEFEFE"/>
<path d="M30.7658 20.5947H33.3206C33.37 20.5947 33.4203 20.5947 33.4697 20.5947C33.5472 20.5904 33.5923 20.6176 33.5863 20.7027C33.5863 20.7453 33.5863 20.7878 33.5863 20.8304V24.5934C33.5863 24.6283 33.5863 24.664 33.5863 24.6989C33.5923 24.784 33.5591 24.8342 33.4663 24.8291C33.4237 24.8291 33.3811 24.8291 33.3385 24.8291H28.2092C28.1666 24.8291 28.124 24.8291 28.0815 24.8291C28.0023 24.8333 27.9614 24.801 27.9656 24.7184C27.9656 24.6827 27.9656 24.6479 27.9656 24.6121C27.9656 23.3509 27.9656 22.0898 27.9656 20.8287C27.9656 20.5734 27.9495 20.5955 28.1897 20.5955L30.7658 20.5947Z" fill="#FEFEFE"/>
<path d="M4.64943 1.16754H7.20429C7.25453 1.16754 7.30393 1.16754 7.35332 1.16754C7.424 1.16754 7.45807 1.19648 7.45551 1.26881C7.45551 1.31136 7.45551 1.35391 7.45551 1.39646C7.45551 2.59973 7.45551 3.80385 7.45551 5.00712C7.44574 5.12816 7.41308 5.24627 7.35928 5.35516C7.35362 5.37255 7.34193 5.38734 7.32631 5.39685C7.31069 5.40637 7.29218 5.41 7.27412 5.40707H2.07242C1.82204 5.40707 1.83823 5.43686 1.83823 5.18497V1.38284C1.83823 1.34795 1.83823 1.31222 1.83823 1.27732C1.83227 1.19223 1.87229 1.16244 1.95234 1.16754C2.00174 1.16754 2.05198 1.16754 2.10138 1.16754H4.64943Z" fill="#FEFEFE"/>
<path d="M24.0214 19.8835H21.4665C21.4163 19.8835 21.3669 19.8835 21.3174 19.8835C21.2323 19.8885 21.2016 19.8502 21.2076 19.7703C21.2076 19.7277 21.2076 19.6851 21.2076 19.6426V15.8992C21.2076 15.8635 21.2076 15.8277 21.2076 15.7928C21.1973 15.6958 21.2297 15.643 21.3361 15.655C21.3717 15.6571 21.4072 15.6571 21.4426 15.655H26.5889C26.8581 15.655 26.8257 15.6346 26.8265 15.8958C26.8265 17.1438 26.8265 18.3902 26.8265 19.6349V19.6562C26.8265 19.8868 26.853 19.8783 26.6128 19.8783H24.0214V19.8835Z" fill="#FEFEFE"/>
<path d="M11.04 10.3521H8.48511C8.43571 10.3521 8.38546 10.3521 8.33605 10.3521C8.26706 10.3521 8.22959 10.3275 8.23299 10.2535C8.23299 10.2109 8.23299 10.1683 8.23299 10.1258V6.36024C8.23299 6.31769 8.23299 6.27514 8.23299 6.23344C8.22703 6.14835 8.26791 6.11771 8.34708 6.12197C8.38967 6.12197 8.43226 6.12197 8.47484 6.12197H13.6007C13.6152 6.12197 13.6297 6.12197 13.6433 6.12197C13.8503 6.12197 13.8511 6.12197 13.8511 6.32875C13.8511 7.59669 13.8511 8.8646 13.8511 10.1326C13.8511 10.1752 13.8511 10.2177 13.8511 10.2602C13.8511 10.3215 13.8222 10.3453 13.7609 10.3453C13.6995 10.3453 13.6621 10.3453 13.6118 10.3453L11.04 10.3521Z" fill="#FEFEFE"/>
<path d="M17.6238 10.8418H20.1786C20.228 10.8418 20.2783 10.8418 20.3277 10.8418C20.3967 10.8418 20.4333 10.8716 20.4316 10.9431C20.4316 10.9856 20.4316 11.0282 20.4316 11.0707C20.4316 12.2326 20.4316 13.3955 20.4316 14.5597C20.4316 14.6448 20.4623 14.7452 20.3609 14.809C20.3447 14.8192 20.3456 14.8609 20.3405 14.8882C20.3089 15.0737 20.3089 15.0746 20.1284 15.0746H15.0204C14.9847 15.0746 14.9497 15.0746 14.914 15.0746C14.8433 15.0788 14.8083 15.049 14.8118 14.9758C14.8118 14.9333 14.8118 14.8907 14.8118 14.8481V11.0622C14.8118 11.0273 14.8118 10.9916 14.8118 10.9567C14.8066 10.8767 14.8407 10.8384 14.9225 10.8426C14.9727 10.8426 15.0221 10.8426 15.0715 10.8426L17.6238 10.8418Z" fill="#FEFEFE"/>
<path d="M11.2356 1.16808H13.7905C13.8407 1.16808 13.8901 1.16808 13.9395 1.16808C13.9889 1.16808 14.0332 1.19191 14.0332 1.25318C14.0332 1.30253 14.0332 1.35189 14.0332 1.40125C14.0332 2.60621 14.0332 3.81062 14.0332 5.01446C14.0332 5.26974 14.0545 5.24507 13.8084 5.24507C12.0847 5.24507 10.3613 5.24507 8.63814 5.24507C8.60977 5.24337 8.58141 5.24337 8.55305 5.24507C8.43631 5.25953 8.41333 5.19911 8.41333 5.0953C8.41333 3.83416 8.41333 2.57303 8.41333 1.31189C8.41333 1.16723 8.41333 1.16553 8.59648 1.16553L11.2356 1.16808Z" fill="#FEFEFE"/>
<path d="M17.8065 1.16776H20.5317C20.5424 1.16682 20.5531 1.16825 20.5632 1.17196C20.5732 1.17567 20.5823 1.18156 20.5898 1.18922C20.5973 1.19687 20.603 1.2061 20.6066 1.21621C20.61 1.22634 20.6113 1.23711 20.6101 1.24775C20.6101 1.2903 20.6101 1.33285 20.6101 1.37455V5.03371C20.6101 5.06945 20.6101 5.10434 20.6101 5.14008C20.6169 5.22518 20.576 5.25496 20.496 5.24986C20.4542 5.24986 20.4108 5.24986 20.369 5.24986H15.1741C14.9817 5.24986 14.9886 5.26007 14.9886 5.06435V1.36348C14.9886 1.3286 14.9886 1.29285 14.9886 1.25711C14.9886 1.19584 15.0184 1.16691 15.0796 1.17202C15.141 1.17712 15.1784 1.17202 15.2278 1.17202L17.8065 1.16776Z" fill="#FEFEFE"/>
<path d="M24.3606 5.24636H21.8058C21.7564 5.24636 21.7069 5.24636 21.6567 5.24636C21.5835 5.24636 21.5554 5.21147 21.5596 5.14169C21.5596 5.10681 21.5596 5.07106 21.5596 5.03533V1.38127C21.5596 1.35999 21.5596 1.33872 21.5596 1.31744C21.5485 1.21278 21.5826 1.15321 21.6993 1.16767C21.7342 1.16767 21.77 1.16767 21.8058 1.16767H27.0006C27.1803 1.16767 27.182 1.16767 27.1829 1.35914V4.18606C27.1829 4.46177 27.1829 4.73834 27.1829 5.0149C27.1829 5.29147 27.2016 5.24636 26.935 5.24636H24.3606Z" fill="#FEFEFE"/>
<path d="M30.9366 1.16775H33.6813C33.6919 1.16684 33.7026 1.16827 33.7126 1.17193C33.7227 1.17558 33.7318 1.18138 33.7393 1.18891C33.7469 1.19646 33.7527 1.20555 33.7563 1.21557C33.76 1.22557 33.7614 1.23626 33.7605 1.24689C33.7605 1.28943 33.7605 1.33199 33.7605 1.37454C33.7605 2.59312 33.7605 3.81284 33.7605 5.03369C33.7605 5.06944 33.7605 5.10518 33.7605 5.14006C33.7673 5.22517 33.7273 5.2558 33.6472 5.25069C33.6046 5.25069 33.562 5.25069 33.5195 5.25069H28.3501C28.1288 5.25069 28.1433 5.27197 28.1433 5.04476C28.1433 3.82617 28.1433 2.60645 28.1433 1.38559C28.1433 1.34305 28.1433 1.3005 28.1433 1.25795C28.1433 1.19668 28.1713 1.16775 28.2335 1.1686C28.2829 1.1686 28.3323 1.1686 28.3825 1.1686L30.9366 1.16775Z" fill="#FEFEFE"/>
<path d="M30.6007 15.6557H33.1555H33.3259C33.3364 15.6546 33.3471 15.6559 33.3571 15.6595C33.3671 15.663 33.3761 15.6687 33.3836 15.6763C33.3911 15.6838 33.3969 15.6928 33.4005 15.7028C33.404 15.7128 33.4054 15.7234 33.4043 15.734C33.4043 15.7842 33.4043 15.8335 33.4043 15.8828C33.4043 17.0873 33.4043 18.2917 33.4043 19.4961C33.4043 19.7386 33.4204 19.7284 33.1743 19.7284H28.0254C27.9829 19.7284 27.9403 19.7284 27.8977 19.7284C27.8168 19.7284 27.7819 19.691 27.7852 19.6118C27.7852 19.5693 27.7852 19.5267 27.7852 19.4842V15.8939C27.7852 15.8514 27.7852 15.8088 27.7852 15.7663C27.7793 15.6812 27.8193 15.6514 27.8994 15.6557C27.9488 15.6557 27.9982 15.6557 28.0476 15.6557H30.6007Z" fill="#FEFEFE"/>
<path d="M24.2071 10.8418H26.716C26.7654 10.8418 26.8157 10.8418 26.8651 10.8418C26.9588 10.835 27.0175 10.8614 27.0039 10.9703C27.0018 10.9987 27.0018 11.0271 27.0039 11.0554V14.5605C27.0039 14.5954 27.0039 14.6312 27.0039 14.6661C27.0107 14.7512 26.9749 14.7835 26.8932 14.7785C26.8514 14.7785 26.808 14.7785 26.7663 14.7785H21.6199C21.3517 14.7785 21.3848 14.7946 21.3848 14.5351C21.3848 13.3811 21.3848 12.2269 21.3848 11.0724C21.3848 10.8358 21.3567 10.8418 21.6131 10.8418C22.4783 10.843 23.3431 10.843 24.2071 10.8418Z" fill="#FEFEFE"/>
<path d="M30.7602 14.7773H28.2283C28.178 14.7773 28.1286 14.7773 28.0793 14.7773C27.9992 14.7823 27.9609 14.7492 27.966 14.6666C27.966 14.6249 27.966 14.5815 27.966 14.5398C27.966 13.3842 27.966 12.2291 27.966 11.0747C27.966 10.827 27.9413 10.8415 28.1917 10.8415H33.4257C33.5791 10.8466 33.5816 10.8466 33.5841 10.9955C33.5841 11.187 33.5841 11.3785 33.5841 11.57V14.5219C33.5841 14.5713 33.5841 14.6207 33.5841 14.6709C33.5841 14.7407 33.556 14.7755 33.4836 14.7738C33.4343 14.7738 33.3849 14.7738 33.3355 14.7738L30.7602 14.7773Z" fill="#FEFEFE"/>
<path d="M17.6088 9.96951H15.054C15.0038 9.96951 14.9544 9.96951 14.905 9.96951C14.8556 9.96951 14.8113 9.94739 14.8113 9.88448C14.8113 9.84192 14.8113 9.79937 14.8113 9.75681V6.3342C14.8113 6.29931 14.8113 6.26357 14.8113 6.22783C14.8113 6.15975 14.8351 6.12061 14.9092 6.12316C14.9586 6.12316 15.008 6.12316 15.0582 6.12316H20.185C20.2062 6.12316 20.2275 6.12316 20.2488 6.12316C20.426 6.12316 20.4277 6.12316 20.4302 6.29335C20.4302 6.42781 20.4302 6.56226 20.4302 6.69671V9.7151C20.4302 9.76447 20.4302 9.81383 20.4302 9.8632C20.4302 9.93376 20.4022 9.96867 20.3306 9.96698C20.2804 9.96698 20.231 9.96698 20.1816 9.96698L17.6088 9.96951Z" fill="#FEFEFE"/>
<path d="M24.1767 9.96938H21.6448C21.5946 9.96938 21.5452 9.96938 21.4958 9.96938C21.4107 9.97451 21.3783 9.93876 21.3842 9.8571C21.3842 9.81455 21.3842 9.77199 21.3842 9.72943V6.32556C21.3842 6.12048 21.3842 6.11963 21.5954 6.11963C23.0495 6.11963 24.5034 6.11963 25.9574 6.11963C26.2555 6.11963 26.5536 6.11963 26.8507 6.11963C26.999 6.11963 27.0023 6.11963 27.0023 6.27535C27.0023 7.4514 27.0023 8.6277 27.0023 9.80428C27.0023 9.96256 27.0023 9.96517 26.8363 9.96517C25.9495 9.96912 25.063 9.97055 24.1767 9.96938Z" fill="#FEFEFE"/>
<path d="M30.7718 9.96961H28.2169C28.1675 9.96961 28.1181 9.96961 28.0688 9.96961C27.9981 9.96961 27.9623 9.94497 27.9657 9.87088C27.9657 9.82832 27.9657 9.78576 27.9657 9.74329V6.34364C27.9657 6.3079 27.9657 6.27215 27.9657 6.23727C27.9615 6.15813 27.9938 6.11813 28.0765 6.12239C28.1258 6.12239 28.1752 6.12239 28.2254 6.12239C29.9287 6.12239 31.6305 6.12239 33.331 6.12239C33.6085 6.12239 33.5864 6.10282 33.5864 6.37172C33.5864 7.4916 33.5864 8.61086 33.5864 9.72967C33.5864 9.77222 33.5864 9.8147 33.5864 9.85725C33.5924 9.94236 33.5541 9.97298 33.474 9.96961C33.4238 9.96961 33.3744 9.96961 33.325 9.96961H30.7718Z" fill="#FEFEFE"/>
<path d="M34.9143 36.151C34.5567 35.1526 34.1973 34.1547 33.8362 33.1573C33.5892 32.4723 33.3397 31.7873 33.097 31.1005C33.0586 30.9925 33.0118 30.9389 32.8884 30.9465C32.6976 30.9576 32.506 30.9465 32.3143 30.9465C32.0589 30.9465 32.1049 30.9218 32.0205 31.1567C31.4977 32.6067 30.975 34.0568 30.4527 35.5069C30.3522 35.7851 30.2526 36.0634 30.1418 36.3723C30.411 36.3723 30.6443 36.3672 30.8776 36.3723C30.8982 36.3754 30.919 36.3745 30.9392 36.3695C30.9593 36.3645 30.9782 36.3556 30.9948 36.3432C31.0115 36.3308 31.0254 36.3153 31.036 36.2975C31.0466 36.2798 31.0536 36.26 31.0565 36.2396C31.1783 35.8702 31.3069 35.5034 31.4372 35.1333C31.513 34.9214 31.4636 34.9299 31.7131 34.9299C32.2445 34.9299 32.7759 34.9257 33.3082 34.9299C33.6948 34.9299 33.6003 34.8627 33.7298 35.2243C33.8507 35.5647 33.9648 35.9051 34.0849 36.2455C34.1045 36.3016 34.1147 36.368 34.205 36.3663C34.4604 36.3621 34.71 36.3663 34.9578 36.3663C34.9671 36.2917 34.9519 36.2162 34.9143 36.151ZM31.7514 34.2372C32.0205 33.4628 32.282 32.7055 32.5443 31.949H32.592L33.3865 34.2406L31.7514 34.2372Z" fill="#FEFEFE"/>
<path d="M0.312081 34.8806H1.0334C1.09728 34.8806 1.11345 34.9129 1.12538 34.9657C1.21054 35.398 1.50605 35.6133 1.91142 35.6984C2.31679 35.7835 2.71791 35.7708 3.08921 35.5614C3.20761 35.5033 3.309 35.4158 3.38359 35.307C3.45819 35.1984 3.50346 35.0723 3.51502 34.941C3.53088 34.8244 3.51282 34.7056 3.46298 34.599C3.41316 34.4923 3.33366 34.4022 3.23399 34.3394C3.04188 34.2185 2.83175 34.1288 2.61146 34.0739C2.35597 33.9973 2.09197 33.931 1.83222 33.8595C1.55022 33.7874 1.28165 33.6704 1.03681 33.5131C0.881633 33.4136 0.749063 33.2826 0.647668 33.1287C0.546269 32.9748 0.478289 32.8014 0.448116 32.6196C0.417943 32.4378 0.426247 32.2517 0.472492 32.0733C0.518736 31.8949 0.601895 31.7283 0.7166 31.584C0.843927 31.4125 1.00729 31.2711 1.19521 31.1696C1.92079 30.79 2.66511 30.7636 3.40942 31.1074C3.64051 31.2047 3.84135 31.3619 3.99109 31.5629C4.14084 31.7638 4.23405 32.0012 4.26104 32.2503C4.26329 32.292 4.26329 32.3337 4.26104 32.3754C4.0243 32.3754 3.7918 32.3754 3.5593 32.3754C3.49884 32.3754 3.47415 32.3482 3.46223 32.2903C3.37706 31.9124 3.10966 31.7235 2.75793 31.6333C2.46776 31.5576 2.16218 31.5643 1.87565 31.6529C1.72507 31.6965 1.58759 31.7766 1.47539 31.8861C1.40011 31.9543 1.34151 32.0389 1.30413 32.1334C1.26675 32.2278 1.25159 32.3296 1.25983 32.4308C1.26805 32.532 1.29945 32.63 1.35159 32.7172C1.40373 32.8044 1.47523 32.8784 1.56056 32.9336C1.73228 33.0474 1.92246 33.1306 2.12262 33.1795C2.38918 33.2518 2.65745 33.3191 2.924 33.3923C3.18418 33.4622 3.43369 33.567 3.66576 33.7037C4.60595 34.2645 4.47821 35.5112 3.7884 36.0311C3.50482 36.2469 3.1694 36.3842 2.81585 36.4294C2.34655 36.5075 1.86538 36.4725 1.41238 36.3273C0.848598 36.1307 0.466224 35.7631 0.330816 35.1699C0.305659 35.0757 0.299293 34.9774 0.312081 34.8806Z" fill="#FEFEFE"/>
<path d="M52.3659 32.4146C52.3336 32.0764 52.1934 31.7574 51.9658 31.5049C51.7382 31.2523 51.4355 31.0797 51.1022 31.0122C50.9343 30.9753 50.763 30.9567 50.5912 30.9569C49.9738 30.9518 49.3572 30.9501 48.7398 30.9467C48.7256 30.9476 48.7114 30.9476 48.6972 30.9467C48.5907 30.9356 48.5601 30.991 48.5678 31.0862C48.572 31.1288 48.5678 31.1714 48.5678 31.2139V36.1257C48.5678 36.1751 48.5678 36.2253 48.5678 36.2746C48.5678 36.3452 48.5933 36.3767 48.6666 36.3759C48.8726 36.3759 49.0779 36.3759 49.2839 36.3759C49.3563 36.3759 49.387 36.3452 49.3827 36.2729C49.3827 36.2235 49.3827 36.1741 49.3827 36.124V34.6773C49.3827 34.4399 49.3734 34.4646 49.6059 34.4638C49.9244 34.4638 50.2434 34.4638 50.5631 34.4638C50.7334 34.467 50.9036 34.4496 51.0698 34.4118C51.7375 34.2518 52.1667 33.8493 52.3276 33.1745C52.3844 32.9254 52.3974 32.6682 52.3659 32.4146ZM51.5067 33.1005C51.3849 33.497 51.0596 33.7464 50.5929 33.7685C50.2318 33.7855 49.8699 33.7685 49.5079 33.777C49.4117 33.777 49.387 33.737 49.3879 33.6493C49.3879 33.3379 49.3879 33.0265 49.3879 32.7133C49.3879 32.4002 49.3879 32.104 49.3879 31.7993C49.3879 31.6947 49.4125 31.6479 49.5292 31.6505C49.8699 31.6581 50.2105 31.6504 50.5511 31.6555C50.6648 31.658 50.7776 31.6769 50.8859 31.7117C51.2947 31.8326 51.499 32.1236 51.5526 32.5312C51.5785 32.722 51.5628 32.9162 51.5067 33.1005Z" fill="#FEFEFE"/>
<path d="M15.3188 34.5842C15.4287 34.5842 15.4653 34.5511 15.4653 34.4395C15.4695 34.2117 15.4538 33.9838 15.4185 33.7586C15.3154 33.1858 15.0522 32.7151 14.5113 32.4478C13.668 32.0316 12.3962 32.2163 11.9311 33.4411C11.7574 33.9031 11.7179 34.4047 11.8171 34.8882C11.9618 35.644 12.369 36.1819 13.1399 36.393C13.4155 36.4648 13.7023 36.4836 13.9849 36.4483C14.4201 36.4007 14.8112 36.25 15.1101 35.9129C15.2554 35.7594 15.3548 35.5684 15.3972 35.3613C15.1877 35.3231 14.9849 35.2941 14.7864 35.2473C14.7691 35.24 14.7504 35.2363 14.7315 35.2367C14.7127 35.237 14.6941 35.2414 14.6771 35.2495C14.66 35.2575 14.6448 35.269 14.6325 35.2833C14.6203 35.2977 14.6112 35.3143 14.6058 35.3324C14.5211 35.5075 14.3722 35.6434 14.1901 35.712C13.4755 35.9929 12.5538 35.638 12.5777 34.5792H13.8052C14.3111 34.5826 14.8154 34.58 15.3188 34.5842ZM12.697 33.9884C12.5692 33.9884 12.5581 33.9757 12.5785 33.8565C12.7012 33.1441 13.3554 32.727 14.059 32.9858C14.4474 33.1288 14.6323 33.4497 14.6749 33.8565C14.6859 33.9604 14.6518 33.9927 14.5488 33.991C14.237 33.9859 13.9244 33.991 13.6118 33.991C13.2992 33.991 13.0019 33.991 12.697 33.9884Z" fill="#FEFEFE"/>
<path d="M18.328 32.9603C18.3482 32.9578 18.3674 32.9499 18.3837 32.9375C18.3998 32.925 18.4124 32.9085 18.4199 32.8896C18.8459 32.0751 19.9958 32.133 20.4814 32.5424C20.8008 32.8113 20.9371 33.1688 20.9592 33.5723C20.9754 33.8693 20.9677 34.1681 20.9677 34.4651C20.9677 35.0388 20.9677 35.6128 20.9677 36.187C20.9677 36.3742 20.9677 36.3751 20.7888 36.3759C20.633 36.3759 20.4763 36.3692 20.3212 36.3759C20.2028 36.3827 20.1782 36.3325 20.1815 36.2279C20.1875 36.0508 20.1815 35.8738 20.1815 35.6967C20.1815 35.1151 20.1815 34.5338 20.1815 33.9527C20.1873 33.7823 20.1613 33.6123 20.1048 33.4514C20.0618 33.3267 19.9863 33.2157 19.8862 33.1296C19.786 33.0436 19.6649 32.9858 19.535 32.962C18.8876 32.8266 18.3723 33.2343 18.3646 33.9034C18.3552 34.6472 18.3646 35.3912 18.3646 36.1359C18.3646 36.399 18.4021 36.3709 18.127 36.3726C17.9779 36.3726 17.8288 36.3726 17.6798 36.3726C17.5946 36.3726 17.563 36.3403 17.5707 36.2585C17.5707 36.2168 17.5707 36.1734 17.5707 36.1308V32.5424C17.5707 32.4998 17.5707 32.4572 17.5707 32.4147C17.5665 32.3295 17.6091 32.304 17.6875 32.3049C17.8646 32.3049 18.0418 32.3049 18.2198 32.3049C18.305 32.3049 18.3322 32.338 18.3305 32.418C18.3263 32.5926 18.328 32.7679 18.328 32.9603Z" fill="#FEFEFE"/>
<path d="M62.5107 32.9573C62.6007 32.7732 62.734 32.6138 62.8991 32.4925C63.3753 32.1844 63.8779 32.1734 64.3795 32.3989C64.8651 32.6168 65.0491 33.0475 65.0968 33.5471C65.113 33.7233 65.1053 33.9012 65.1053 34.0783C65.1053 34.787 65.1053 35.4963 65.1053 36.2061C65.1053 36.3764 65.1053 36.3764 64.929 36.3764C64.7731 36.3764 64.6164 36.3696 64.4605 36.3764C64.3455 36.3832 64.3174 36.3355 64.3174 36.2292C64.3208 35.6617 64.3208 35.0942 64.3174 34.5268C64.3288 34.2506 64.3231 33.9741 64.3003 33.6986C64.2407 33.2475 63.9886 32.9845 63.5474 32.9411C63.1393 32.9011 62.7535 33.0772 62.5848 33.4884C62.5248 33.6403 62.4958 33.8026 62.4996 33.9659C62.4996 34.682 62.4996 35.3978 62.4996 36.1133C62.4996 36.1627 62.4996 36.2129 62.4996 36.2623C62.5056 36.3474 62.4681 36.3747 62.3872 36.3738C62.1958 36.3704 62.0044 36.3704 61.8131 36.3738C61.7279 36.3738 61.6964 36.3406 61.7014 36.2598C61.7014 36.2181 61.7014 36.1746 61.7014 36.1329V32.5436C61.7014 32.501 61.7014 32.4584 61.7014 32.4159C61.7014 32.3495 61.7237 32.3061 61.7969 32.3061C61.9885 32.3061 62.1802 32.3061 62.3719 32.3061C62.4493 32.3061 62.4648 32.3513 62.4648 32.4168C62.4648 32.5921 62.4648 32.7674 62.4648 32.942L62.5107 32.9573Z" fill="#FEFEFE"/>
<path d="M9.86365 33.6174C9.62768 33.6174 9.4088 33.6174 9.19068 33.6174C9.16306 33.6198 9.13553 33.6119 9.11339 33.5953C9.09117 33.5786 9.07593 33.5544 9.07063 33.5271C8.92835 33.1544 8.66595 32.9399 8.25626 32.9246C7.82269 32.9083 7.48963 33.0862 7.29968 33.4702C7.15263 33.7513 7.07818 34.0647 7.08309 34.3819C7.088 34.6991 7.17211 35.01 7.32779 35.2865C7.56374 35.724 7.99306 35.8576 8.45641 35.7572C8.59406 35.7313 8.7221 35.6688 8.82708 35.5762C8.93206 35.4836 9.01001 35.3644 9.0527 35.2312C9.05741 35.2079 9.06667 35.1856 9.07989 35.1659C9.09319 35.1461 9.11028 35.1292 9.13015 35.1161C9.15001 35.103 9.17232 35.0939 9.19573 35.0893C9.21913 35.0849 9.24321 35.085 9.26653 35.0899C9.45729 35.0984 9.64814 35.0899 9.85422 35.0899C9.86171 35.1761 9.85153 35.263 9.82442 35.3452C9.65411 35.9691 9.10893 36.3982 8.41558 36.4517C8.16094 36.477 7.90386 36.458 7.65574 36.3956C7.3894 36.3291 7.1434 36.1985 6.93924 36.0151C6.73507 35.8317 6.57894 35.6011 6.4845 35.3435C6.22996 34.7266 6.22416 34.0351 6.46832 33.414C6.7886 32.573 7.5663 32.1576 8.45726 32.27C8.79837 32.3035 9.12097 32.4407 9.38152 32.6632C9.52127 32.7823 9.63585 32.928 9.71868 33.0918C9.80144 33.2557 9.85069 33.4343 9.86365 33.6174Z" fill="#FEFEFE"/>
<path d="M41.5613 34.28C41.5613 33.8911 41.5613 33.5022 41.5613 33.1125C41.5613 32.9422 41.5613 32.9422 41.3841 32.9422C41.2777 32.9422 41.1712 32.9422 41.0648 32.9422C40.9933 32.9422 40.9635 32.915 40.9652 32.8418C40.9652 32.7005 40.9652 32.5593 40.9652 32.4164C40.9652 32.3312 41.0018 32.3048 41.0801 32.3066C41.2001 32.3066 41.3211 32.3066 41.4412 32.3066C41.5332 32.3066 41.5647 32.2742 41.563 32.1831C41.5587 31.95 41.563 31.716 41.563 31.4828C41.563 31.379 41.5817 31.3246 41.7018 31.3305C41.8781 31.3382 42.056 31.3365 42.2332 31.3305C42.3397 31.3305 42.3643 31.3739 42.3627 31.4709C42.3575 31.7041 42.3627 31.9381 42.3627 32.1713C42.3627 32.2709 42.3899 32.3108 42.4938 32.3074C42.6854 32.3006 42.877 32.3074 43.0678 32.3074C43.153 32.3074 43.2024 32.3329 43.193 32.4274C43.1768 32.5976 43.2245 32.7678 43.1674 32.9295C43.0209 32.9482 42.8729 32.9525 42.7254 32.9422C42.3643 32.9422 42.3643 32.9422 42.3643 33.2954C42.3643 33.9039 42.3643 34.5131 42.3643 35.1216C42.3643 35.6322 42.5236 35.77 43.0235 35.7105C43.1087 35.7011 43.1359 35.7232 43.1513 35.8015C43.1793 35.9538 43.2151 36.1053 43.2518 36.2568C43.2653 36.313 43.2603 36.3469 43.1998 36.3725C42.7578 36.5597 42.074 36.3895 41.7768 36.0194C41.6389 35.846 41.5653 35.6306 41.5681 35.4092C41.5681 35.0339 41.5681 34.6587 41.5681 34.2833L41.5613 34.28Z" fill="#FEFEFE"/>
<path d="M23.5419 34.281V33.1586C23.5419 32.945 23.5419 32.945 23.318 32.9442C23.2328 32.9442 23.1476 32.9442 23.0624 32.9442C22.9773 32.9442 22.9424 32.9297 22.945 32.8403C22.9501 32.6983 22.945 32.557 22.945 32.4148C22.945 32.3297 22.9875 32.3059 23.0642 32.3084C23.1638 32.3084 23.2626 32.3084 23.3622 32.3084C23.5385 32.3084 23.5403 32.3084 23.5411 32.1383C23.5411 31.9187 23.5479 31.6992 23.5411 31.4796C23.5368 31.3639 23.5811 31.3316 23.6892 31.3358C23.8596 31.3426 24.0299 31.3435 24.2002 31.3358C24.3058 31.3316 24.3331 31.375 24.3305 31.4736C24.3254 31.7001 24.3305 31.9264 24.3305 32.1545C24.3305 32.3076 24.3305 32.3094 24.4812 32.3119C24.6652 32.3119 24.8501 32.3119 25.034 32.3119C25.1311 32.3119 25.1779 32.3374 25.1719 32.4438C25.1655 32.5711 25.1655 32.6986 25.1719 32.8258C25.1762 32.9194 25.1387 32.951 25.0484 32.9484C24.8569 32.9484 24.6652 32.9527 24.4744 32.9484C24.3637 32.9484 24.3271 32.9833 24.328 33.0948C24.3323 33.7959 24.328 34.4972 24.3323 35.1983C24.3325 35.248 24.3371 35.2976 24.3459 35.3464C24.3919 35.6111 24.5221 35.7242 24.793 35.7379C24.8214 35.7358 24.8498 35.7358 24.8782 35.7379C24.9522 35.7515 25.0382 35.6638 25.0962 35.7379C25.1284 35.8004 25.1481 35.8686 25.1541 35.9387C25.1719 36.0136 25.1898 36.0902 25.206 36.1659C25.2477 36.3616 25.2469 36.3718 25.0561 36.405C24.763 36.4698 24.4573 36.4467 24.1772 36.3387C23.7897 36.1744 23.5649 35.8843 23.5521 35.4587C23.5403 35.069 23.5521 34.6793 23.5521 34.2895L23.5419 34.281Z" fill="#FEFEFE"/>
<path d="M67.6858 34.2749C67.6858 33.8851 67.6858 33.4953 67.6858 33.1056C67.6858 32.9439 67.6858 32.943 67.5154 32.9397C67.4021 32.9397 67.2889 32.9397 67.1748 32.9397C67.1625 32.9415 67.1499 32.9405 67.1381 32.9366C67.1263 32.9328 67.1155 32.9262 67.1068 32.9174C67.0979 32.9086 67.0914 32.8979 67.0875 32.8861C67.0836 32.8743 67.0826 32.8617 67.0845 32.8494C67.0845 32.7006 67.0845 32.5516 67.0793 32.4035C67.0793 32.3295 67.1186 32.3049 67.1875 32.3065C67.3076 32.3065 67.4286 32.3023 67.5487 32.3065C67.6508 32.3065 67.6866 32.2691 67.684 32.1695C67.684 31.95 67.684 31.7305 67.684 31.5109C67.684 31.3407 67.684 31.3356 67.8628 31.3313C68.0187 31.3313 68.1746 31.3364 68.3304 31.3313C68.4445 31.3271 68.4752 31.3755 68.4726 31.4836C68.4658 31.71 68.4726 31.9363 68.4726 32.1644C68.4683 32.2793 68.5144 32.3125 68.6217 32.3082C68.7843 32.3023 68.9478 32.3082 69.1105 32.3082C69.314 32.3082 69.314 32.3082 69.3149 32.5218C69.3149 32.6214 69.3149 32.7201 69.3149 32.8197C69.3149 32.9192 69.2816 32.9448 69.1914 32.943C69.0001 32.9397 68.8085 32.9397 68.6166 32.943C68.4778 32.943 68.4743 32.949 68.4743 33.1133C68.4743 33.8077 68.4743 34.502 68.4743 35.1956C68.4743 35.6048 68.6753 35.7725 69.0841 35.7275C69.2442 35.7104 69.2442 35.7096 69.2766 35.8567C69.3047 35.981 69.3319 36.1053 69.3618 36.2295C69.3788 36.3078 69.3736 36.364 69.2766 36.3844C68.8976 36.4644 68.5272 36.4695 68.1823 36.2678C68.0393 36.1936 67.919 36.0823 67.834 35.9456C67.7491 35.8089 67.7025 35.6518 67.6994 35.4909C67.6883 35.0875 67.6994 34.6833 67.6994 34.2799L67.6858 34.2749Z" fill="#FEFEFE"/>
<path d="M55.3162 32.9158C55.3638 32.9013 55.3673 32.8528 55.386 32.818C55.5043 32.6055 55.6873 32.4365 55.9082 32.3349C56.1292 32.2335 56.3768 32.205 56.6151 32.2536C56.6739 32.2664 56.7003 32.2928 56.7003 32.3515C56.7003 32.5421 56.7003 32.7337 56.7003 32.9252C56.7003 33.0103 56.6509 33.0162 56.587 33.0044C56.4748 32.9823 56.3607 32.9723 56.2463 32.9745C55.6986 32.9831 55.3093 33.3678 55.3093 33.9151C55.3093 34.6735 55.3093 35.4318 55.3093 36.1893C55.3093 36.3792 55.3212 36.3766 55.1245 36.3766C54.9617 36.3766 54.7983 36.3766 54.6355 36.3766C54.5444 36.3766 54.5027 36.3451 54.512 36.2532C54.5129 36.2391 54.5129 36.2248 54.512 36.2106C54.512 34.9623 54.512 33.7156 54.512 32.4706C54.512 32.3081 54.512 32.3064 54.6823 32.3004C54.8318 32.3004 54.9808 32.3004 55.1296 32.3004C55.2761 32.3004 55.2769 32.3055 55.2804 32.4604C55.2804 32.5873 55.2804 32.7157 55.2804 32.8426C55.2821 32.875 55.2821 32.903 55.3162 32.9158Z" fill="#FEFEFE"/>
<path d="M37.75 32.9125C37.7866 32.9125 37.7891 32.8759 37.8003 32.8546C38.0098 32.4358 38.3598 32.2477 38.8156 32.2494C39.2066 32.2494 39.1265 32.2256 39.1342 32.5643C39.1342 32.7057 39.1342 32.8461 39.1342 32.9942C39.0632 33.011 38.989 33.0084 38.9195 32.9865C38.6875 32.9471 38.449 32.982 38.238 33.0861C37.8973 33.2649 37.7423 33.5585 37.7414 33.9373C37.7414 34.6599 37.7414 35.3842 37.7414 36.1043C37.7414 36.3775 37.7414 36.3775 37.4766 36.3775C37.342 36.3775 37.2073 36.3725 37.0727 36.3775C36.9765 36.3827 36.9535 36.3401 36.9544 36.2524C36.9544 35.9341 36.9544 35.6149 36.9544 35.2966V32.5558C36.9544 32.5065 36.9544 32.4562 36.9544 32.4069C36.9544 32.3363 36.9842 32.3047 37.0557 32.3056C37.2398 32.3056 37.4245 32.3056 37.6086 32.3056C37.6938 32.3056 37.7236 32.3388 37.7219 32.4196C37.7219 32.5618 37.7219 32.7031 37.7219 32.8452C37.7227 32.8683 37.7108 32.9031 37.75 32.9125Z" fill="#FEFEFE"/>
<path d="M59.4069 34.3501V36.1776C59.4069 36.3904 59.4189 36.3784 59.2161 36.3784C59.0594 36.3784 58.9035 36.3784 58.7476 36.3784C58.6625 36.3784 58.613 36.3563 58.6216 36.2602C58.6241 36.2105 58.6241 36.1608 58.6216 36.1112V32.5627C58.6216 32.5134 58.6216 32.464 58.6216 32.4146C58.6216 32.3474 58.6412 32.3057 58.7169 32.3057H59.3132C59.3728 32.3057 59.4061 32.3321 59.4061 32.3908C59.4061 32.4402 59.4061 32.4896 59.4061 32.5389L59.4069 34.3501Z" fill="#FEFEFE"/>
<path d="M59.0185 30.733C59.1111 30.7391 59.1999 30.7723 59.2738 30.8281C59.3478 30.8841 59.4037 30.9605 59.4348 31.0478C59.4659 31.1351 59.4708 31.2296 59.4487 31.3196C59.4267 31.4097 59.3787 31.4913 59.3109 31.5545C59.243 31.6177 59.1581 31.6596 59.0667 31.6751C58.9752 31.6907 58.8812 31.6791 58.7962 31.6419C58.7112 31.6047 58.639 31.5435 58.5885 31.4658C58.5379 31.388 58.5112 31.2973 58.5117 31.2046C58.5185 31.0756 58.5752 30.9544 58.6697 30.8664C58.7643 30.7785 58.8894 30.7306 59.0185 30.733Z" fill="#FEFEFE"/>
<path d="M46.7424 13.6584C46.3212 14.3637 45.9512 15.098 45.635 15.8561C45.6267 15.887 45.6117 15.9158 45.5911 15.9403C45.5705 15.9648 45.5448 15.9846 45.5157 15.9982H45.5055C45.4949 16.0013 45.4841 16.0036 45.4731 16.005C45.3028 16.0366 45.1393 15.9752 44.9723 15.9667C44.8275 15.9591 44.7628 16.0093 44.75 16.1455C44.7472 16.1558 44.7452 16.1664 44.744 16.177C44.7295 16.2512 44.7235 16.3269 44.7262 16.4026C44.7395 16.5558 44.7289 16.7104 44.6946 16.8604C44.695 16.8644 44.695 16.8684 44.6946 16.8724V16.9115C44.6895 17.0018 44.6946 17.0919 44.6767 17.1814C44.6588 17.2954 44.7125 17.3515 44.8156 17.3686L44.8497 17.3831C44.8678 17.3901 44.8854 17.3984 44.9024 17.4077C45.043 17.4818 45.0311 17.561 44.8906 17.7482C44.895 17.7146 44.9014 17.6814 44.9101 17.6486C44.963 17.4784 44.963 17.4784 44.8019 17.4044C44.7738 17.3986 44.7454 17.3946 44.7167 17.3924C44.6197 17.3882 44.5847 17.3473 44.6027 17.246C44.6222 17.1311 44.6222 17.0128 44.6307 16.8953C44.6671 16.7343 44.6805 16.569 44.6708 16.4043C44.6708 16.3106 44.6384 16.2093 44.7108 16.1251C44.7177 16.0907 44.7225 16.0561 44.7253 16.0212C44.7253 15.908 44.7815 15.8867 44.888 15.9012C45.0958 15.9293 45.3054 15.9412 45.514 15.9591C45.635 15.7888 45.6921 15.5803 45.7781 15.3905C46.0498 14.7809 46.3582 14.1883 46.7015 13.6158C46.7405 13.55 46.7606 13.4745 46.7594 13.3979C46.8318 13.4941 46.79 13.5775 46.7424 13.6584Z" fill="#FEFEFE"/>
<path d="M46.7353 13.6582C46.3142 14.3635 45.9441 15.0979 45.6279 15.856C45.6196 15.8869 45.6046 15.9156 45.584 15.9402C45.5635 15.9647 45.5377 15.9845 45.5087 15.9981H45.4985C45.4614 16.1344 45.4154 16.268 45.3605 16.3981C45.358 16.4101 45.3531 16.4216 45.3461 16.4317C45.339 16.4418 45.33 16.4504 45.3197 16.4568C45.3092 16.4634 45.2975 16.4677 45.2854 16.4696C45.2733 16.4715 45.2608 16.471 45.2489 16.4679C45.0887 16.4509 44.9278 16.4356 44.7668 16.4202C44.7493 16.4199 44.7325 16.4136 44.7191 16.4024C44.7325 16.5558 44.7219 16.7103 44.6876 16.8604C44.6969 16.859 44.7064 16.859 44.7157 16.8604L45.1654 16.9114C45.1382 17.0589 45.0995 17.204 45.0496 17.3455C45.0483 17.3559 45.0448 17.3659 45.0394 17.3749C45.034 17.384 45.0269 17.3917 45.0183 17.3979C45.0097 17.4039 44.9999 17.4081 44.9897 17.4103C44.9794 17.4124 44.9687 17.4124 44.9584 17.4102C44.9354 17.4089 44.9125 17.4089 44.8895 17.4102C45.03 17.4842 45.0181 17.5633 44.8775 17.7506C44.8819 17.717 44.8885 17.6838 44.8971 17.651C44.9499 17.4808 44.9499 17.4808 44.789 17.4067L44.8366 17.3829C44.8955 17.359 44.9476 17.3211 44.9885 17.2725C45.0293 17.2238 45.0576 17.1659 45.0709 17.1037C45.0939 16.988 45.0658 16.9522 44.9542 16.9429C44.8629 16.937 44.7719 16.9265 44.6816 16.9114L44.6211 16.8978C44.6575 16.7368 44.6709 16.5714 44.6612 16.4066C44.6612 16.313 44.6288 16.2117 44.7012 16.1275C44.7167 16.141 44.7289 16.1579 44.737 16.1769C44.7745 16.2543 44.771 16.3607 44.9141 16.3777C45.2634 16.4186 45.2617 16.4347 45.4116 16.1011C45.4262 16.0672 45.4445 16.0349 45.4661 16.0049C45.4775 15.9893 45.4903 15.9747 45.5044 15.9615C45.6254 15.7913 45.6825 15.5827 45.7685 15.393C46.0402 14.7832 46.3486 14.1906 46.6919 13.6183C46.7309 13.5524 46.7511 13.4769 46.7498 13.4004C46.8248 13.494 46.783 13.5774 46.7353 13.6582Z" fill="#FEFEFE"/>
<path d="M49.373 16.7654C49.373 16.7373 49.373 16.7092 49.373 16.6803C49.373 15.1866 49.373 13.6932 49.373 12.1999C49.373 12.1149 49.373 12.0298 49.373 11.9447C49.3749 11.8873 49.3584 11.8309 49.3259 11.7836C49.2934 11.7363 49.2466 11.7005 49.1924 11.6817C49.1361 11.6578 49.0736 11.6532 49.0144 11.6686C48.9553 11.684 48.9028 11.7185 48.8654 11.7668C48.8229 11.8137 48.7803 11.8621 48.7394 11.9098C47.6113 13.2239 46.7153 14.7202 46.09 16.3348C46.0492 16.3988 46.0317 16.4748 46.0406 16.5501C46.1896 16.5662 46.3421 16.585 46.4953 16.6003L48.5026 16.8028C48.7581 16.8276 49.0136 16.8471 49.264 16.8743C49.3449 16.8778 49.3781 16.848 49.373 16.7654ZM47.0787 15.5741L48.5758 13.2254L48.6124 13.239C48.7283 14.147 48.8432 15.0549 48.9625 15.9944L47.0787 15.5741Z" fill="#FEFEFE"/>
<path d="M58.1526 23.0317C58.1567 23.0812 58.1427 23.1304 58.1132 23.1703C58.0839 23.2101 58.0409 23.2381 57.9925 23.2487C57.7617 23.3202 57.6995 23.2726 57.6995 23.0232C57.6995 22.7968 57.748 22.7593 57.9712 22.8087C58.0237 22.8167 58.0715 22.8439 58.1051 22.8852C58.1386 22.9264 58.1556 22.9786 58.1526 23.0317Z" fill="#FEFEFE"/>
<path d="M54.1546 23.4745C54.0454 23.4958 53.9334 23.4984 53.8232 23.4821C53.8455 23.2932 53.9229 23.1281 53.9698 22.9067C54.0546 23.0877 54.1166 23.2784 54.1546 23.4745Z" fill="#FEFEFE"/>
<path d="M45.5109 15.9637C45.5109 15.9757 45.5109 15.9885 45.5049 16.0004C45.4679 16.1366 45.4218 16.2703 45.3669 16.4004C45.3644 16.4124 45.3595 16.4239 45.3525 16.434C45.3455 16.4441 45.3364 16.4526 45.326 16.4591C45.3157 16.4656 45.3039 16.47 45.2918 16.4719C45.2797 16.4738 45.2672 16.4733 45.2554 16.4702C45.0952 16.4532 44.9342 16.4378 44.7732 16.4225C44.7557 16.4222 44.7389 16.4159 44.7255 16.4047C44.7172 16.3961 44.7109 16.3858 44.7072 16.3744C44.7035 16.3631 44.7024 16.3509 44.7042 16.3392C44.7042 16.2694 44.7042 16.1995 44.7042 16.1298C44.7111 16.0955 44.716 16.0608 44.7187 16.0259C44.7187 15.9127 44.7749 15.8914 44.8814 15.9059C45.0926 15.934 45.3022 15.9459 45.5109 15.9637Z" fill="#FEFEFE"/>
<path d="M45.1719 16.9124C45.1447 17.0599 45.1059 17.2051 45.056 17.3465C45.0548 17.3569 45.0513 17.3669 45.0459 17.376C45.0405 17.385 45.0333 17.3928 45.0247 17.3989C45.0161 17.4049 45.0064 17.4092 44.9961 17.4113C44.9858 17.4134 44.9752 17.4133 44.9649 17.4112C44.942 17.4099 44.9189 17.4099 44.8959 17.4112H44.7954C44.7673 17.4054 44.7388 17.4014 44.7102 17.3992C44.6131 17.395 44.5782 17.3541 44.596 17.2528C44.6156 17.1379 44.6157 17.0197 44.6242 16.9021C44.6417 16.8829 44.6651 16.8698 44.6907 16.8647C44.6999 16.8635 44.7094 16.8635 44.7187 16.8647L45.1719 16.9124Z" fill="#FEFEFE"/>
<path d="M49.373 16.7654C49.373 16.7373 49.373 16.7092 49.373 16.6803C49.373 15.1866 49.373 13.6932 49.373 12.1999C49.373 12.1149 49.373 12.0298 49.373 11.9447C49.3749 11.8873 49.3584 11.8309 49.3259 11.7836C49.2934 11.7363 49.2466 11.7005 49.1924 11.6817C49.1361 11.6578 49.0736 11.6532 49.0144 11.6686C48.9553 11.684 48.9028 11.7185 48.8654 11.7668C48.8229 11.8137 48.7803 11.8621 48.7394 11.9098C47.6113 13.2239 46.7153 14.7202 46.09 16.3348C46.0492 16.3988 46.0317 16.4748 46.0406 16.5501C46.1896 16.5662 46.3421 16.585 46.4953 16.6003L48.5026 16.8028C48.7581 16.8276 49.0136 16.8471 49.264 16.8743C49.3449 16.8778 49.3781 16.848 49.373 16.7654ZM47.0787 15.5741L48.5758 13.2254L48.6124 13.239C48.7283 14.147 48.8432 15.0549 48.9625 15.9944L47.0787 15.5741Z" fill="#FEFEFE"/>
<path d="M58.1526 23.0317C58.1567 23.0812 58.1427 23.1304 58.1132 23.1703C58.0839 23.2101 58.0409 23.2381 57.9925 23.2487C57.7617 23.3202 57.6995 23.2726 57.6995 23.0232C57.6995 22.7968 57.748 22.7593 57.9712 22.8087C58.0237 22.8167 58.0715 22.8439 58.1051 22.8852C58.1386 22.9264 58.1556 22.9786 58.1526 23.0317Z" fill="#FEFEFE"/>
<path d="M54.1546 23.4745C54.0454 23.4958 53.9334 23.4984 53.8232 23.4821C53.8455 23.2932 53.9229 23.1281 53.9698 22.9067C54.0546 23.0877 54.1166 23.2784 54.1546 23.4745Z" fill="#FEFEFE"/>
</svg>
