<svg width="144" height="58" viewBox="0 0 144 58" fill="none" xmlns="http://www.w3.org/2000/svg">
<path d="M12.5327 46.2803C14.6975 48.2923 17.3057 48.7892 20.2575 48.2349C21.6187 47.9801 22.5127 47.1645 23.3371 46.2509C23.7654 45.7756 24.1214 45.2443 24.5106 44.7384C25.0904 44.4899 25.7035 44.676 26.2987 44.6403C28.8514 44.4836 31.411 44.648 33.9651 44.5435C34.1752 44.5276 34.3867 44.5414 34.5921 44.5842C34.83 44.6429 35.0552 44.7193 34.9176 45.0187C34.6895 47.8628 33.3729 50.2673 31.2108 52.2551C26.941 56.1809 21.7173 57.7495 15.7277 57.2933C12.4297 57.0385 9.37926 56.1643 6.81959 54.1816C4.11671 52.0868 2.39127 49.3995 1.39715 46.3032C1.29426 45.7681 1.73918 45.7259 2.09234 45.754C4.16955 45.9184 6.24536 45.8164 8.33092 45.7782C9.19572 45.7629 10.055 45.847 10.9156 45.8216C11.519 45.8024 12.0696 45.8954 12.5327 46.2803Z" fill="white"/>
<path d="M14.0698 33.5432C10.5521 32.1314 7.66017 29.9665 5.07129 27.4016C3.33612 25.6826 2.35591 23.6311 1.58704 21.4534C1.4591 21.0627 1.3995 20.6558 1.41046 20.248C1.42019 17.98 1.41046 15.7118 1.5495 13.4067C1.86372 13.9649 2.17886 14.5234 2.49494 15.0823C5.27568 20.0442 9.30405 23.9156 14.58 26.6969C16.9326 27.9379 19.5283 28.5993 22.0629 29.4122C24.5226 30.2009 26.8681 31.2115 28.9871 32.6208C29.2304 32.7825 29.4515 32.9724 29.6822 33.1495C29.5251 33.4439 29.2345 33.4044 28.9508 33.4044C24.3349 33.277 19.716 33.3789 15.0986 33.3521C14.7463 33.3614 14.3983 33.4261 14.0698 33.5432Z" fill="white"/>
<path d="M14.0674 33.5429C14.18 33.2384 14.3968 33.1301 14.7625 33.1314C19.3516 33.1416 23.94 33.1416 28.5271 33.1314C28.9109 33.1314 29.2905 33.4167 29.677 33.1453C32.7358 35.2949 34.4321 38.1492 34.9006 41.6304C35.0522 42.7568 35.1787 43.887 34.9187 45.0172C34.9151 44.9745 34.9018 44.9328 34.8797 44.895C34.8576 44.8571 34.8271 44.8239 34.7903 44.7974C34.7534 44.7709 34.711 44.7518 34.6655 44.7412C34.6201 44.7305 34.5729 44.7287 34.5267 44.7357C33.7856 44.7752 33.032 44.6312 32.302 44.8274C31.8001 44.9612 31.3454 44.6936 30.8519 44.7292C29.2015 44.8453 27.5414 44.6847 25.8924 44.8567C25.4225 44.9077 24.9706 44.7943 24.5118 44.7292C25.6838 42.0127 25.1403 39.6744 22.7919 37.623C21.1861 36.2214 19.316 35.3192 17.2513 34.6847C16.1637 34.3686 15.1001 33.9872 14.0674 33.5429Z" fill="white"/>
<path d="M12.5351 46.2804C11.3046 45.9071 10.0324 46.0357 8.77139 46.0026C6.59129 45.9466 4.40841 46.1963 2.23665 45.9173C1.87655 45.8701 1.52201 45.8842 1.40243 46.2996C0.416663 43.3331 0.370781 40.3986 1.77227 37.5202C1.9612 37.1514 2.19138 36.8017 2.45911 36.4765C4.1943 34.2887 7.25589 34.0377 9.41096 35.9069C9.77731 36.2093 10.0707 36.5785 10.2723 36.9908C10.4739 37.4031 10.5793 37.8494 10.5817 38.3012C10.5983 39.3957 10.6553 40.4891 10.711 41.5823C10.7971 43.3191 11.3158 44.9144 12.5351 46.2804Z" fill="white"/>
<path d="M128.02 25.8369C127.027 28.1508 126.084 30.3616 125.128 32.5685C124.895 33.105 124.629 33.6313 124.363 34.1536C124.278 34.3193 124.209 34.5614 123.946 34.5359C123.682 34.5104 123.667 34.2658 123.6 34.0937C122.791 31.9046 121.985 29.7142 121.184 27.5226C120.722 26.265 120.236 25.0149 119.804 23.7496C119.557 23.031 119.181 22.5098 118.187 22.5671C118.619 22.2613 122.3 22.2218 122.888 22.4588C122.873 22.5671 122.781 22.5862 122.69 22.5862C121.995 22.5748 121.929 22.9354 122.089 23.4349C122.698 25.3233 123.302 27.2142 123.915 29.1013C124.134 29.7793 124.372 30.4507 124.61 31.1325C124.855 30.9795 124.87 30.7273 124.956 30.5196C125.959 28.0756 126.955 25.6295 127.943 23.1814C127.991 23.0603 128.031 22.9367 128.092 22.8207C128.188 22.6347 128.218 22.3544 128.491 22.3391C128.788 22.3225 128.816 22.6207 128.898 22.8003C129.489 24.0822 130.056 25.373 130.637 26.6587C131.294 28.1203 131.956 29.5792 132.665 31.1414C133.315 29.1613 133.934 27.2843 134.551 25.4074C134.69 24.9767 134.868 24.5537 134.969 24.1154C135.231 22.9787 135.553 22.8156 134.113 22.3964H143.159C143.136 22.464 143.133 22.5238 143.111 22.5327C141.763 22.836 141.746 22.8411 141.742 24.1587C141.734 26.8217 141.742 29.4836 141.742 32.1468C141.742 32.4259 141.774 32.7048 141.777 32.9839C141.777 33.635 142.123 33.9626 142.849 33.988C143.109 33.9969 143.405 33.9332 143.759 34.2123H138.062C138.111 34.1231 138.123 34.0631 138.148 34.0594C139.438 33.8261 139.456 33.8261 139.492 32.6361C139.584 29.7168 139.568 26.7963 139.518 23.8771C139.508 23.3125 139.535 22.7404 138.684 22.6143C137.494 22.4397 136.895 22.6334 136.571 23.4782C135.555 26.1222 134.571 28.7765 133.579 31.4294C133.269 32.2588 132.988 33.0973 132.674 33.9256C132.587 34.1574 132.566 34.5118 132.24 34.5295C131.913 34.5474 131.858 34.1932 131.756 33.9689C130.62 31.5054 129.492 29.0385 128.371 26.5682C128.271 26.3555 128.165 26.1426 128.02 25.8369Z" fill="white"/>
<path d="M108.895 34.2034H118.454C118.419 34.1501 118.372 34.1053 118.315 34.0728C118.258 34.0401 118.192 34.0206 118.126 34.0161C116.648 33.8721 116.574 33.8249 116.564 32.4487C116.544 29.5936 116.544 26.7389 116.564 23.8847C116.564 22.8487 116.676 22.757 117.752 22.59C117.863 22.5735 117.992 22.5723 117.957 22.385H112.753C112.92 22.5123 112.962 22.5658 113.015 22.5748C114.285 22.8054 114.312 22.8041 114.333 23.9522C114.385 26.8918 114.408 29.8327 114.299 32.7724C114.258 33.9332 113.92 34.1524 112.671 33.9625C112.463 33.9336 112.264 33.8648 112.087 33.7608C111.91 33.6567 111.759 33.5197 111.644 33.3585C111.343 32.9502 111.095 32.511 110.905 32.0499C109.556 28.9969 108.202 25.9451 106.845 22.8946C106.693 22.5519 106.656 21.9848 106.221 21.9771C105.786 21.9696 105.735 22.5378 105.584 22.878C104.153 26.0907 102.742 29.3056 101.352 32.5227C100.968 33.4146 100.444 34.0708 99.2776 34.03C99.1873 34.03 99.0969 34.0733 99.1387 34.2059H103.607C103.549 34.0785 103.491 34.0338 103.428 34.0275C102.38 33.9179 102.252 33.7599 102.594 32.8552C102.872 32.1059 103.214 31.3771 103.484 30.6253C103.623 30.243 103.848 30.1551 104.255 30.1653C105.264 30.1908 106.272 30.1908 107.279 30.1653C107.664 30.1551 107.86 30.252 107.994 30.601C108.339 31.5096 108.72 32.408 109.116 33.2986C109.256 33.649 109.347 33.9408 108.895 34.2034ZM104.339 29.3779C104.088 29.3779 104.076 29.2504 104.143 29.0835C104.661 27.8092 105.183 26.5351 105.758 25.1219L107.461 29.3779H104.339Z" fill="white"/>
<path d="M64.984 27.9012C64.7991 24.7869 62.6037 22.7699 58.9888 22.4221C56.3234 22.1672 53.6483 22.3888 50.9802 22.3137C50.8495 22.3137 50.6827 22.2971 50.6897 22.5278C50.7953 22.5535 50.9025 22.5735 51.0107 22.5876C52.2399 22.6985 52.3776 22.7953 52.3831 23.9153C52.3998 26.7484 52.3947 29.5805 52.3678 32.4119C52.3538 33.7817 52.3205 33.7817 50.8899 34.1194C50.9396 34.1808 51.0063 34.229 51.0829 34.2595C51.1595 34.2898 51.2434 34.3013 51.3264 34.2926C52.568 34.2926 53.8124 34.2404 55.0471 34.3958C56.589 34.5895 58.1226 34.6226 59.6561 34.3028C63.0528 33.5983 65.1717 31.0637 64.984 27.9012ZM62.5633 29.7794C62.0657 32.9178 58.8887 34.6659 55.5893 33.616C55.0651 33.4491 54.7356 33.1752 54.6855 32.6043C54.5465 31.0396 54.6535 29.4748 54.6119 28.4427C54.6119 26.5377 54.6341 25.1654 54.6021 23.7931C54.5896 23.2834 54.8301 23.1062 55.339 23.0872C56.2789 23.0514 57.2119 23.0681 58.1294 23.2808C61.3607 24.0314 63.0765 26.5504 62.5633 29.7794Z" fill="white"/>
<path d="M4.36022 0.938477C4.49926 2.4548 4.70643 3.96858 4.7551 5.48744C4.89413 9.83254 6.75027 13.5253 9.62138 16.907C12.2955 20.0611 15.0109 23.1847 17.7676 26.2777C17.9428 26.4727 18.111 26.6714 18.3237 26.9147C18.0178 26.9301 17.8913 26.7568 17.7369 26.6523C14.6587 24.5702 11.5999 22.4728 8.79968 20.0798C6.22054 17.8716 4.10301 15.4149 3.19927 12.2141C3.04331 11.7421 2.96229 11.252 2.95874 10.7589C3.06579 7.45484 3.37723 4.17372 4.36022 0.938477Z" fill="white"/>
<path d="M82.2502 23.2899C79.785 21.6244 75.4554 21.6334 72.9875 23.3039C70.8477 24.7476 69.8745 27.3814 70.5446 29.9145C71.1884 32.3484 73.2197 34.0532 75.9407 34.4445C80.864 35.1504 84.6638 32.3355 84.6513 28.2912C84.6277 26.0919 83.9756 24.4558 82.2502 23.2899ZM81.929 30.7199C81.1768 33.4645 78.4253 34.5681 75.7085 33.2046C74.4307 32.5675 73.648 31.5482 73.1947 30.3045C72.688 28.9126 72.6058 27.4202 72.9569 25.9887C73.2921 24.5628 74.0692 23.4173 75.6876 22.993C77.4061 22.5432 78.9883 22.8515 80.3119 23.9919C81.5772 25.084 82.0375 26.5047 82.1764 28.0389C82.1959 28.2517 82.1764 28.4683 82.1764 28.676C82.1957 29.3644 82.1125 30.052 81.929 30.7199Z" fill="white"/>
<path d="M97.0068 31.2127C97.0068 28.7598 97.0248 26.3706 97.0068 23.9967C96.9943 22.8181 96.8343 22.7022 95.5413 22.5951C95.4468 22.5796 95.354 22.5574 95.2633 22.5289C95.6331 22.274 99.1187 22.218 99.8792 22.4282C99.8872 22.4426 99.8909 22.4585 99.8901 22.4747C99.8893 22.4907 99.8839 22.5063 99.8745 22.5199C99.8651 22.5336 99.852 22.5447 99.8366 22.5524C99.8211 22.5599 99.8036 22.5637 99.7861 22.5632C98.8128 22.6155 98.4736 22.613 98.4389 24.021C98.3568 27.2817 98.3123 30.5449 98.2469 33.807C98.2469 34.0529 98.3735 34.3983 98.0718 34.5129C97.7478 34.6403 97.5378 34.3154 97.3307 34.1307C94.3817 31.4548 91.4244 28.7916 88.609 25.9973L88.1695 25.5654C88.1695 26.967 88.1598 28.31 88.1695 29.6492C88.1779 30.4213 88.2279 31.1936 88.246 31.967C88.2864 33.7242 88.2905 33.7331 90.0382 34.2071H85.2749C85.2595 34.0274 85.3972 34.0376 85.5014 34.0249C86.668 33.8886 86.7792 33.8006 86.8042 32.6308C86.8752 29.4109 86.9154 26.191 86.9822 22.9723C86.9891 22.6729 86.7958 22.2332 87.1949 22.1071C87.5217 22.0039 87.7065 22.418 87.9262 22.6244C90.8544 25.3767 93.7797 28.1316 96.7022 30.8891C96.8259 31.0011 96.9053 31.2483 97.0068 31.2127Z" fill="white"/>
<path d="M38.638 31.1371C38.7424 31.5282 38.8119 31.9322 38.9578 32.3107C39.5403 33.8397 41.8498 34.3405 43.1415 33.2421C43.8797 32.6139 43.9757 31.5996 43.3778 30.7089C43.0288 30.1865 42.5311 29.7966 42.0152 29.422C41.2979 28.9033 40.5623 28.4026 39.9408 27.7859C39.2943 27.1488 38.7937 26.4263 38.6993 25.533C38.5032 23.6714 39.6724 22.3998 41.9082 22.0927C42.8853 21.9722 43.8792 22.0368 44.8279 22.2825C44.9836 22.3208 45.202 22.317 45.2006 22.5093C45.1936 23.3018 45.1631 24.0945 45.1408 24.938C44.7709 24.7927 44.8168 24.5952 44.7779 24.4385C44.6863 24.0941 44.5054 23.7752 44.2503 23.5089C43.9953 23.2424 43.6738 23.0364 43.3132 22.9085C42.9525 22.7804 42.5636 22.7341 42.1792 22.7736C41.7949 22.813 41.4267 22.937 41.1059 23.1349C40.3121 23.6447 40.1466 24.631 40.7361 25.4222C41.1671 25.9981 41.7816 26.3995 42.3795 26.8149C43.1081 27.3246 43.8394 27.8228 44.4442 28.4586C45.5288 29.5965 45.9181 30.8899 45.3479 32.3361C44.7988 33.7288 43.5572 34.3125 42.0528 34.5023C40.9794 34.6384 39.8865 34.5512 38.855 34.2474C38.4532 34.129 38.2362 33.9365 38.2612 33.5071C38.3057 32.7095 38.2612 31.9068 38.4392 31.1256L38.638 31.1371Z" fill="white"/>
<path d="M137.657 38.431C136.934 38.3902 136.204 38.431 135.48 38.403C135.089 38.3877 135.009 38.5305 135.018 38.8541C135.04 39.5613 135.018 40.271 135.018 40.9781C135.018 41.6854 135.046 42.3964 135.009 43.1023C134.985 43.519 135.148 43.612 135.565 43.5942C136.22 43.5649 136.877 43.6018 137.532 43.5826C139.175 43.5343 140.344 42.469 140.361 41.0216C140.388 39.6033 139.277 38.5278 137.657 38.431ZM137.457 43.0692C137.247 43.0692 137.04 43.0692 136.825 43.0692C135.673 43.0692 135.673 43.0692 135.673 41.9989C135.673 41.1413 135.691 40.2851 135.665 39.4287C135.654 39.0605 135.718 38.8732 136.187 38.919C136.626 38.9598 137.074 38.919 137.518 38.9305C138.851 38.9738 139.772 39.8429 139.753 41.0291C139.733 42.2155 138.804 43.0463 137.457 43.0692Z" fill="white"/>
<path d="M45.4124 42.5677C45.4124 41.1927 45.4124 40.0192 45.4124 38.8367C45.4124 38.6354 45.3373 38.4022 45.7309 38.4048C46.1243 38.4073 46.0298 38.6596 46.0298 38.8469C46.0367 40.2409 46.0409 41.6337 46.0298 43.0276C46.0298 43.2099 46.2008 43.4813 45.8712 43.5768C45.5779 43.6622 45.4083 43.4749 45.2415 43.2811C44.1862 42.0516 43.1239 40.8283 41.9351 39.4521V42.1931C41.9351 42.5575 41.9254 42.9219 41.9351 43.2863C41.9421 43.5004 41.867 43.5947 41.6181 43.5908C41.3693 43.587 41.2816 43.5182 41.2816 43.294C41.2816 41.7713 41.2816 40.2498 41.2816 38.7272C41.2816 38.6061 41.2455 38.4544 41.443 38.42C41.5452 38.3991 41.6519 38.4077 41.7485 38.4447C41.8451 38.4817 41.9269 38.5451 41.9824 38.6265C42.6275 39.3911 43.2894 40.139 43.9456 40.8933C44.396 41.4068 44.8452 41.9178 45.4124 42.5677Z" fill="white"/>
<path d="M84.3313 41.8725C85.4436 41.1691 85.7704 40.537 85.4701 39.6438C85.192 38.8309 84.4411 38.4231 83.1731 38.4116C82.617 38.4116 82.0484 38.418 81.4852 38.4116C81.2169 38.4116 81.1112 38.4881 81.1126 38.7442C81.1219 40.2478 81.1219 41.7514 81.1126 43.255C81.1126 43.5009 81.1947 43.5977 81.4727 43.5965C81.7508 43.5952 81.7703 43.4614 81.7661 43.2689C81.7577 42.9466 81.7661 42.6242 81.7661 42.3018C81.7577 42.0763 81.8105 41.9591 82.1067 41.9426C83.0633 41.889 83.9935 41.8469 84.43 42.8752C84.4884 43.0103 84.633 43.1122 84.7081 43.2448C84.8986 43.5838 85.1725 43.6755 85.5965 43.5226L84.3313 41.8725ZM83.8905 41.3934C83.2885 41.5208 82.6767 41.4481 82.0706 41.471C81.8105 41.48 81.7577 41.3513 81.7633 41.1499C81.7633 40.8288 81.7633 40.5065 81.7633 40.1853H81.7369C81.7647 39.784 81.6632 39.1036 81.8453 39.0386C82.4529 38.8028 83.1704 38.8869 83.8335 38.9825C84.5857 39.0921 84.9458 39.5662 84.9153 40.2682C84.8931 40.8836 84.544 41.2532 83.8905 41.3934Z" fill="white"/>
<path d="M70.9851 40.9983C70.9851 40.2695 70.999 39.5393 70.9851 38.8117C70.9767 38.5059 71.0782 38.3989 71.4216 38.404C72.4519 38.4218 73.4822 38.404 74.5139 38.4117C74.6862 38.4117 74.8948 38.3543 74.9032 38.6371C74.9116 38.9201 74.728 38.9315 74.4985 38.929C73.6797 38.929 72.8593 38.9378 72.039 38.929C71.7456 38.929 71.6483 38.9914 71.6302 39.282C71.5371 40.7371 71.5246 40.7358 73.0859 40.7358C73.46 40.7358 73.8354 40.7358 74.2093 40.7358C74.3595 40.7358 74.5555 40.6912 74.5598 40.9346C74.5639 41.1779 74.4207 41.22 74.2024 41.2187C73.5072 41.2187 72.7967 41.2366 72.0946 41.2098C71.7151 41.1945 71.6386 41.3219 71.6316 41.6469C71.5955 43.0715 71.583 43.0715 73.1109 43.0715C73.6268 43.0715 74.1426 43.0715 74.6571 43.0715C74.8601 43.0715 75.0199 43.0804 75.0228 43.3352C75.0255 43.5901 74.8419 43.5901 74.6542 43.5901C73.5767 43.5901 72.4992 43.5799 71.4216 43.5964C71.0797 43.5964 70.9767 43.4958 70.9851 43.1899C70.999 42.4573 70.9851 41.7284 70.9851 40.9983Z" fill="white"/>
<path d="M64.5924 42.0068C64.5924 43.1191 64.3143 43.4261 63.1103 43.5829C61.9063 43.7397 60.805 43.5039 60.0515 42.547C59.3813 41.6932 59.3202 40.749 59.8248 39.8074C60.5743 38.4058 62.771 37.9037 64.1837 38.8084C64.3324 38.9027 64.6745 38.9575 64.4618 39.2595C64.2629 39.5386 64.0918 39.3513 63.893 39.2416C62.8962 38.6976 61.5948 38.7982 60.8231 39.4672C60.128 40.0712 59.9374 41.1236 60.3796 41.966C60.9357 43.0184 62.6334 43.4682 63.7234 42.8757C63.9821 42.7343 63.9946 42.5585 63.9917 42.3406C63.9917 41.9978 63.9917 41.6538 63.9917 41.311C63.9917 41.1186 64.0126 40.9835 64.2852 40.9848C64.5576 40.986 64.6077 41.088 64.5952 41.2982C64.5827 41.534 64.5924 41.771 64.5924 42.0068Z" fill="white"/>
<path d="M101.421 38.6912C101.39 38.6008 101.325 38.5229 101.239 38.4705C101.153 38.4181 101.05 38.3943 100.947 38.4032C100.713 38.4032 100.623 38.5077 100.539 38.6771C99.7384 40.2928 98.9321 41.9072 98.1201 43.5357C98.5122 43.6428 98.8347 43.6224 98.9153 43.2324C99.1183 42.2589 99.8108 42.0666 100.749 42.1965C100.979 42.2308 101.214 42.2308 101.444 42.1965C102.279 42.0538 102.764 42.3481 102.96 43.1013C103.057 43.4707 103.282 43.7217 103.818 43.5204C103.016 41.8855 102.211 40.2903 101.421 38.6912ZM99.6508 41.7492C100.087 40.8471 100.507 39.9819 100.973 39.0186L102.293 41.7492H99.6508Z" fill="white"/>
<path d="M126.678 41.2115C126.678 40.5897 126.655 39.9666 126.686 39.346C126.705 39.0007 126.575 38.8962 126.214 38.9229C125.863 38.9408 125.512 38.9408 125.161 38.9229C124.971 38.9229 124.724 38.9995 124.705 38.6821C124.685 38.3649 124.917 38.4095 125.122 38.4082C126.386 38.4082 127.649 38.4082 128.915 38.4082C129.093 38.4082 129.304 38.3687 129.302 38.6439C129.302 38.8784 129.163 38.9383 128.944 38.9256C128.898 38.923 128.851 38.923 128.805 38.9256C128.341 38.9383 127.708 38.7879 127.453 39.0058C127.115 39.2975 127.348 39.8902 127.339 40.3514C127.319 41.2943 127.328 42.2385 127.339 43.1815C127.339 43.4171 127.339 43.5968 126.98 43.5904C126.621 43.5841 126.685 43.3917 126.685 43.2006L126.678 41.2115Z" fill="white"/>
<path d="M116.576 40.9491C116.576 40.326 116.552 39.703 116.588 39.0824C116.602 38.8454 116.33 38.4121 116.923 38.421C117.47 38.4287 117.209 38.8352 117.213 39.048C117.242 40.2496 117.24 41.4511 117.213 42.6527C117.213 42.9892 117.314 43.0937 117.684 43.0809C118.432 43.0567 119.182 43.0809 119.932 43.072C120.155 43.072 120.35 43.0579 120.35 43.3574C120.35 43.634 120.148 43.5919 119.968 43.5919C118.984 43.5919 118 43.5766 117.016 43.6007C116.608 43.6123 116.563 43.4402 116.57 43.137C116.587 42.403 116.576 41.6729 116.576 40.9491Z" fill="white"/>
<path d="M53.339 41.0271C53.339 41.733 53.339 42.4402 53.339 43.1473C53.339 43.3385 53.4419 43.5895 53.0429 43.5959C52.6911 43.6022 52.6827 43.4251 52.6827 43.1881C52.6883 41.7313 52.6883 40.2749 52.6827 38.8188C52.6827 38.592 52.6675 38.3984 53.0318 38.4009C53.4238 38.4009 53.3376 38.6442 53.339 38.8417C53.3432 39.5694 53.339 40.2982 53.339 41.0271Z" fill="white"/>
<path d="M91.7998 40.9978C91.7998 40.269 91.7998 39.54 91.7998 38.8125C91.7998 38.5781 91.7998 38.3958 92.1558 38.401C92.4866 38.4073 92.4588 38.587 92.4588 38.7833C92.4588 40.2613 92.4588 41.7394 92.4588 43.2175C92.4588 43.4175 92.4783 43.5909 92.1515 43.5998C91.7915 43.5998 91.7983 43.415 91.7998 43.1844C91.804 42.4542 91.7998 41.7254 91.7998 40.9978Z" fill="white"/>
<path d="M49.2764 33.3037C49.2818 33.4377 49.2565 33.5711 49.202 33.6954C49.1476 33.8197 49.0653 33.9322 48.9604 34.0256C48.8555 34.1189 48.7305 34.1911 48.5932 34.2373C48.456 34.2836 48.3098 34.3029 48.1639 34.2941C48.0241 34.294 47.8858 34.2676 47.7575 34.2166C47.6293 34.1657 47.5138 34.0911 47.4183 33.9974C47.3227 33.9039 47.2492 33.7935 47.2021 33.6728C47.1549 33.5522 47.1354 33.4239 47.1445 33.2961C47.1453 33.1681 47.1742 33.0416 47.2295 32.924C47.2848 32.8064 47.3653 32.7003 47.4662 32.6119C47.5671 32.5234 47.6864 32.4544 47.8171 32.4091C47.9477 32.3637 48.0869 32.343 48.2265 32.3479C48.8718 32.3556 49.2862 32.7353 49.2764 33.3037Z" fill="white"/>
<path d="M7.35641 49.2646C9.54068 51.9685 12.687 53.2656 15.6903 54.7884C12.6203 55.4216 7.12145 53.4364 7.35641 49.2646Z" fill="white"/>
</svg>
