<svg width="127" height="44" viewBox="0 0 127 44" fill="none" xmlns="http://www.w3.org/2000/svg">
<path opacity="0.928" fill-rule="evenodd" clip-rule="evenodd" d="M99.3189 5.69713C98.6528 5.46488 98.0324 5.26734 97.4569 5.10467C97.3172 5.16628 97.1759 5.18042 97.0337 5.14699C97.186 5.12016 97.214 5.0637 97.1183 4.97771C96.1975 4.98685 95.2944 4.90221 94.4099 4.7238C94.4666 4.69561 94.5225 4.66735 94.5792 4.63916C93.7608 4.61098 92.9432 4.58271 92.1247 4.55452C92.3507 4.49807 92.3507 4.4417 92.1247 4.38525C91.3909 4.35707 90.658 4.3288 89.9242 4.30061C86.4032 3.61277 82.8481 3.28835 79.2599 3.32729C78.1529 10.428 76.5871 17.4247 74.5625 24.3173C74.7697 16.7724 75.4468 9.26789 76.5938 1.80382C76.6586 1.17462 76.9831 0.737301 77.5671 0.491938C84.4185 -0.0505864 90.9076 1.21897 97.0337 4.30061C97.8293 4.72575 98.591 5.19125 99.3189 5.69713Z" fill="#B6B7B6"/>
<path opacity="0.126" fill-rule="evenodd" clip-rule="evenodd" d="M24.4148 3.24299C27.0242 3.14447 29.648 3.13033 32.2861 3.20067C32.6341 3.39389 33.0009 3.54903 33.3863 3.66617C33.4145 3.77899 33.4428 3.8919 33.471 4.00472C33.497 4.20988 33.4688 4.40734 33.3863 4.59718C32.76 4.03223 32.0547 3.60904 31.2704 3.32762C28.9859 3.24299 26.7007 3.2148 24.4148 3.24299Z" fill="#060606"/>
<path opacity="0.971" fill-rule="evenodd" clip-rule="evenodd" d="M24.4154 3.24296C26.7013 3.21477 28.9865 3.24296 31.271 3.3276C32.0553 3.60902 32.7606 4.0322 33.3869 4.59715C33.4694 4.40731 33.4976 4.20985 33.4716 4.00469C33.528 4.00469 33.5562 4.03288 33.5562 4.08933C33.5765 4.34993 33.5483 4.60384 33.4716 4.85107C34.4159 5.94754 34.7967 7.2171 34.6142 8.65974C34.4464 9.21175 34.3476 9.77602 34.3179 10.3525C33.7689 10.4226 33.2046 10.4649 32.6252 10.4794C32.5506 10.5394 32.4943 10.61 32.4559 10.691C30.6199 10.7155 28.786 10.6873 26.9545 10.6064C27.0991 10.1941 27.1414 9.77094 27.0815 9.33684C26.95 9.15114 26.7667 9.05246 26.5313 9.04061C26.5595 9.01242 26.5878 8.98416 26.6159 8.95597C22.4123 8.89952 18.2087 8.89952 14.005 8.95597C15.0348 9.16401 16.0222 9.46024 16.9673 9.84466C16.9955 10.0139 17.0238 10.1832 17.0519 10.3525C17.0001 10.6777 16.9437 11.0022 16.8827 11.3258C16.9151 11.5756 16.9715 11.8154 17.0519 12.0452C20.0063 12.2098 22.9686 12.2663 25.9389 12.2145C27.2097 12.1863 28.4792 12.2146 29.7475 12.2991C30.6348 12.6314 31.4247 13.1393 32.1174 13.8226C32.2007 13.5748 32.2288 13.3209 32.202 13.0609C32.2785 13.1209 32.3067 13.2055 32.2866 13.3148C32.3037 13.588 32.2754 13.856 32.202 14.1188C32.8676 14.9446 33.2061 15.8897 33.2177 16.9542C32.8875 19.382 32.5631 21.8082 32.2443 24.233C31.9632 25.1345 31.4271 25.8398 30.6362 26.3489C30.608 26.49 30.5798 26.631 30.5516 26.7721C30.4948 26.8358 30.4243 26.864 30.34 26.8567C30.3201 26.8062 30.2778 26.778 30.213 26.7721C30.0409 26.8755 29.8576 26.9602 29.6629 27.026C27.3784 27.1107 25.0932 27.1388 22.8073 27.1107C18.9985 27.1248 15.1898 27.1107 11.3813 27.0683C10.4808 26.7513 9.67674 26.2011 8.96909 25.4179C8.69216 24.9717 8.45238 24.5062 8.24967 24.0214C8.14822 22.6256 8.14822 21.2291 8.24967 19.8319C10.7323 19.8319 13.2151 19.8319 15.6978 19.8319C15.6701 20.2588 15.6983 20.6819 15.7824 21.1014C15.8856 21.1984 15.9984 21.283 16.1209 21.3553C20.2961 21.4541 24.4715 21.4681 28.6472 21.3976C27.6339 21.0119 26.59 20.7156 25.5157 20.509C25.5016 20.0848 25.5158 19.6616 25.558 19.2394C25.644 19.3354 25.7004 19.3072 25.7273 19.1548C25.7973 18.7568 25.7833 18.3618 25.6849 17.9698C25.6027 17.7891 25.4616 17.6903 25.2618 17.6736C21.1174 17.5769 16.9702 17.5063 12.8201 17.462C12.6283 17.3931 12.4308 17.3508 12.2276 17.3351C12.3404 17.2786 12.3404 17.2222 12.2276 17.1658C11.8913 17.0302 11.5527 16.9032 11.212 16.7849C11.212 16.7003 11.212 16.6156 11.212 16.531C10.979 16.4267 10.7532 16.2998 10.5349 16.1501C10.5631 16.122 10.5913 16.0937 10.6195 16.0655C9.91136 15.3922 9.47404 14.56 9.30764 13.5687C9.27946 13.5969 9.25119 13.6252 9.223 13.6533C9.16655 13.0891 9.16655 12.5249 9.223 11.9606C9.30899 12.0566 9.36545 12.0284 9.39228 11.876C9.5332 10.4695 9.67429 9.05897 9.81546 7.64409C9.84365 7.67228 9.87192 7.70055 9.9001 7.72873C9.97534 6.89184 10.1446 6.07374 10.4079 5.27425C10.4361 5.30244 10.4644 5.33071 10.4926 5.35889C10.7926 4.73435 11.2298 4.22653 11.8044 3.83542C12.1571 3.67647 12.4815 3.47901 12.7778 3.24296C12.806 3.29941 12.8342 3.35578 12.8624 3.41223C16.6949 3.24364 20.5459 3.18718 24.4154 3.24296Z" fill="#656565"/>
<path opacity="0.96" fill-rule="evenodd" clip-rule="evenodd" d="M61.5703 9.50583C61.0044 10.482 60.4683 11.4835 59.9622 12.5105C59.9904 12.5386 60.0187 12.5669 60.0469 12.5951C59.9604 12.7813 59.8475 12.9506 59.7083 13.1029C59.747 13.138 59.7753 13.1803 59.7929 13.2299C59.5042 13.6383 59.3067 14.0897 59.2005 14.5841C59.1158 14.5841 59.0312 14.5841 58.9466 14.5841C58.8338 14.9791 58.7208 15.374 58.608 15.769C58.5234 15.769 58.4387 15.769 58.3541 15.769C58.0049 16.5989 57.6946 17.4453 57.4231 18.3081C57.3385 18.3081 57.2538 18.3081 57.1692 18.3081C57.0564 18.7031 56.9435 19.098 56.8306 19.493C56.746 19.493 56.6614 19.493 56.5767 19.493C56.2762 20.3173 55.9518 21.1354 55.6034 21.9475C55.5752 21.9193 55.5469 21.8911 55.5188 21.8629C55.3762 22.4108 55.1365 22.9046 54.7993 23.344C54.838 23.3791 54.8663 23.4214 54.884 23.471C54.184 24.728 53.5915 25.9412 53.1066 27.1104C50.7361 27.1386 48.3662 27.1104 45.9971 27.0257C45.8645 26.8229 45.7939 26.5972 45.7855 26.3486C45.7587 26.1962 45.7022 26.168 45.6162 26.264C45.4536 25.5901 45.3267 24.913 45.2353 24.2327C45.1507 24.2327 45.0661 24.2327 44.9814 24.2327C44.6514 22.9136 44.327 21.5875 44.0081 20.2548C43.9516 20.1419 43.8953 20.1419 43.8388 20.2548C43.722 19.5357 43.5528 18.8304 43.331 18.1388C43.3028 18.167 43.2746 18.1953 43.2464 18.2235C43.1302 17.6408 43.0032 17.0625 42.8655 16.4884C42.8536 16.3229 42.7831 16.196 42.6539 16.1075C42.591 15.9433 42.6052 15.7881 42.6962 15.642C42.6187 15.6104 42.5481 15.5681 42.4846 15.5151C42.43 14.9216 42.2747 14.3574 42.0191 13.8223C42.1174 13.6764 42.1033 13.5354 41.9768 13.3991C41.9486 13.4273 41.9204 13.4556 41.8922 13.4838C41.6186 12.1712 41.2659 10.8875 40.8342 9.63279C40.8624 9.6046 40.8907 9.57633 40.9188 9.54815C40.8413 9.51649 40.7707 9.47418 40.7073 9.42119C40.6954 9.20596 40.639 9.00842 40.538 8.82873C40.5294 8.55789 40.473 8.30398 40.3687 8.067C39.4301 8.13657 38.4849 8.17889 37.5334 8.19395C38.4957 8.45768 39.3985 8.71159 40.2417 8.95569C40.4227 9.14892 40.5073 9.38878 40.4957 9.67511C39.6628 15.4919 38.8165 21.3037 37.9565 27.1104C35.5021 27.1104 33.0476 27.1104 30.5931 27.1104C30.5366 27.1104 30.4803 27.1104 30.4238 27.1104C30.5763 26.9717 30.7173 26.8166 30.847 26.6449C31.4772 26.4616 31.9991 26.1089 32.4128 25.5869C32.6128 25.2615 32.8244 24.9512 33.0476 24.6559C33.1371 24.5628 33.2077 24.4499 33.2592 24.3173C33.5238 23.1769 33.6649 22.0202 33.6824 20.8472C34.0194 19.2858 34.1887 17.7059 34.1902 16.1075C34.1585 15.7627 34.0598 15.4524 33.894 15.1765C33.8093 15.1765 33.7247 15.1765 33.64 15.1765C33.6152 14.9011 33.5023 14.6754 33.3015 14.4994C33.0575 14.0293 32.7189 13.6343 32.2858 13.3145C32.3059 13.2052 32.2777 13.1206 32.2012 13.0606C32.2012 13.0041 32.2012 12.9478 32.2012 12.8913C32.3023 12.1606 32.3869 11.4271 32.4551 10.6908C32.4935 10.6097 32.5498 10.5391 32.6244 10.4792C33.2038 10.4646 33.7681 10.4223 34.3171 10.3522C34.6504 10.377 34.9748 10.3488 35.2905 10.2676C35.36 9.69956 35.4446 9.13537 35.5444 8.57482C35.6008 8.01054 35.6008 7.44635 35.5444 6.88208C35.3694 6.35047 35.1436 5.84265 34.8673 5.35861C34.4883 5.00762 34.1356 4.62675 33.8093 4.216C33.7224 4.17258 33.6378 4.13027 33.5554 4.08905C33.5554 4.03259 33.5272 4.00441 33.4708 4.00441C33.4426 3.89159 33.4143 3.77868 33.3861 3.66586C33.3861 3.52477 33.3861 3.38377 33.3861 3.24268C37.8437 3.24268 42.3012 3.24268 46.7588 3.24268C47.0175 4.17377 47.2291 5.13305 47.3936 6.12034C47.4204 6.27277 47.4769 6.30096 47.5629 6.20498C47.628 6.42495 47.6138 6.63654 47.5205 6.83976C47.5668 6.91805 47.6232 6.98855 47.6898 7.05135C47.789 7.72447 47.9583 8.37338 48.1976 8.99801C48.1109 9.17371 48.1392 9.34299 48.2823 9.50583C48.4566 10.3623 48.64 11.2086 48.8324 12.0449C48.8606 11.9885 48.8889 11.9321 48.9171 11.8757C49.2227 13.5283 49.5612 15.1646 49.9327 16.7846C49.9892 17.0104 50.0455 17.0104 50.102 16.7846C50.1302 16.9821 50.1584 17.1796 50.1866 17.3771C50.5627 16.6807 50.8589 15.8908 51.0753 15.0072C51.1599 15.0072 51.2446 15.0072 51.3292 15.0072C51.6118 14.0641 51.9221 13.133 52.2602 12.2142C52.3449 12.2142 52.4295 12.2142 52.5141 12.2142C52.6454 11.7717 52.7582 11.3204 52.8527 10.86C52.9373 10.86 53.022 10.86 53.1066 10.86C53.1504 10.5734 53.2209 10.2912 53.3182 10.0137C53.3464 10.0418 53.3747 10.0701 53.4028 10.0983C53.4449 9.90278 53.459 9.70532 53.4452 9.50583C53.5298 9.50583 53.6144 9.50583 53.6991 9.50583C54.4429 7.49747 55.2751 5.52263 56.1959 3.58122C56.2373 3.47179 56.2515 3.35888 56.2382 3.24268C60.9214 3.24268 65.6047 3.24268 70.288 3.24268C70.2802 3.75143 70.252 4.25925 70.2033 4.76615C70.1986 5.04376 70.1281 5.29767 69.9917 5.52788C69.861 6.91788 69.7058 8.30026 69.5262 9.67511C69.4617 9.77058 69.4053 9.86935 69.357 9.97133C69.482 10.3976 69.4397 10.8066 69.23 11.1986C69.1022 12.7059 68.9471 14.1447 68.7645 15.5151C68.7149 15.5328 68.6726 15.561 68.6375 15.5997C68.2378 18.4877 67.8992 21.3936 67.6219 24.3173C67.5359 24.2214 67.4794 24.2495 67.4526 24.402C67.3037 25.2952 67.2332 26.1981 67.241 27.1104C64.6737 27.1104 62.1063 27.1104 59.539 27.1104C59.525 26.5172 59.539 25.9248 59.5814 25.333C59.6673 25.429 59.7238 25.4008 59.7506 25.2484C60.1903 22.1065 60.5289 18.9467 60.7663 15.769C60.7945 15.7972 60.8227 15.8254 60.8509 15.8536C61.0592 14.26 61.2426 12.6519 61.4011 11.0293C61.4596 10.9849 61.5019 10.9284 61.528 10.86C61.5702 10.4095 61.5844 9.95813 61.5703 9.50583ZM61.5703 9.50583C61.5609 9.45361 61.5327 9.41129 61.4857 9.37887C61.5887 9.23939 61.6592 9.08425 61.6973 8.91337C61.7537 9.08264 61.7537 9.25192 61.6973 9.42119C61.6649 9.46825 61.6225 9.49644 61.5703 9.50583Z" fill="#B7B7B7"/>
<path fill-rule="evenodd" clip-rule="evenodd" d="M33.5561 4.08936C33.6384 4.13057 33.7231 4.17289 33.81 4.21631C34.1363 4.62706 34.4889 5.00792 34.8679 5.35891C35.1443 5.84295 35.37 6.35078 35.545 6.88238C35.6015 7.44666 35.6015 8.01085 35.545 8.57513C35.4453 9.13568 35.3606 9.69987 35.2911 10.2679C34.9754 10.3491 34.651 10.3773 34.3178 10.3525C34.3475 9.77605 34.4463 9.21177 34.614 8.65977C34.7966 7.21712 34.4157 5.94757 33.4714 4.85109C33.5482 4.60387 33.5764 4.34995 33.5561 4.08936Z" fill="#7E7E7E"/>
<path opacity="0.01" fill-rule="evenodd" clip-rule="evenodd" d="M99.3186 5.69678C99.4312 5.75324 99.4312 5.75324 99.3186 5.69678V5.69678Z" fill="#B6B7B6"/>
<path opacity="0.01" fill-rule="evenodd" clip-rule="evenodd" d="M99.5735 5.8667C99.6861 5.92316 99.6861 5.92316 99.5735 5.8667V5.8667Z" fill="#B6B7B6"/>
<path opacity="0.953" fill-rule="evenodd" clip-rule="evenodd" d="M97.9649 8.74388C102.529 8.054 105.393 9.91602 106.556 14.3299C106.707 15.1802 106.862 16.0266 107.021 16.8691C110.523 17.3553 114.021 17.8772 117.516 18.4348C120.342 19.2188 122.331 20.9539 123.483 23.64C124.443 26.5329 125.303 29.4529 126.064 32.4C126.098 32.7555 125.958 33.0094 125.641 33.1617C119.402 33.0227 113.167 32.7687 106.936 32.4C112.632 32.0729 118.331 31.7907 124.033 31.5536C123.032 29.1147 122.031 26.6743 121.029 24.2325C120.037 22.6141 118.612 21.5844 116.754 21.1432C112.885 20.6701 109.019 20.1623 105.159 19.6198C104.651 19.5067 104.298 19.2105 104.101 18.7311C104.016 17.659 103.932 16.587 103.847 15.5149C103.725 13.9596 103.063 12.7042 101.858 11.7485C101.168 11.3926 100.435 11.1951 99.6576 11.156C93.634 10.9745 87.6247 10.5796 81.6299 9.97112C83.5029 9.693 85.3929 9.49554 87.3006 9.37866C90.8663 9.13203 94.4211 8.92043 97.9649 8.74388Z" fill="#B6B7B6"/>
<path opacity="0.126" fill-rule="evenodd" clip-rule="evenodd" d="M25.9385 12.2145C27.4757 12.1162 29.0273 12.1021 30.5935 12.1722C31.1355 12.3994 31.6715 12.6392 32.2016 12.8916C32.2016 12.9481 32.2016 13.0045 32.2016 13.0609C32.2285 13.3209 32.2003 13.5748 32.117 13.8226C31.4243 13.1393 30.6344 12.6315 29.7472 12.2992C28.4789 12.2146 27.2093 12.1864 25.9385 12.2145Z" fill="#050505"/>
<path fill-rule="evenodd" clip-rule="evenodd" d="M32.2862 13.3149C32.7193 13.6347 33.0578 14.0297 33.3018 14.4999C33.4362 14.995 33.6196 15.4746 33.852 15.9387C33.8661 16.3337 33.8801 16.7286 33.8943 17.1236C33.7237 19.6494 33.4415 22.1604 33.0479 24.6563C32.8247 24.9516 32.6131 25.2619 32.4131 25.5873C31.9994 26.1094 31.4775 26.4621 30.8473 26.6453C30.7176 26.817 30.5766 26.9722 30.4241 27.1108C30.3476 27.0508 30.3194 26.9662 30.3395 26.8569C30.4238 26.8642 30.4943 26.8359 30.5511 26.7723C30.5793 26.6312 30.6076 26.4902 30.6357 26.3491C31.4266 25.84 31.9627 25.1346 32.2438 24.2331C32.5626 21.8084 32.887 19.3822 33.2172 16.9543C33.2057 15.8899 32.8671 14.9447 32.2015 14.119C32.2749 13.8562 32.3032 13.5882 32.2862 13.3149Z" fill="#7C7C7C"/>
<path fill-rule="evenodd" clip-rule="evenodd" d="M33.3027 14.5C33.5036 14.676 33.6164 14.9017 33.6413 15.1771C33.7259 15.1771 33.8106 15.1771 33.8952 15.1771C34.0611 15.4529 34.1598 15.7633 34.1914 16.1081C34.1899 17.7065 34.0206 19.2864 33.6836 20.8478C33.6662 22.0208 33.5251 23.1775 33.2604 24.3179C33.209 24.4505 33.1384 24.5634 33.0488 24.6565C33.4425 22.1605 33.7247 19.6496 33.8952 17.1238C33.8811 16.7288 33.867 16.3338 33.8529 15.9388C33.6206 15.4748 33.4371 14.9951 33.3027 14.5Z" fill="#8E8E8E"/>
<path opacity="0.951" fill-rule="evenodd" clip-rule="evenodd" d="M92.3786 24.9947C93.7226 24.9429 95.0489 25.0698 96.3565 25.3755C99.3671 26.5292 100.764 28.7156 100.546 31.9349C99.5423 28.0958 97.0734 26.5018 93.1403 27.1529C90.9795 27.621 89.6676 28.9329 89.2047 31.0885C89.192 31.5751 89.1361 32.0547 89.0354 32.5274C88.8475 32.8564 88.5792 33.0962 88.2314 33.2468C84.9593 33.3723 81.687 33.4006 78.4134 33.3314C57.3958 32.9603 36.3776 32.6217 15.3587 32.3158C10.3619 32.2604 5.36829 32.1194 0.37793 31.8926C1.16282 31.7893 1.95277 31.7329 2.74777 31.7233C6.58424 31.6199 10.4212 31.5353 14.2584 31.4694C38.3238 31.0978 62.3889 30.7311 86.454 30.3691C87.3477 27.3733 89.3223 25.5819 92.3786 24.9947Z" fill="#B6B7B6"/>
<path opacity="0.057" fill-rule="evenodd" clip-rule="evenodd" d="M30.3396 26.8566C30.3195 26.9659 30.3477 27.0505 30.4242 27.1105C30.4807 27.1105 30.5371 27.1105 30.5935 27.1105C27.9979 27.2233 25.4025 27.2233 22.8069 27.1105C25.0928 27.1387 27.378 27.1105 29.6625 27.0259C29.8572 26.96 30.0405 26.8754 30.2126 26.772C30.2774 26.7779 30.3197 26.8061 30.3396 26.8566Z" fill="#020202"/>
<path opacity="0.713" fill-rule="evenodd" clip-rule="evenodd" d="M10.1961 38.1132C10.8456 38.0991 11.4945 38.1132 12.1427 38.1555C12.3232 38.2334 12.4925 38.3321 12.6506 38.4517C12.7076 38.6224 12.8064 38.7634 12.9468 38.8749C13.0097 39.0392 12.9955 39.1943 12.9045 39.3404C12.6744 39.3957 12.4488 39.4663 12.2274 39.552C11.8761 39.3414 11.5235 39.1439 11.1694 38.9595C10.8883 39.0939 10.6204 39.2631 10.3654 39.4674C10.4098 39.5259 10.4663 39.5683 10.5346 39.5943C10.5065 39.6225 10.4782 39.6508 10.45 39.679C10.8907 39.9482 11.3703 40.1175 11.8888 40.1868C11.8606 40.215 11.8324 40.2432 11.8042 40.2714C12.7408 40.7211 12.9665 41.4123 12.4813 42.345C12.2961 42.6008 12.0704 42.8124 11.8042 42.9798C10.9527 43.0556 10.1063 43.0274 9.26508 42.8952C9.29326 42.867 9.32153 42.8387 9.34972 42.8105C8.85738 42.5548 8.65992 42.1457 8.75726 41.5833C9.08387 41.4767 9.42242 41.392 9.7729 41.3294C9.74853 41.7424 9.94599 41.954 10.3654 41.9642C10.2525 42.0206 10.2525 42.077 10.3654 42.1334C10.4641 42.1476 10.5628 42.1616 10.6616 42.1758C10.914 42.0576 11.182 41.9448 11.4656 41.8372C11.5975 41.6167 11.5693 41.4193 11.381 41.2448C11.0249 41.1047 10.6581 41.006 10.2807 40.9485C10.3935 40.8921 10.3935 40.8357 10.2807 40.7792C9.99237 40.6568 9.71027 40.5298 9.43435 40.3984C9.42843 40.0862 9.34379 39.804 9.18044 39.552C9.19458 39.4392 9.20863 39.3263 9.22276 39.2135C9.25095 39.2416 9.27921 39.2699 9.3074 39.2981C9.47701 38.7338 9.77324 38.3389 10.1961 38.1132Z" fill="#B6B7B6"/>
<path opacity="0.757" fill-rule="evenodd" clip-rule="evenodd" d="M16.1204 38.1133C17.4181 38.1133 18.7159 38.1133 20.0137 38.1133C20.0498 38.3916 19.9934 38.6455 19.8444 38.875C19.3648 38.9315 18.8852 38.9878 18.4056 39.0443C18.4974 39.3213 18.5115 39.6034 18.4479 39.8907C18.4129 39.9293 18.3705 39.9576 18.3209 39.9753C18.1272 41.0503 17.9862 42.0659 17.8977 43.0222C17.5027 43.0222 17.1078 43.0222 16.7128 43.0222C16.8496 41.9611 16.9625 40.889 17.0514 39.806C17.136 39.806 17.2207 39.806 17.3053 39.806C17.3053 39.5239 17.3053 39.2417 17.3053 38.9597C16.8256 38.9597 16.3461 38.9597 15.8665 38.9597C16.0261 38.7096 16.1107 38.4274 16.1204 38.1133Z" fill="#B6B7B6"/>
<path opacity="0.75" fill-rule="evenodd" clip-rule="evenodd" d="M23.145 38.1132C24.1328 38.0991 25.1203 38.1132 26.1073 38.1555C26.2258 38.2772 26.3669 38.3477 26.5305 38.3671C26.6215 38.6431 26.7061 38.9253 26.7844 39.2135C26.9439 39.3145 26.9862 39.4555 26.9114 39.6367C26.8097 40.155 26.5417 40.5641 26.1073 40.8639C26.1355 40.8921 26.1638 40.9204 26.192 40.9486C26.0271 41.0855 25.8015 41.1701 25.5149 41.2025C25.6993 41.2399 25.7557 41.3245 25.6842 41.4564C25.8793 41.8714 26.0909 42.2806 26.3189 42.6836C26.3604 42.7931 26.3745 42.906 26.3612 43.0222C25.9662 43.0222 25.5713 43.0222 25.1763 43.0222C24.9311 42.4843 24.7336 41.92 24.5839 41.3294C24.3018 41.3294 24.0196 41.3294 23.7375 41.3294C23.5997 41.8768 23.5433 42.441 23.5682 43.0222C23.1732 43.0222 22.7783 43.0222 22.3833 43.0222C22.4259 42.2868 22.4964 41.5532 22.5949 40.8216C22.6299 40.7829 22.6723 40.7547 22.7218 40.737C22.8779 39.8706 23.019 38.9961 23.145 38.1132ZM24.1607 38.9596C24.5567 38.9455 24.9516 38.9597 25.3456 39.0019C25.9431 39.5457 25.8585 39.9407 25.0917 40.1868C25.2045 40.2433 25.2045 40.2996 25.0917 40.3561C24.6937 40.4262 24.2987 40.4121 23.9068 40.3138C24.0697 39.8769 24.1543 39.4255 24.1607 38.9596Z" fill="#B6B7B6"/>
<path opacity="0.778" fill-rule="evenodd" clip-rule="evenodd" d="M30.2551 38.1133C31.3836 38.1133 32.5122 38.1133 33.6406 38.1133C33.5173 38.3801 33.4327 38.6622 33.3867 38.9597C32.6511 38.9316 31.9175 38.9598 31.1862 39.0443C31.3263 39.3708 31.2699 39.6529 31.0169 39.8907C31.6916 39.9751 32.3687 40.0033 33.0482 39.9753C33.0621 40.2588 33.048 40.5409 33.0059 40.8217C32.9635 40.864 32.9212 40.9063 32.8789 40.9486C32.2024 40.9909 31.5253 41.005 30.8476 40.9909C30.8749 41.3063 30.8467 41.6167 30.763 41.922C30.6131 41.9672 30.5849 42.0378 30.6783 42.1335C31.3831 42.1759 32.0884 42.1899 32.7943 42.1759C32.7943 42.458 32.7943 42.7401 32.7943 43.0222C31.694 43.0222 30.5937 43.0222 29.4934 43.0222C29.5927 41.9112 29.7196 40.8109 29.8743 39.7214C29.9025 39.7496 29.9307 39.7778 29.9589 39.806C29.9871 39.7214 30.0154 39.6368 30.0436 39.5521C30.07 39.0573 30.1405 38.5778 30.2551 38.1133Z" fill="#B6B7B6"/>
<path opacity="0.71" fill-rule="evenodd" clip-rule="evenodd" d="M37.5346 38.113C38.2295 38.0886 38.9206 38.1168 39.6082 38.1976C39.887 38.3171 40.0845 38.5146 40.2007 38.7901C40.2289 38.7619 40.2571 38.7336 40.2853 38.7054C40.3274 38.9294 40.3415 39.1551 40.3276 39.3825C40.0635 39.3857 39.8096 39.4422 39.5659 39.5518C39.2147 39.3412 38.8621 39.1437 38.5079 38.9593C38.2269 39.0937 37.9589 39.2629 37.7039 39.4672C37.7483 39.5257 37.8048 39.5681 37.8732 39.5941C37.845 39.6223 37.8167 39.6506 37.7885 39.6788C38.2292 39.948 38.7089 40.1173 39.2274 40.1866C39.1992 40.2148 39.1709 40.243 39.1427 40.2712C40.0792 40.7193 40.3049 41.4105 39.8198 42.3448C39.3942 42.9732 38.8017 43.1989 38.0424 43.0219C37.5573 43.0272 37.0777 42.9849 36.6036 42.895C36.6318 42.8668 36.6601 42.8385 36.6882 42.8103C36.5355 42.7281 36.3944 42.6293 36.2651 42.5141C36.2194 42.2854 36.1066 42.102 35.9265 41.964C35.9774 41.8281 36.062 41.7153 36.1804 41.6254C36.4533 41.4358 36.7636 41.3371 37.1114 41.3292C37.0871 41.7422 37.2845 41.9538 37.7039 41.964C37.5911 42.0204 37.5911 42.0768 37.7039 42.1332C37.8027 42.1474 37.9014 42.1614 38.0001 42.1756C38.2525 42.0574 38.5206 41.9446 38.8042 41.837C38.936 41.6165 38.9079 41.4191 38.7195 41.2445C38.3635 41.1045 37.9967 41.0058 37.6193 40.9483C37.7321 40.8919 37.7321 40.8355 37.6193 40.779C37.3309 40.6566 37.0488 40.5296 36.7729 40.3982C36.7696 40.0872 36.6849 39.8051 36.519 39.5518C36.661 39.1736 36.8585 38.8209 37.1114 38.4938C37.0833 38.4657 37.055 38.4374 37.0268 38.4092C37.2401 38.3736 37.4094 38.2748 37.5346 38.113Z" fill="#B6B7B6"/>
<path opacity="0.708" fill-rule="evenodd" clip-rule="evenodd" d="M44.3894 38.1132C45.0671 38.0991 45.7442 38.1132 46.4207 38.1555C46.9238 38.4147 47.1777 38.8238 47.1825 39.3827C46.922 39.3698 46.6822 39.4262 46.463 39.552C46.3042 39.4883 46.149 39.4178 45.9975 39.3404C46.0257 39.3122 46.054 39.284 46.0822 39.2558C45.9411 39.2276 45.8001 39.1993 45.659 39.1711C45.7718 39.1147 45.7718 39.0583 45.659 39.0019C45.4897 38.9454 45.3204 38.9454 45.1512 39.0019C45.0384 39.0583 45.0384 39.1147 45.1512 39.1711C44.5073 39.3305 44.4792 39.5844 45.0665 39.9329C45.6452 40.0004 46.1813 40.2685 46.6746 40.7369C46.7496 40.8068 46.7778 40.8914 46.7593 40.9908C46.8439 40.9908 46.9286 40.9908 47.0132 40.9908C47.0132 41.3012 47.0132 41.6115 47.0132 41.9219C46.9286 41.9219 46.8439 41.9219 46.7593 41.9219C46.7112 42.4168 46.4573 42.7695 45.9975 42.9798C45.264 43.0363 44.5305 43.0363 43.797 42.9798C43.5343 42.8211 43.2804 42.666 43.0352 42.5143C43.044 42.2951 42.9876 42.0976 42.866 41.9219C42.8942 41.8654 42.9224 41.809 42.9506 41.7526C43.1276 41.64 43.2969 41.5271 43.4584 41.414C43.6483 41.3316 43.8457 41.3033 44.0509 41.3294C44.0355 41.5064 44.0638 41.6756 44.1355 41.8372C44.4191 41.9448 44.6872 42.0576 44.9396 42.1758C45.0384 42.1616 45.137 42.1476 45.2358 42.1334C45.3486 42.077 45.3486 42.0206 45.2358 41.9642C45.6552 41.954 45.8526 41.7424 45.8283 41.3294C45.5849 41.2343 45.331 41.1638 45.0665 41.1178C45.0947 41.0896 45.123 41.0613 45.1512 41.0332C44.9254 41.005 44.6998 40.9767 44.4741 40.9485C44.5869 40.8921 44.5869 40.8357 44.4741 40.7792C44.1857 40.6568 43.9036 40.5298 43.6277 40.3984C43.3403 39.6988 43.4531 39.064 43.9663 38.494C43.9381 38.4659 43.9098 38.4376 43.8816 38.4094C44.0949 38.3738 44.2642 38.275 44.3894 38.1132Z" fill="#B6B7B6"/>
<path opacity="0.742" fill-rule="evenodd" clip-rule="evenodd" d="M50.7373 38.1133C51.1323 38.1133 51.5273 38.1133 51.9223 38.1133C51.9358 38.2571 51.9217 38.3982 51.8799 38.5365C51.7939 38.4405 51.7375 38.4687 51.7107 38.6211C51.5563 39.7109 51.4293 40.8112 51.3298 41.922C51.2452 41.922 51.1605 41.922 51.0759 41.922C51.0759 42.0066 51.0759 42.0912 51.0759 42.1759C51.753 42.1759 52.4301 42.1759 53.1072 42.1759C53.1072 42.458 53.1072 42.7401 53.1072 43.0222C52.0351 43.0222 50.9631 43.0222 49.891 43.0222C49.877 42.7106 49.891 42.4003 49.9333 42.0912C49.9593 42.0228 50.0017 41.9664 50.0602 41.922C50.1443 41.1802 50.2431 40.4466 50.3565 39.7214C50.3846 39.7496 50.4129 39.7778 50.4411 39.806C50.4833 39.412 50.4975 39.0171 50.4834 38.6211C50.5681 38.6211 50.6527 38.6211 50.7373 38.6211C50.7373 38.4518 50.7373 38.2826 50.7373 38.1133Z" fill="#B6B7B6"/>
<path opacity="0.778" fill-rule="evenodd" clip-rule="evenodd" d="M57.001 38.1133C58.1295 38.1133 59.258 38.1133 60.3865 38.1133C60.2935 38.3387 60.2088 38.6208 60.1326 38.9597C59.3847 38.92 58.6512 38.9623 57.932 39.0866C58.0652 39.396 58.0088 39.6639 57.7627 39.8907C58.4375 39.9751 59.1146 40.0033 59.794 39.9753C59.8401 40.3285 59.7836 40.6529 59.6247 40.9486C58.9482 40.9909 58.2711 41.005 57.5935 40.9909C57.6208 41.3063 57.5925 41.6167 57.5088 41.922C57.3589 41.9672 57.3307 42.0378 57.4242 42.1335C58.129 42.1759 58.8342 42.1899 59.5401 42.1759C59.5401 42.458 59.5401 42.7401 59.5401 43.0222C58.4398 43.0222 57.3395 43.0222 56.2393 43.0222C56.2818 42.2868 56.3523 41.5533 56.4509 40.8217C56.6856 40.6452 56.728 40.4336 56.5778 40.1869C56.7714 39.5053 56.9125 38.8142 57.001 38.1133Z" fill="#B6B7B6"/>
<path opacity="0.714" fill-rule="evenodd" clip-rule="evenodd" d="M64.2793 38.1135C64.9742 38.0891 65.6653 38.1173 66.3529 38.1981C66.6346 38.3284 66.8462 38.526 66.9877 38.7906C67.0702 38.9804 67.0984 39.1779 67.0724 39.383C66.8082 39.3862 66.5543 39.4427 66.3106 39.5523C66.0725 39.3976 65.8186 39.2848 65.5489 39.2137C65.5489 39.1291 65.5489 39.0445 65.5489 38.9598C65.3773 38.9461 65.2081 38.9603 65.0411 39.0021C64.9282 39.0586 64.9282 39.115 65.0411 39.1714C64.802 39.1907 64.6046 39.2895 64.4486 39.4677C64.493 39.5262 64.5495 39.5685 64.6179 39.5946C64.5897 39.6228 64.5614 39.6511 64.5332 39.6792C64.9739 39.9485 65.4536 40.1178 65.9721 40.1871C65.9439 40.2153 65.9156 40.2435 65.8874 40.2717C66.8239 40.7198 67.0496 41.411 66.5645 42.3453C66.3793 42.6011 66.1536 42.8127 65.8874 42.9801C65.0359 43.0558 64.1895 43.0277 63.3483 42.8955C63.3765 42.8673 63.4048 42.839 63.433 42.8108C63.0541 42.6316 62.8284 42.3354 62.7559 41.9221C62.9063 41.6926 63.1038 41.5233 63.3483 41.4143C63.5088 41.3325 63.6781 41.3044 63.8561 41.3297C63.8318 41.7427 64.0292 41.9543 64.4486 41.9645C64.3358 42.0209 64.3358 42.0773 64.4486 42.1337C64.5474 42.1479 64.6461 42.1619 64.7448 42.176C64.9972 42.0579 65.2653 41.9451 65.5489 41.8375C65.7634 41.5816 65.7352 41.3842 65.4643 41.245C65.1082 41.105 64.7414 41.0063 64.364 40.9488C64.4768 40.8924 64.4768 40.836 64.364 40.7795C64.0756 40.6571 63.7935 40.5301 63.5176 40.3987C63.5416 40.0946 63.457 39.8266 63.2637 39.5946C63.3999 39.193 63.5974 38.8263 63.8561 38.4943C63.828 38.4661 63.7997 38.4379 63.7715 38.4097C63.9848 38.3741 64.1541 38.2753 64.2793 38.1135Z" fill="#B6B7B6"/>
<path opacity="0.707" fill-rule="evenodd" clip-rule="evenodd" d="M71.135 38.1132C71.8127 38.0991 72.4898 38.1132 73.1663 38.1555C73.6881 38.402 73.942 38.8111 73.9281 39.3827C73.6676 39.3698 73.4278 39.4262 73.2087 39.552C72.9782 39.3507 72.7101 39.2237 72.4046 39.1711C72.5174 39.1147 72.5174 39.0583 72.4046 39.0019C72.2353 38.9454 72.0661 38.9454 71.8968 39.0019C71.784 39.0583 71.784 39.1147 71.8968 39.1711C71.2623 39.345 71.2341 39.5989 71.8121 39.9329C72.4581 40.0012 72.9942 40.2692 73.4202 40.7369C73.4952 40.8068 73.5234 40.8914 73.5049 40.9908C73.5895 40.9908 73.6742 40.9908 73.7588 40.9908C73.7588 41.3012 73.7588 41.6115 73.7588 41.9219C73.6742 41.9219 73.5895 41.9219 73.5049 41.9219C73.4893 42.3401 73.2919 42.6364 72.9124 42.8105C72.9406 42.8387 72.9689 42.867 72.9971 42.8952C72.1852 43.0295 71.3671 43.0577 70.5426 42.9798C70.28 42.8211 70.026 42.666 69.7808 42.5143C69.7896 42.2951 69.7332 42.0976 69.6116 41.9219C69.6398 41.8654 69.668 41.809 69.6962 41.7526C69.8732 41.64 70.0425 41.5271 70.204 41.414C70.3939 41.3316 70.5913 41.3033 70.7965 41.3294C70.7811 41.5064 70.8094 41.6756 70.8811 41.8372C71.1647 41.9448 71.4328 42.0576 71.6852 42.1758C71.784 42.1616 71.8826 42.1476 71.9814 42.1334C72.0942 42.077 72.0942 42.0206 71.9814 41.9642C72.4008 41.954 72.5983 41.7424 72.5739 41.3294C72.3305 41.2343 72.0766 41.1638 71.8121 41.1178C71.8403 41.0896 71.8686 41.0613 71.8968 41.0332C71.671 41.005 71.4454 40.9767 71.2197 40.9485C71.3325 40.8921 71.3325 40.8357 71.2197 40.7792C70.4244 40.5489 70.1141 40.0269 70.2887 39.2135C70.448 38.7447 70.7302 38.378 71.135 38.1132Z" fill="#B6B7B6"/>
<path opacity="0.725" fill-rule="evenodd" clip-rule="evenodd" d="M81.968 38.1137C82.4301 38.0801 82.8814 38.1224 83.3222 38.2406C83.4247 38.3348 83.4247 38.4336 83.3222 38.5369C83.5597 38.8978 83.7149 39.2928 83.7877 39.7218C83.881 39.881 83.9938 40.0221 84.1263 40.145C84.2389 40.0184 84.3659 39.9055 84.5072 39.8064C84.8711 39.2724 85.2376 38.7363 85.6074 38.1983C86.1102 38.1173 86.618 38.0891 87.1309 38.1137C87.1444 38.2575 87.1301 38.3986 87.0886 38.5369C87.0607 38.5087 87.0319 38.4804 87.0039 38.4522C86.8034 39.5972 86.6197 40.754 86.4538 41.9224C86.4039 41.9401 86.3616 41.9683 86.3269 42.007C86.2845 42.3444 86.2701 42.6829 86.2845 43.0227C85.8893 43.0227 85.4949 43.0227 85.0996 43.0227C85.0852 42.6266 85.0996 42.2317 85.1419 41.8377C85.2283 41.9337 85.2841 41.9055 85.3112 41.7531C85.3688 41.2402 85.4255 40.7324 85.4805 40.2296C85.2968 40.4412 85.114 40.6528 84.9303 40.8644C85.0268 40.9271 85.0268 40.9977 84.9303 41.076C84.5766 41.3531 84.294 41.6916 84.084 42.0916C83.9271 42.1983 83.772 42.1983 83.6185 42.0916C83.3467 41.4545 83.0928 40.8057 82.8567 40.145C82.8285 40.3143 82.8003 40.4835 82.7721 40.6528C82.737 40.6915 82.6947 40.7198 82.6451 40.7374C82.5127 41.4949 82.428 42.2567 82.3912 43.0227C81.9962 43.0227 81.6013 43.0227 81.2063 43.0227C81.2489 42.2872 81.3194 41.5537 81.4179 40.8221C81.4743 40.7656 81.5307 40.7093 81.5872 40.6528C81.7065 39.8065 81.8335 38.9601 81.968 38.1137Z" fill="#B6B7B6"/>
<path opacity="0.73" fill-rule="evenodd" clip-rule="evenodd" d="M92.0409 38.1132C92.7468 38.0991 93.4518 38.1132 94.1568 38.1555C94.3515 38.2499 94.5487 38.3205 94.7493 38.3671C94.7772 38.621 94.9186 38.7621 95.1725 38.7903C95.269 39.2934 95.4103 39.7731 95.5957 40.2291C95.4086 40.662 95.2681 41.1698 95.1725 41.7526C95.0726 41.734 94.988 41.7622 94.9186 41.8372C94.5309 42.3916 94.0231 42.7725 93.3951 42.9798C92.5716 43.0552 91.754 43.027 90.9406 42.8952C90.9685 42.867 90.9973 42.8387 91.0253 42.8105C90.7823 42.6379 90.5284 42.4827 90.2635 42.345C90.1594 41.8662 90.0181 41.4007 89.8403 40.9485C89.9978 40.4289 90.167 39.9069 90.3482 39.3827C90.6478 39.041 90.9863 38.7447 91.3638 38.494C91.3359 38.4659 91.3071 38.4376 91.2792 38.4094C91.5432 38.312 91.7971 38.2132 92.0409 38.1132ZM92.6334 38.9595C92.861 38.9457 93.0862 38.9598 93.3105 39.0019C93.6609 39.1656 93.9715 39.3914 94.2415 39.679C94.1704 39.7645 94.1424 39.8633 94.1568 39.9752C94.2415 39.9752 94.3261 39.9752 94.4107 39.9752C94.4107 40.1727 94.4107 40.3702 94.4107 40.5677C94.3261 40.5677 94.2415 40.5677 94.1568 40.5677C94.1831 40.7728 94.1543 40.9703 94.0722 41.1601C93.9351 41.2814 93.8217 41.4224 93.7336 41.5833C93.3782 41.7911 93.0108 41.9744 92.6334 42.1334C92.4362 42.1899 92.2381 42.1899 92.0409 42.1334C91.9283 42.077 91.9283 42.0206 92.0409 41.9642C91.4154 41.8746 91.0769 41.5079 91.0253 40.8639C91.1099 40.5952 91.1945 40.3271 91.2792 40.0598C91.473 39.917 91.5856 39.7618 91.6177 39.5943C91.7641 39.4648 91.9334 39.3802 92.1255 39.3404C92.0976 39.3122 92.0688 39.284 92.0409 39.2558C92.2381 39.2276 92.4362 39.1993 92.6334 39.1711C92.5403 39.106 92.5403 39.0355 92.6334 38.9595Z" fill="#B6B7B6"/>
<path opacity="0.71" fill-rule="evenodd" clip-rule="evenodd" d="M98.4734 38.1132C98.8686 38.1132 99.2631 38.1132 99.6583 38.1132C99.8327 39.256 99.9884 40.4128 100.124 41.5833C100.151 41.4512 100.221 41.3524 100.335 41.2871C100.264 41.2015 100.236 41.1027 100.251 40.9908C100.335 40.9908 100.42 40.9908 100.505 40.9908C100.561 40.7087 100.617 40.4266 100.674 40.1445C100.763 40.1571 100.847 40.143 100.928 40.1021C100.857 40.0166 100.829 39.9178 100.843 39.8059C100.928 39.8059 101.013 39.8059 101.097 39.8059C101.154 39.5238 101.21 39.2416 101.266 38.9595C101.355 38.9721 101.44 38.9581 101.52 38.9172C101.449 38.8316 101.421 38.7329 101.436 38.621C101.52 38.621 101.605 38.621 101.69 38.621C101.659 38.4292 101.716 38.2741 101.859 38.1555C102.252 38.1132 102.648 38.0991 103.044 38.1132C103.044 38.2824 103.044 38.4517 103.044 38.621C102.837 38.6086 102.781 38.6791 102.875 38.8326C102.797 38.8642 102.726 38.9066 102.663 38.9595C102.598 39.2202 102.513 39.4741 102.409 39.7213C102.346 39.7743 102.275 39.8166 102.197 39.8482C102.269 39.9338 102.296 40.0326 102.282 40.1445C102.197 40.1445 102.113 40.1445 102.028 40.1445C101.803 40.7625 101.521 41.3549 101.182 41.9218C101.101 42.0526 101.073 42.1937 101.097 42.345C101.013 42.345 100.928 42.345 100.843 42.345C100.827 42.5845 100.77 42.8102 100.674 43.0221C100.222 43.0362 99.77 43.022 99.3198 42.9798C99.0658 42.6145 99.0091 42.2195 99.1505 41.7949C99.1039 41.7166 99.0481 41.6461 98.9812 41.5833C98.8204 40.4292 98.6511 39.2725 98.4734 38.1132Z" fill="#B6B7B6"/>
<path opacity="0.78" fill-rule="evenodd" clip-rule="evenodd" d="M106.176 38.1133C107.304 38.1133 108.433 38.1133 109.561 38.1133C109.468 38.3387 109.383 38.6208 109.307 38.9597C108.559 38.92 107.826 38.9623 107.107 39.0866C107.239 39.396 107.184 39.6639 106.937 39.8907C107.612 39.9751 108.289 40.0033 108.969 39.9753C109.014 40.3285 108.958 40.6529 108.799 40.9486C108.123 40.9909 107.446 41.005 106.768 40.9909C106.795 41.3063 106.767 41.6167 106.683 41.922C106.534 41.9672 106.506 42.0378 106.599 42.1335C107.304 42.1759 108.009 42.1899 108.715 42.1759C108.715 42.458 108.715 42.7401 108.715 43.0222C107.614 43.0222 106.514 43.0222 105.414 43.0222C105.424 42.1501 105.565 41.3037 105.837 40.4831C105.714 40.1499 105.757 39.8395 105.964 39.5521C105.99 39.0573 106.061 38.5778 106.176 38.1133Z" fill="#B6B7B6"/>
<path opacity="0.751" fill-rule="evenodd" clip-rule="evenodd" d="M112.862 38.1131C113.882 38.0866 114.898 38.1149 115.909 38.1978C116.31 38.5348 116.536 38.972 116.586 39.5096C116.476 39.797 116.42 40.0932 116.417 40.3983C116.211 40.3661 116.154 40.4225 116.248 40.5676C116.119 40.6153 115.979 40.7141 115.825 40.8638C115.853 40.892 115.881 40.9203 115.909 40.9485C115.683 41.0331 115.458 41.1178 115.232 41.2024C115.351 41.3564 115.464 41.5117 115.571 41.6679C115.763 42.1074 115.904 42.5588 115.994 43.0221C115.599 43.0221 115.204 43.0221 114.809 43.0221C114.679 42.5088 114.481 42.0291 114.217 41.5833C114.244 41.5268 114.273 41.4704 114.301 41.414C114.024 41.3304 113.743 41.3023 113.455 41.3293C113.317 41.8767 113.261 42.4409 113.286 43.0221C112.89 43.0221 112.496 43.0221 112.101 43.0221C112.143 42.2867 112.214 41.5531 112.312 40.8215C112.389 40.7514 112.446 40.6668 112.481 40.5676C112.606 39.7551 112.733 38.9369 112.862 38.1131ZM113.878 38.9595C114.274 38.9455 114.669 38.9596 115.063 39.0018C115.175 39.0583 115.175 39.1146 115.063 39.1711C115.22 39.229 115.362 39.3136 115.486 39.425C115.375 39.7921 115.149 40.046 114.809 40.1867C114.922 40.2432 114.922 40.2996 114.809 40.356C114.415 40.3982 114.02 40.4124 113.624 40.3983C113.779 39.9277 113.864 39.448 113.878 38.9595Z" fill="#B6B7B6"/>
<path opacity="0.708" fill-rule="evenodd" clip-rule="evenodd" d="M120.563 38.1135C121.258 38.0891 121.95 38.1173 122.637 38.1981C122.9 38.2973 123.069 38.4383 123.145 38.6213C123.187 38.8737 123.2 39.1276 123.187 39.383C122.985 39.4131 122.787 39.4695 122.594 39.5523C122.243 39.3417 121.89 39.1442 121.537 38.9598C121.256 39.0941 120.987 39.2634 120.732 39.4677C120.883 39.5366 120.939 39.6354 120.902 39.7639C121.331 39.9729 121.783 40.1139 122.256 40.1871C122.143 40.2435 122.143 40.2999 122.256 40.3563C122.498 40.4708 122.724 40.6119 122.933 40.7795C122.84 40.8753 122.868 40.9458 123.018 40.9911C123.17 42.4612 122.507 43.1383 121.029 43.0224C120.676 43.0083 120.324 42.9942 119.971 42.9801C119.849 42.9616 119.736 42.9192 119.632 42.8531C119.344 42.5843 119.118 42.2741 118.955 41.9221C119.07 41.6751 119.267 41.5481 119.548 41.5413C119.66 41.4848 119.66 41.4284 119.548 41.372C119.743 41.3299 119.94 41.3159 120.14 41.3297C120.117 41.5261 120.174 41.6954 120.309 41.8375C120.483 41.8956 120.624 41.9944 120.732 42.1337C120.93 42.1902 121.128 42.1902 121.325 42.1337C121.476 41.9871 121.645 41.8602 121.833 41.7529C121.945 41.6118 121.945 41.4708 121.833 41.3297C121.459 41.1392 121.064 40.9981 120.648 40.9065C120.428 40.7661 120.202 40.625 119.971 40.4833C119.786 40.3713 119.73 40.2302 119.801 40.0601C119.732 39.9851 119.647 39.9569 119.548 39.9755C119.537 39.1502 119.875 38.5295 120.563 38.1135Z" fill="#B6B7B6"/>
</svg>
