<svg width="48" height="48" viewBox="0 0 48 48" fill="none" xmlns="http://www.w3.org/2000/svg">
<path d="M46.3125 18.6254C46.0974 17.9579 45.7017 17.3629 45.1694 16.9064C44.637 16.4498 43.9887 16.1495 43.2962 16.0386L32.4297 14.2726L27.3923 4.48383C27.0715 3.86066 26.5851 3.33791 25.9867 2.97295C25.3883 2.60799 24.7009 2.41492 24 2.41492C23.2991 2.41492 22.6117 2.60799 22.0133 2.97295C21.4148 3.33791 20.9285 3.86066 20.6077 4.48383L15.5703 14.2726L4.704 16.0386C4.01219 16.1512 3.36476 16.4522 2.83275 16.9085C2.30074 17.3649 1.90471 17.9589 1.6881 18.6256C1.4715 19.2922 1.4427 20.0055 1.60486 20.6874C1.76702 21.3693 2.11388 21.9934 2.60737 22.4911L10.3605 30.3069L8.68237 41.1871C8.57469 41.88 8.66022 42.5893 8.92954 43.2368C9.19886 43.8844 9.64155 44.4451 10.2089 44.8573C10.7763 45.2695 11.4463 45.5173 12.1454 45.5733C12.8445 45.6294 13.5454 45.4915 14.1712 45.175L24 40.2166L33.829 45.175C34.4549 45.4909 35.1557 45.6282 35.8545 45.5719C36.5533 45.5156 37.223 45.2677 37.7902 44.8557C38.3573 44.4436 38.8 43.8832 39.0695 43.236C39.339 42.5888 39.4249 41.8799 39.3179 41.1871L37.6398 30.3069L45.3929 22.4911C45.888 21.9944 46.2359 21.3703 46.3982 20.688C46.5605 20.0057 46.5308 19.2918 46.3125 18.6254ZM43.2628 20.3785L34.4437 29.2687L36.3529 41.6446C36.3765 41.7929 36.3587 41.9447 36.3014 42.0834C36.244 42.2221 36.1494 42.3423 36.0279 42.4305C35.9065 42.5187 35.763 42.5716 35.6134 42.5833C35.4637 42.5949 35.3138 42.565 35.1802 42.4966L24 36.8565L12.8197 42.4968C12.6861 42.5651 12.5362 42.5951 12.3865 42.5834C12.2369 42.5718 12.0934 42.5189 11.972 42.4307C11.8505 42.3424 11.7559 42.2223 11.6985 42.0836C11.6412 41.9449 11.6234 41.793 11.647 41.6448L13.5562 29.2687L4.73728 20.3784C4.63196 20.272 4.55796 20.1387 4.52339 19.993C4.48881 19.8473 4.49499 19.695 4.54125 19.5526C4.58751 19.4102 4.67206 19.2833 4.78565 19.1858C4.89924 19.0883 5.03747 19.0239 5.18522 18.9997L17.5453 16.991L23.2752 5.85661C23.3437 5.72343 23.4476 5.61169 23.5755 5.53368C23.7033 5.45567 23.8502 5.4144 24 5.4144C24.1498 5.4144 24.2967 5.45567 24.4245 5.53368C24.5524 5.61169 24.6563 5.72343 24.7248 5.85661L30.4547 16.991L42.8148 18.9997C42.9625 19.0239 43.1008 19.0883 43.2143 19.1858C43.3279 19.2833 43.4125 19.4102 43.4587 19.5526C43.505 19.695 43.5112 19.8473 43.4766 19.993C43.442 20.1387 43.368 20.272 43.2627 20.3784L43.2628 20.3785Z" fill="#4169E1"/>
</svg>
